STARTFONT 2.1
COMMENT
COMMENT Converted from OpenType font "GenBasR.ttf" by "otf2bdf 3.0".
COMMENT
FONT -FreeType-Gentium Basic-Medium-R-Normal--27-270-72-72-P-125-ISO10646-1
SIZE 27 72 72
FONTBOUNDINGBOX 40 38 -14 -9
STARTPROPERTIES 19
FOUNDRY "FreeType"
FAMILY_NAME "Gentium Basic"
WEIGHT_NAME "Medium"
SLANT "R"
SETWIDTH_NAME "Normal"
ADD_STYLE_NAME ""
PIXEL_SIZE 27
POINT_SIZE 270
RESOLUTION_X 72
RESOLUTION_Y 72
SPACING "P"
AVERAGE_WIDTH 125
CHARSET_REGISTRY "ISO10646"
CHARSET_ENCODING "1"
FONT_ASCENT 23
FONT_DESCENT 7
COPYRIGHT "Copyright (c) SIL International, 2003-2008."
_OTF_FONTFILE "GenBasR.ttf"
_OTF_PSNAME "GentiumBasic"
ENDPROPERTIES
CHARS 704
STARTCHAR 0020
ENCODING 32
SWIDTH 222 0
DWIDTH 6 0
BBX 0 0 0 0
BITMAP
ENDCHAR
STARTCHAR 0021
ENCODING 33
SWIDTH 259 0
DWIDTH 7 0
BBX 3 21 2 -1
BITMAP
60
E0
E0
E0
E0
60
60
60
60
60
40
40
40
40
40
00
00
60
E0
E0
C0
ENDCHAR
STARTCHAR 0022
ENCODING 34
SWIDTH 407 0
DWIDTH 11 0
BBX 7 9 2 11
BITMAP
66
E6
E6
C6
C6
46
46
46
46
ENDCHAR
STARTCHAR 0023
ENCODING 35
SWIDTH 481 0
DWIDTH 13 0
BBX 12 15 1 2
BITMAP
0660
0660
0440
0440
0CC0
3FF0
0880
1980
1100
FFE0
3300
2200
2200
6600
4400
ENDCHAR
STARTCHAR 0024
ENCODING 36
SWIDTH 444 0
DWIDTH 12 0
BBX 11 20 0 -2
BITMAP
0600
0600
0F80
37E0
6640
6600
6600
7600
3E00
1F80
07C0
06E0
0660
8660
C660
E6C0
7FC0
1F00
0600
0600
ENDCHAR
STARTCHAR 0025
ENCODING 37
SWIDTH 703 0
DWIDTH 19 0
BBX 17 16 1 0
BITMAP
380600
6C0C00
C61800
C61800
C63000
C66000
C6C000
6CC000
399E00
033300
066180
066180
0C6180
186180
303300
201E00
ENDCHAR
STARTCHAR 0026
ENCODING 38
SWIDTH 666 0
DWIDTH 18 0
BBX 17 19 1 0
BITMAP
03C000
0CE000
086000
186000
186000
18C000
1DC000
1F8000
0E0000
3E3F80
771D00
670C00
C38C00
C1CC00
C1E800
C0F800
607800
70DE00
1F0780
ENDCHAR
STARTCHAR 0027
ENCODING 39
SWIDTH 259 0
DWIDTH 7 0
BBX 3 9 2 11
BITMAP
60
E0
E0
C0
C0
40
40
40
40
ENDCHAR
STARTCHAR 0028
ENCODING 40
SWIDTH 333 0
DWIDTH 9 0
BBX 6 25 2 -4
BITMAP
04
08
18
30
20
60
60
60
C0
C0
C0
C0
C0
C0
C0
C0
C0
E0
60
60
60
30
18
08
04
ENDCHAR
STARTCHAR 0029
ENCODING 41
SWIDTH 333 0
DWIDTH 9 0
BBX 6 25 1 -4
BITMAP
80
40
60
30
18
18
18
18
0C
0C
0C
0C
0C
0C
0C
0C
0C
18
18
18
30
30
60
40
80
ENDCHAR
STARTCHAR 002A
ENCODING 42
SWIDTH 444 0
DWIDTH 12 0
BBX 10 12 1 9
BITMAP
0C00
0C00
8C00
CCC0
7780
1E00
1E00
7780
CCC0
0C80
0C00
0C00
ENDCHAR
STARTCHAR 002B
ENCODING 43
SWIDTH 407 0
DWIDTH 11 0
BBX 10 9 1 3
BITMAP
0C00
0C00
0C00
0C00
FFC0
0C00
0C00
0C00
0C00
ENDCHAR
STARTCHAR 002C
ENCODING 44
SWIDTH 222 0
DWIDTH 6 0
BBX 4 7 1 -4
BITMAP
70
F0
30
30
20
60
40
ENDCHAR
STARTCHAR 002D
ENCODING 45
SWIDTH 333 0
DWIDTH 9 0
BBX 7 1 1 6
BITMAP
FE
ENDCHAR
STARTCHAR 002E
ENCODING 46
SWIDTH 222 0
DWIDTH 6 0
BBX 3 4 2 -1
BITMAP
60
E0
E0
C0
ENDCHAR
STARTCHAR 002F
ENCODING 47
SWIDTH 481 0
DWIDTH 13 0
BBX 11 25 1 -4
BITMAP
0060
0060
00C0
00C0
0180
0180
0180
0300
0300
0600
0600
0600
0C00
0C00
0C00
1800
1800
3000
3000
3000
6000
6000
E000
C000
C000
ENDCHAR
STARTCHAR 0030
ENCODING 48
SWIDTH 481 0
DWIDTH 13 0
BBX 11 16 1 0
BITMAP
0F00
3180
60C0
40C0
40E0
C060
C060
C060
C060
C060
C060
C040
6040
60C0
3180
1E00
ENDCHAR
STARTCHAR 0031
ENCODING 49
SWIDTH 481 0
DWIDTH 13 0
BBX 9 16 2 0
BITMAP
0C00
3C00
FC00
0C00
0C00
0C00
0C00
0C00
0C00
0C00
0C00
0C00
0C00
0C00
0C00
FF80
ENDCHAR
STARTCHAR 0032
ENCODING 50
SWIDTH 481 0
DWIDTH 13 0
BBX 10 16 1 0
BITMAP
0F00
3180
60C0
60C0
00C0
00C0
0180
0180
0300
0600
0C00
1C00
1800
3040
6040
FFC0
ENDCHAR
STARTCHAR 0033
ENCODING 51
SWIDTH 481 0
DWIDTH 13 0
BBX 10 16 1 0
BITMAP
1E00
6300
6180
C180
0180
0300
0600
1F00
0380
01C0
00C0
00C0
00C0
0180
C180
3E00
ENDCHAR
STARTCHAR 0034
ENCODING 52
SWIDTH 481 0
DWIDTH 13 0
BBX 11 16 1 0
BITMAP
0180
0380
0780
0580
0D80
1980
1180
3180
6180
4180
FFE0
0180
0180
0180
0180
0FE0
ENDCHAR
STARTCHAR 0035
ENCODING 53
SWIDTH 481 0
DWIDTH 13 0
BBX 10 16 1 0
BITMAP
3FC0
2000
2000
2000
6000
6000
7F00
4380
01C0
00C0
00C0
00C0
00C0
0180
C180
3E00
ENDCHAR
STARTCHAR 0036
ENCODING 54
SWIDTH 481 0
DWIDTH 13 0
BBX 11 16 1 0
BITMAP
0380
0E00
1800
3000
6000
6000
CF00
F1C0
C0E0
C060
C060
C060
6060
6040
3080
1F00
ENDCHAR
STARTCHAR 0037
ENCODING 55
SWIDTH 481 0
DWIDTH 13 0
BBX 11 16 1 0
BITMAP
7FE0
40C0
80C0
0080
0180
0180
0300
0300
0600
0600
0400
0C00
0C00
1800
1800
3000
ENDCHAR
STARTCHAR 0038
ENCODING 56
SWIDTH 481 0
DWIDTH 13 0
BBX 11 16 1 0
BITMAP
1F00
7180
E0C0
E0C0
E0C0
F180
3F00
0F80
33C0
60E0
C060
C060
C060
C040
6080
1F00
ENDCHAR
STARTCHAR 0039
ENCODING 57
SWIDTH 481 0
DWIDTH 13 0
BBX 11 17 1 -1
BITMAP
1F00
3180
60C0
C0C0
C060
C060
C060
E060
71E0
1E60
00E0
00C0
00C0
0180
0300
0E00
3000
ENDCHAR
STARTCHAR 003A
ENCODING 58
SWIDTH 222 0
DWIDTH 6 0
BBX 3 14 2 -1
BITMAP
40
E0
E0
E0
00
00
00
00
00
00
60
E0
E0
C0
ENDCHAR
STARTCHAR 003B
ENCODING 59
SWIDTH 222 0
DWIDTH 6 0
BBX 4 17 1 -4
BITMAP
20
70
70
70
00
00
00
00
00
00
70
F0
30
30
20
60
40
ENDCHAR
STARTCHAR 003C
ENCODING 60
SWIDTH 444 0
DWIDTH 12 0
BBX 10 9 1 3
BITMAP
00C0
03C0
1F00
7800
E000
F800
1E00
07C0
00C0
ENDCHAR
STARTCHAR 003D
ENCODING 61
SWIDTH 444 0
DWIDTH 12 0
BBX 10 5 1 5
BITMAP
FFC0
0000
0000
0000
FFC0
ENDCHAR
STARTCHAR 003E
ENCODING 62
SWIDTH 444 0
DWIDTH 12 0
BBX 10 9 1 3
BITMAP
C000
F800
1E00
07C0
01C0
0780
3C00
F000
8000
ENDCHAR
STARTCHAR 003F
ENCODING 63
SWIDTH 444 0
DWIDTH 12 0
BBX 10 20 1 -1
BITMAP
1F00
6180
C0C0
C0C0
C0C0
00C0
0180
0180
0300
0600
0600
0C00
0C00
0C00
0800
0000
0C00
1C00
1C00
1800
ENDCHAR
STARTCHAR 0040
ENCODING 64
SWIDTH 814 0
DWIDTH 22 0
BBX 20 22 1 -5
BITMAP
00FC00
030700
0C01C0
1800C0
300060
20F460
611C70
430C30
C20C30
C60C30
C60C30
C60C30
C60C20
C60C60
E30C40
633C80
61C700
300000
380000
1C0040
070380
01FC00
ENDCHAR
STARTCHAR 0041
ENCODING 65
SWIDTH 592 0
DWIDTH 16 0
BBX 16 17 0 0
BITMAP
0080
0180
0380
03C0
02C0
06C0
0660
0460
0C70
0C30
0FF0
1818
1818
1018
300C
300C
F83F
ENDCHAR
STARTCHAR 0042
ENCODING 66
SWIDTH 518 0
DWIDTH 14 0
BBX 12 17 1 0
BITMAP
7F80
B0C0
3060
3060
3060
3040
3180
3FC0
30E0
3060
3030
3030
3030
3030
3060
30E0
FF80
ENDCHAR
STARTCHAR 0043
ENCODING 67
SWIDTH 518 0
DWIDTH 14 0
BBX 12 17 1 0
BITMAP
07E0
1870
3000
2000
6000
4000
C000
C000
C000
C000
C000
C000
6000
6000
3010
1820
0FC0
ENDCHAR
STARTCHAR 0044
ENCODING 68
SWIDTH 592 0
DWIDTH 16 0
BBX 14 17 1 0
BITMAP
7F80
B0E0
3030
3018
3018
300C
300C
300C
300C
300C
300C
300C
3018
3018
3030
3060
FF80
ENDCHAR
STARTCHAR 0045
ENCODING 69
SWIDTH 481 0
DWIDTH 13 0
BBX 12 17 1 0
BITMAP
FFE0
3020
3020
3000
3000
3000
3000
3FC0
3080
3000
3000
3000
3000
3000
3010
3030
FFE0
ENDCHAR
STARTCHAR 0046
ENCODING 70
SWIDTH 481 0
DWIDTH 13 0
BBX 11 17 1 0
BITMAP
FFE0
3020
3020
3000
3000
3000
3000
3F80
3100
3000
3000
3000
3000
3000
3000
3000
FC00
ENDCHAR
STARTCHAR 0047
ENCODING 71
SWIDTH 592 0
DWIDTH 16 0
BBX 14 17 1 0
BITMAP
03F0
0C38
1000
2000
6000
4000
C000
C000
C000
C0FC
C018
C018
6018
6018
3018
1818
07E0
ENDCHAR
STARTCHAR 0048
ENCODING 72
SWIDTH 666 0
DWIDTH 18 0
BBX 16 17 1 0
BITMAP
FC3F
300C
300C
300C
300C
300C
300C
300C
3FFC
300C
300C
300C
300C
300C
300C
300C
FC3F
ENDCHAR
STARTCHAR 0049
ENCODING 73
SWIDTH 296 0
DWIDTH 8 0
BBX 6 17 1 0
BITMAP
FC
30
30
30
30
30
30
30
30
30
30
30
30
30
30
30
FC
ENDCHAR
STARTCHAR 004A
ENCODING 74
SWIDTH 296 0
DWIDTH 8 0
BBX 10 22 -3 -5
BITMAP
1FC0
0300
0300
0300
0300
0300
0300
0300
0300
0300
0300
0300
0300
0300
0300
0300
0300
0300
0200
0600
4400
F800
ENDCHAR
STARTCHAR 004B
ENCODING 75
SWIDTH 592 0
DWIDTH 16 0
BBX 15 17 1 0
BITMAP
FCFC
3030
3060
30C0
3180
3300
3600
3400
3E00
3600
3300
3180
31C0
30E0
3070
3038
FC1E
ENDCHAR
STARTCHAR 004C
ENCODING 76
SWIDTH 481 0
DWIDTH 13 0
BBX 12 17 1 0
BITMAP
FC00
3000
3000
3000
3000
3000
3000
3000
3000
3000
3000
3000
3000
3000
3010
3030
FFE0
ENDCHAR
STARTCHAR 004D
ENCODING 77
SWIDTH 814 0
DWIDTH 22 0
BBX 20 17 1 0
BITMAP
F001E0
3801C0
3803C0
2C02C0
2C06C0
2C06C0
2604C0
260CC0
2308C0
2318C0
2398C0
2190C0
21B0C0
20E0C0
20E0C0
2040C0
F843F0
ENDCHAR
STARTCHAR 004E
ENCODING 78
SWIDTH 666 0
DWIDTH 18 0
BBX 16 17 1 0
BITMAP
F03F
300C
380C
3C0C
340C
360C
330C
330C
318C
30CC
30CC
306C
303C
303C
301C
301C
FC0C
ENDCHAR
STARTCHAR 004F
ENCODING 79
SWIDTH 592 0
DWIDTH 16 0
BBX 14 17 1 0
BITMAP
07C0
1860
3030
6018
6018
400C
C00C
C00C
C00C
C00C
C00C
C008
6018
6010
3030
1860
0F80
ENDCHAR
STARTCHAR 0050
ENCODING 80
SWIDTH 518 0
DWIDTH 14 0
BBX 12 17 1 0
BITMAP
7F80
B0E0
3060
3030
3030
3030
3030
3060
30C0
3F80
3000
3000
3000
3000
3000
3000
FC00
ENDCHAR
STARTCHAR 0051
ENCODING 81
SWIDTH 592 0
DWIDTH 16 0
BBX 16 21 1 -4
BITMAP
07C0
1860
3030
6018
6018
400C
C00C
C00C
C00C
C00C
C00C
C00C
6018
6018
3030
1860
0FC0
00C0
0060
0031
000E
ENDCHAR
STARTCHAR 0052
ENCODING 82
SWIDTH 555 0
DWIDTH 15 0
BBX 14 17 1 0
BITMAP
7F00
B1C0
3060
3060
3060
3060
30C0
31C0
3F00
3300
3180
3180
30C0
30E0
3060
3070
FC3C
ENDCHAR
STARTCHAR 0053
ENCODING 83
SWIDTH 481 0
DWIDTH 13 0
BBX 10 17 2 0
BITMAP
1F00
6380
C100
C000
E000
F000
7C00
7E00
1F80
0780
01C0
00C0
00C0
80C0
8080
C100
7E00
ENDCHAR
STARTCHAR 0054
ENCODING 84
SWIDTH 555 0
DWIDTH 15 0
BBX 14 17 0 0
BITMAP
FFFC
8304
8304
0300
0300
0300
0300
0300
0300
0300
0300
0300
0300
0300
0300
0300
0FC0
ENDCHAR
STARTCHAR 0055
ENCODING 85
SWIDTH 666 0
DWIDTH 18 0
BBX 16 17 1 0
BITMAP
FC3F
300C
300C
300C
300C
300C
300C
300C
300C
300C
300C
300C
300C
3018
1818
0C30
07E0
ENDCHAR
STARTCHAR 0056
ENCODING 86
SWIDTH 666 0
DWIDTH 18 0
BBX 17 17 0 0
BITMAP
FC0F80
300600
180600
180400
180C00
0C0C00
0C0800
0E1800
061800
061000
033000
032000
036000
01E000
01C000
01C000
008000
ENDCHAR
STARTCHAR 0057
ENCODING 87
SWIDTH 851 0
DWIDTH 23 0
BBX 22 17 0 0
BITMAP
FC107C
301010
303810
183830
183830
186C30
186C20
184C20
0CC660
0CC660
0C8660
0D8340
078340
0703C0
0701C0
0701C0
060180
ENDCHAR
STARTCHAR 0058
ENCODING 88
SWIDTH 629 0
DWIDTH 17 0
BBX 16 17 0 0
BITMAP
7C3F
381C
1818
0C30
0E30
0760
03C0
03C0
01C0
03C0
03E0
0670
0C30
0C18
181C
380E
FC3F
ENDCHAR
STARTCHAR 0059
ENCODING 89
SWIDTH 592 0
DWIDTH 16 0
BBX 15 17 0 0
BITMAP
F03E
380C
1818
1C18
0E30
0620
0760
03C0
03C0
0180
0180
0180
0180
0180
0180
0180
07E0
ENDCHAR
STARTCHAR 005A
ENCODING 90
SWIDTH 518 0
DWIDTH 14 0
BBX 12 17 1 0
BITMAP
7FF0
4060
40E0
80C0
01C0
0380
0300
0700
0600
0E00
1C00
1800
3800
3010
7010
E030
FFF0
ENDCHAR
STARTCHAR 005B
ENCODING 91
SWIDTH 296 0
DWIDTH 8 0
BBX 6 25 2 -4
BITMAP
FC
C0
C0
C0
C0
C0
C0
C0
C0
C0
C0
C0
C0
C0
C0
C0
C0
C0
C0
C0
C0
C0
C0
C0
FC
ENDCHAR
STARTCHAR 005C
ENCODING 92
SWIDTH 481 0
DWIDTH 13 0
BBX 11 25 1 -4
BITMAP
8000
C000
4000
6000
6000
3000
3000
3000
1800
1800
0800
0C00
0C00
0600
0600
0200
0300
0300
0180
0180
0180
00C0
00C0
0040
0060
ENDCHAR
STARTCHAR 005D
ENCODING 93
SWIDTH 333 0
DWIDTH 9 0
BBX 6 25 1 -4
BITMAP
FC
0C
0C
0C
0C
0C
0C
0C
0C
0C
0C
0C
0C
0C
0C
0C
0C
0C
0C
0C
0C
0C
0C
0C
FC
ENDCHAR
STARTCHAR 005E
ENCODING 94
SWIDTH 481 0
DWIDTH 13 0
BBX 11 13 1 7
BITMAP
0600
0E00
0E00
0F00
1B00
1300
1180
3180
21C0
60C0
60C0
4060
C040
ENDCHAR
STARTCHAR 005F
ENCODING 95
SWIDTH 481 0
DWIDTH 13 0
BBX 11 1 1 -3
BITMAP
FFE0
ENDCHAR
STARTCHAR 0060
ENCODING 96
SWIDTH 333 0
DWIDTH 9 0
BBX 6 6 0 14
BITMAP
60
E0
30
18
08
04
ENDCHAR
STARTCHAR 0061
ENCODING 97
SWIDTH 444 0
DWIDTH 12 0
BBX 11 12 1 0
BITMAP
1F00
6180
E180
0180
0180
1F80
7980
E180
C180
C180
C780
79E0
ENDCHAR
STARTCHAR 0062
ENCODING 98
SWIDTH 518 0
DWIDTH 14 0
BBX 13 20 0 0
BITMAP
3000
F000
3000
3000
3000
3000
3000
3000
31E0
3670
3830
3038
3018
3018
3018
3018
3010
3030
3860
0F80
ENDCHAR
STARTCHAR 0063
ENCODING 99
SWIDTH 444 0
DWIDTH 12 0
BBX 10 12 1 0
BITMAP
0FC0
30C0
6080
4000
C000
C000
C000
C000
C000
6040
30C0
1F00
ENDCHAR
STARTCHAR 0064
ENCODING 100
SWIDTH 518 0
DWIDTH 14 0
BBX 13 20 1 0
BITMAP
0060
01E0
0060
0060
0060
0060
0060
0060
0FE0
30E0
6060
4060
C060
C060
C060
C060
C060
60E0
3178
1E60
ENDCHAR
STARTCHAR 0065
ENCODING 101
SWIDTH 444 0
DWIDTH 12 0
BBX 10 12 1 0
BITMAP
0F00
3180
60C0
40C0
FFC0
C000
C000
C000
E000
6040
3080
1F00
ENDCHAR
STARTCHAR 0066
ENCODING 102
SWIDTH 296 0
DWIDTH 8 0
BBX 10 20 1 0
BITMAP
03C0
0C80
1800
1000
3000
3000
3000
3000
FF00
3000
3000
3000
3000
3000
3000
3000
3000
3000
3000
FE00
ENDCHAR
STARTCHAR 0067
ENCODING 103
SWIDTH 481 0
DWIDTH 13 0
BBX 13 18 0 -6
BITMAP
0F18
30F0
2060
6060
6060
6060
38C0
1F00
1800
3800
3F80
1FF0
3078
C018
C018
C010
7060
1F80
ENDCHAR
STARTCHAR 0068
ENCODING 104
SWIDTH 555 0
DWIDTH 15 0
BBX 14 20 1 0
BITMAP
3000
F000
3000
3000
3000
3000
3000
3000
31E0
3230
3430
3830
3030
3030
3030
3030
3030
3030
3030
FCFC
ENDCHAR
STARTCHAR 0069
ENCODING 105
SWIDTH 259 0
DWIDTH 7 0
BBX 6 18 1 0
BITMAP
30
70
30
00
00
00
30
F0
30
30
30
30
30
30
30
30
30
FC
ENDCHAR
STARTCHAR 006A
ENCODING 106
SWIDTH 259 0
DWIDTH 7 0
BBX 8 24 -3 -6
BITMAP
03
07
03
00
00
00
03
0F
03
03
03
03
03
03
03
03
03
03
03
03
02
02
04
F8
ENDCHAR
STARTCHAR 006B
ENCODING 107
SWIDTH 518 0
DWIDTH 14 0
BBX 13 20 1 0
BITMAP
3000
F000
3000
3000
3000
3000
3000
3000
31F0
30C0
3180
3300
3400
3C00
3600
3300
3180
30C0
30E0
F878
ENDCHAR
STARTCHAR 006C
ENCODING 108
SWIDTH 259 0
DWIDTH 7 0
BBX 6 20 1 0
BITMAP
30
F0
30
30
30
30
30
30
30
30
30
30
30
30
30
30
30
30
30
FC
ENDCHAR
STARTCHAR 006D
ENCODING 109
SWIDTH 777 0
DWIDTH 21 0
BBX 20 12 1 0
BITMAP
71C380
B66CC0
3870C0
3870C0
3060C0
3060C0
3060C0
3060C0
3060C0
3060C0
3060C0
FDFBF0
ENDCHAR
STARTCHAR 006E
ENCODING 110
SWIDTH 555 0
DWIDTH 15 0
BBX 14 12 1 0
BITMAP
71E0
B230
3430
3830
3030
3030
3030
3030
3030
3030
3030
FCFC
ENDCHAR
STARTCHAR 006F
ENCODING 111
SWIDTH 518 0
DWIDTH 14 0
BBX 12 12 1 0
BITMAP
0F80
30C0
6060
4070
C030
C030
C030
C030
E020
6060
30C0
1F00
ENDCHAR
STARTCHAR 0070
ENCODING 112
SWIDTH 518 0
DWIDTH 14 0
BBX 12 18 1 -6
BITMAP
71C0
B6E0
3860
3030
3030
3030
3030
3030
3020
3060
3840
3780
3000
3000
3000
3000
3000
FC00
ENDCHAR
STARTCHAR 0071
ENCODING 113
SWIDTH 518 0
DWIDTH 14 0
BBX 13 18 1 -6
BITMAP
0F20
30E0
6060
4060
C060
C060
C060
C060
C060
60E0
3160
1E60
0060
0060
0060
0060
0060
01F8
ENDCHAR
STARTCHAR 0072
ENCODING 114
SWIDTH 407 0
DWIDTH 11 0
BBX 10 12 1 0
BITMAP
33C0
F480
3880
3800
3000
3000
3000
3000
3000
3000
3000
FC00
ENDCHAR
STARTCHAR 0073
ENCODING 115
SWIDTH 370 0
DWIDTH 10 0
BBX 8 12 1 0
BITMAP
3E
46
C2
E0
F0
7C
1E
07
83
83
C6
7C
ENDCHAR
STARTCHAR 0074
ENCODING 116
SWIDTH 333 0
DWIDTH 9 0
BBX 9 17 0 0
BITMAP
1000
3000
3000
3000
3000
FF80
3000
3000
3000
3000
3000
3000
3000
3000
3000
3100
1E80
ENDCHAR
STARTCHAR 0075
ENCODING 117
SWIDTH 518 0
DWIDTH 14 0
BBX 14 12 0 0
BITMAP
3030
F0F0
3030
3030
3030
3030
3030
3030
3030
3070
38BC
1F30
ENDCHAR
STARTCHAR 0076
ENCODING 118
SWIDTH 481 0
DWIDTH 13 0
BBX 13 12 0 0
BITMAP
F878
3030
3020
1860
1840
1C40
0CC0
0C80
0780
0700
0700
0200
ENDCHAR
STARTCHAR 0077
ENCODING 119
SWIDTH 703 0
DWIDTH 19 0
BBX 19 12 0 0
BITMAP
F863E0
306080
306080
30F180
18B180
19B100
199900
0D1B00
0F1A00
0E0E00
060E00
040400
ENDCHAR
STARTCHAR 0078
ENCODING 120
SWIDTH 518 0
DWIDTH 14 0
BBX 13 12 0 0
BITMAP
FCF8
3860
1840
0C80
0780
0700
0780
0D80
08C0
1060
3070
F8F8
ENDCHAR
STARTCHAR 0079
ENCODING 121
SWIDTH 481 0
DWIDTH 13 0
BBX 14 18 -1 -6
BITMAP
7C3C
1818
1810
0C30
0C20
0E20
0660
0640
03C0
0380
0380
0180
0100
0300
0200
0600
7C00
F000
ENDCHAR
STARTCHAR 007A
ENCODING 122
SWIDTH 444 0
DWIDTH 12 0
BBX 10 12 1 0
BITMAP
7FC0
4180
8380
0300
0600
0C00
1C00
1800
3000
7040
6040
FFC0
ENDCHAR
STARTCHAR 007B
ENCODING 123
SWIDTH 333 0
DWIDTH 9 0
BBX 6 25 2 -4
BITMAP
04
08
18
30
30
30
30
18
18
18
18
30
E0
38
18
18
18
18
30
30
30
30
10
18
04
ENDCHAR
STARTCHAR 007C
ENCODING 124
SWIDTH 222 0
DWIDTH 6 0
BBX 2 27 2 -5
BITMAP
C0
C0
C0
C0
C0
C0
C0
C0
C0
C0
C0
C0
C0
C0
C0
C0
C0
C0
C0
C0
C0
C0
C0
C0
C0
C0
C0
ENDCHAR
STARTCHAR 007D
ENCODING 125
SWIDTH 333 0
DWIDTH 9 0
BBX 6 25 1 -4
BITMAP
80
60
20
30
30
30
30
60
60
60
60
30
1C
30
60
60
60
60
30
30
30
30
60
40
80
ENDCHAR
STARTCHAR 007E
ENCODING 126
SWIDTH 481 0
DWIDTH 13 0
BBX 12 4 1 6
BITMAP
3830
7E20
8FC0
8380
ENDCHAR
STARTCHAR 00A0
ENCODING 160
SWIDTH 222 0
DWIDTH 6 0
BBX 0 0 0 0
BITMAP
ENDCHAR
STARTCHAR 00A1
ENCODING 161
SWIDTH 259 0
DWIDTH 7 0
BBX 3 19 2 -7
BITMAP
60
E0
E0
C0
40
40
40
40
40
60
60
60
60
E0
E0
E0
E0
E0
C0
ENDCHAR
STARTCHAR 00A2
ENCODING 162
SWIDTH 481 0
DWIDTH 13 0
BBX 11 17 1 -1
BITMAP
0600
0600
0780
1FE0
2640
6600
C600
C600
C600
C600
C600
E620
7640
3F80
0F00
0600
0600
ENDCHAR
STARTCHAR 00A3
ENCODING 163
SWIDTH 481 0
DWIDTH 13 0
BBX 11 16 1 0
BITMAP
07C0
18E0
1040
3040
3000
3000
3000
3000
FF00
3000
3000
3000
3020
2020
6060
FFE0
ENDCHAR
STARTCHAR 00A4
ENCODING 164
SWIDTH 481 0
DWIDTH 13 0
BBX 9 8 2 4
BITMAP
8080
5D00
7700
6300
6300
7700
5D00
8080
ENDCHAR
STARTCHAR 00A5
ENCODING 165
SWIDTH 481 0
DWIDTH 13 0
BBX 14 16 -1 0
BITMAP
F07C
3030
1860
1C60
0CC0
0EC0
0780
0380
0300
3FF0
0300
0300
0300
0300
0300
0FC0
ENDCHAR
STARTCHAR 00A6
ENCODING 166
SWIDTH 222 0
DWIDTH 6 0
BBX 2 27 2 -5
BITMAP
C0
C0
C0
C0
C0
C0
C0
C0
C0
C0
C0
C0
80
00
00
C0
C0
C0
C0
C0
C0
C0
C0
C0
C0
C0
C0
ENDCHAR
STARTCHAR 00A7
ENCODING 167
SWIDTH 481 0
DWIDTH 13 0
BBX 10 19 1 0
BITMAP
1F00
2380
6100
6000
7000
3C00
7F00
C780
C3C0
C1C0
E0C0
78C0
3F80
0F00
0380
4180
4180
6100
3E00
ENDCHAR
STARTCHAR 00A8
ENCODING 168
SWIDTH 407 0
DWIDTH 11 0
BBX 9 3 1 15
BITMAP
C180
C180
C180
ENDCHAR
STARTCHAR 00A9
ENCODING 169
SWIDTH 703 0
DWIDTH 19 0
BBX 17 17 1 0
BITMAP
03E000
0C1800
300600
30F600
631B00
660100
CC0180
CC0180
CC0180
CC0180
CC0180
461300
671300
31E600
300600
0C1800
03E000
ENDCHAR
STARTCHAR 00AA
ENCODING 170
SWIDTH 259 0
DWIDTH 7 0
BBX 7 8 0 8
BITMAP
38
4C
8C
3C
6C
6C
7E
7E
ENDCHAR
STARTCHAR 00AB
ENCODING 171
SWIDTH 481 0
DWIDTH 13 0
BBX 10 12 1 0
BITMAP
0840
18C0
1080
3180
6300
E600
E700
6300
3180
1080
08C0
0840
ENDCHAR
STARTCHAR 00AC
ENCODING 172
SWIDTH 481 0
DWIDTH 13 0
BBX 11 6 1 2
BITMAP
FFE0
0060
0060
0060
0060
0060
ENDCHAR
STARTCHAR 00AD
ENCODING 173
SWIDTH 333 0
DWIDTH 9 0
BBX 7 1 1 6
BITMAP
FE
ENDCHAR
STARTCHAR 00AE
ENCODING 174
SWIDTH 370 0
DWIDTH 10 0
BBX 9 9 0 10
BITMAP
3E00
6300
FF80
9280
9C80
9880
D580
6B00
3E00
ENDCHAR
STARTCHAR 00AF
ENCODING 175
SWIDTH 481 0
DWIDTH 13 0
BBX 9 1 2 16
BITMAP
FF80
ENDCHAR
STARTCHAR 00B0
ENCODING 176
SWIDTH 370 0
DWIDTH 10 0
BBX 6 6 2 10
BITMAP
38
4C
CC
CC
C8
70
ENDCHAR
STARTCHAR 00B1
ENCODING 177
SWIDTH 407 0
DWIDTH 11 0
BBX 10 12 1 2
BITMAP
0C00
0C00
0C00
0C00
FFC0
0C00
0C00
0C00
0C00
0000
0000
FF80
ENDCHAR
STARTCHAR 00B2
ENCODING 178
SWIDTH 333 0
DWIDTH 9 0
BBX 7 10 1 8
BITMAP
3C
46
C6
06
0C
18
10
20
42
FE
ENDCHAR
STARTCHAR 00B3
ENCODING 179
SWIDTH 333 0
DWIDTH 9 0
BBX 8 10 -1 8
BITMAP
1E
23
43
02
0E
03
03
03
C6
3C
ENDCHAR
STARTCHAR 00B4
ENCODING 180
SWIDTH 333 0
DWIDTH 9 0
BBX 5 6 3 14
BITMAP
18
38
30
60
C0
80
ENDCHAR
STARTCHAR 00B5
ENCODING 181
SWIDTH 518 0
DWIDTH 14 0
BBX 14 18 0 -6
BITMAP
3030
F070
3030
3030
3030
3030
3030
3030
3030
38F0
3FBC
3738
3000
3000
3000
3000
3800
3000
ENDCHAR
STARTCHAR 00B6
ENCODING 182
SWIDTH 555 0
DWIDTH 15 0
BBX 13 20 1 -3
BITMAP
1FF8
31E0
61E0
C1E0
C1E0
C1E0
C1E0
61E0
71E0
1FE0
01E0
01E0
01E0
01E0
01E0
01E0
01E0
01E0
01E0
07F8
ENDCHAR
STARTCHAR 00B7
ENCODING 183
SWIDTH 148 0
DWIDTH 4 0
BBX 2 3 1 8
BITMAP
C0
C0
C0
ENDCHAR
STARTCHAR 00B8
ENCODING 184
SWIDTH 222 0
DWIDTH 6 0
BBX 5 6 0 -6
BITMAP
30
20
38
58
10
E0
ENDCHAR
STARTCHAR 00B9
ENCODING 185
SWIDTH 333 0
DWIDTH 9 0
BBX 7 10 1 8
BITMAP
18
F8
18
18
18
18
18
18
18
7E
ENDCHAR
STARTCHAR 00BA
ENCODING 186
SWIDTH 296 0
DWIDTH 8 0
BBX 6 8 1 8
BITMAP
38
4C
CC
CC
CC
C8
70
FC
ENDCHAR
STARTCHAR 00BB
ENCODING 187
SWIDTH 481 0
DWIDTH 13 0
BBX 10 12 2 0
BITMAP
8400
C600
6200
2300
3180
18C0
19C0
3180
2300
6200
C600
8400
ENDCHAR
STARTCHAR 00BC
ENCODING 188
SWIDTH 592 0
DWIDTH 16 0
BBX 14 16 1 0
BITMAP
3018
F038
3030
3060
30C0
30C0
3180
FF00
0318
0638
0C58
0C58
1898
11FC
3018
603C
ENDCHAR
STARTCHAR 00BD
ENCODING 189
SWIDTH 555 0
DWIDTH 15 0
BBX 13 16 1 0
BITMAP
3008
F010
3030
3020
3060
30C0
3080
FD80
0370
0298
0718
0410
0830
1860
10C8
31F8
ENDCHAR
STARTCHAR 00BE
ENCODING 190
SWIDTH 592 0
DWIDTH 16 0
BBX 14 16 1 0
BITMAP
3818
CC10
0C30
3820
0C40
0CC0
8C80
7180
0318
0238
0658
0C58
0898
19FC
1018
303C
ENDCHAR
STARTCHAR 00BF
ENCODING 191
SWIDTH 444 0
DWIDTH 12 0
BBX 10 19 1 -7
BITMAP
0600
0E00
0E00
0C00
0200
0600
0600
0600
0C00
1C00
3800
7000
6000
C000
C0C0
C0C0
C0C0
6180
3E00
ENDCHAR
STARTCHAR 00C0
ENCODING 192
SWIDTH 592 0
DWIDTH 16 0
BBX 16 23 0 0
BITMAP
0C00
1E00
0700
0180
0040
0000
0080
0180
0380
03C0
02C0
06C0
0660
0460
0C70
0C30
0FF0
1818
1818
1018
300C
300C
F83F
ENDCHAR
STARTCHAR 00C1
ENCODING 193
SWIDTH 592 0
DWIDTH 16 0
BBX 16 23 0 0
BITMAP
0030
0070
01C0
0380
0200
0000
0080
0180
0380
03C0
02C0
06C0
0660
0460
0C70
0C30
0FF0
1818
1818
1018
300C
300C
F83F
ENDCHAR
STARTCHAR 00C2
ENCODING 194
SWIDTH 592 0
DWIDTH 16 0
BBX 16 22 0 0
BITMAP
0380
06C0
0C20
0810
0000
0080
0180
0380
03C0
02C0
06C0
0660
0460
0C70
0C30
0FF0
1818
1818
1018
300C
300C
F83F
ENDCHAR
STARTCHAR 00C3
ENCODING 195
SWIDTH 592 0
DWIDTH 16 0
BBX 16 22 0 0
BITMAP
0010
07B0
09E0
10C0
0000
0080
0180
0380
03C0
02C0
06C0
0660
0460
0C70
0C30
0FF0
1818
1818
1018
300C
300C
F83F
ENDCHAR
STARTCHAR 00C4
ENCODING 196
SWIDTH 592 0
DWIDTH 16 0
BBX 16 21 0 0
BITMAP
0C30
0C30
0820
0000
0080
0180
0380
03C0
02C0
06C0
0660
0460
0C70
0C30
0FF0
1818
1818
1018
300C
300C
F83F
ENDCHAR
STARTCHAR 00C5
ENCODING 197
SWIDTH 592 0
DWIDTH 16 0
BBX 16 23 0 0
BITMAP
01C0
0360
0360
03C0
0180
0000
0080
0180
0380
03C0
02C0
06C0
0660
0460
0C70
0C30
0FF0
1818
1818
1018
300C
300C
F83F
ENDCHAR
STARTCHAR 00C6
ENCODING 198
SWIDTH 777 0
DWIDTH 21 0
BBX 20 17 0 0
BITMAP
07FFE0
01B020
01B020
013000
033000
033000
063000
07FFC0
043080
0C3000
0C3000
183000
183000
103000
303010
303030
F8FFF0
ENDCHAR
STARTCHAR 00C7
ENCODING 199
SWIDTH 518 0
DWIDTH 14 0
BBX 12 23 1 -6
BITMAP
07E0
1870
3000
2000
6000
4000
C000
C000
C000
C000
C000
C000
E000
6020
7020
3DC0
1F80
0400
0400
0700
0300
0200
1C00
ENDCHAR
STARTCHAR 00C8
ENCODING 200
SWIDTH 481 0
DWIDTH 13 0
BBX 12 23 1 0
BITMAP
3000
7800
1C00
0600
0100
0000
FFE0
3020
3020
3000
3000
3000
3000
3FC0
3080
3000
3000
3000
3000
3000
3010
3030
FFE0
ENDCHAR
STARTCHAR 00C9
ENCODING 201
SWIDTH 481 0
DWIDTH 13 0
BBX 12 23 1 0
BITMAP
00C0
03C0
0700
0C00
1000
0000
FFE0
3020
3020
3000
3000
3000
3000
3FC0
3080
3000
3000
3000
3000
3000
3010
3030
FFE0
ENDCHAR
STARTCHAR 00CA
ENCODING 202
SWIDTH 481 0
DWIDTH 13 0
BBX 12 22 1 0
BITMAP
0E00
1B00
3080
4040
0000
FFE0
3020
3020
3000
3000
3000
3000
3FC0
3080
3000
3000
3000
3000
3000
3010
3030
FFE0
ENDCHAR
STARTCHAR 00CB
ENCODING 203
SWIDTH 481 0
DWIDTH 13 0
BBX 12 21 1 0
BITMAP
2080
6180
2080
0000
FFE0
3020
3020
3000
3000
3000
3000
3FC0
3080
3000
3000
3000
3000
3000
3010
3030
FFE0
ENDCHAR
STARTCHAR 00CC
ENCODING 204
SWIDTH 296 0
DWIDTH 8 0
BBX 8 23 -1 0
BITMAP
60
F0
38
0C
02
00
3F
0C
0C
0C
0C
0C
0C
0C
0C
0C
0C
0C
0C
0C
0C
0C
3F
ENDCHAR
STARTCHAR 00CD
ENCODING 205
SWIDTH 296 0
DWIDTH 8 0
BBX 7 23 1 0
BITMAP
06
0E
38
70
40
00
FC
30
30
30
30
30
30
30
30
30
30
30
30
30
30
30
FC
ENDCHAR
STARTCHAR 00CE
ENCODING 206
SWIDTH 296 0
DWIDTH 8 0
BBX 8 22 0 0
BITMAP
38
6C
C2
81
00
7E
18
18
18
18
18
18
18
18
18
18
18
18
18
18
18
7E
ENDCHAR
STARTCHAR 00CF
ENCODING 207
SWIDTH 296 0
DWIDTH 8 0
BBX 8 21 0 0
BITMAP
C3
C3
82
00
7E
18
18
18
18
18
18
18
18
18
18
18
18
18
18
18
7E
ENDCHAR
STARTCHAR 00D0
ENCODING 208
SWIDTH 592 0
DWIDTH 16 0
BBX 14 17 1 0
BITMAP
7F80
B0E0
3030
3018
3018
300C
300C
300C
FF0C
300C
300C
300C
3018
3018
3030
3060
FF80
ENDCHAR
STARTCHAR 00D1
ENCODING 209
SWIDTH 666 0
DWIDTH 18 0
BBX 16 22 1 0
BITMAP
0010
07B0
09E0
10C0
0000
F03F
300C
380C
3C0C
340C
360C
330C
330C
318C
30CC
30CC
306C
303C
303C
301C
301C
FC0C
ENDCHAR
STARTCHAR 00D2
ENCODING 210
SWIDTH 592 0
DWIDTH 16 0
BBX 14 23 1 0
BITMAP
1800
1C00
0700
0380
0080
0000
07C0
1860
3030
6018
6018
400C
C00C
C00C
C00C
C00C
C00C
C008
6018
6010
3030
1860
0F80
ENDCHAR
STARTCHAR 00D3
ENCODING 211
SWIDTH 592 0
DWIDTH 16 0
BBX 14 23 1 0
BITMAP
0060
00F0
01C0
0300
0400
0000
07C0
1860
3030
6018
6018
400C
C00C
C00C
C00C
C00C
C00C
C008
6018
6010
3030
1860
0F80
ENDCHAR
STARTCHAR 00D4
ENCODING 212
SWIDTH 592 0
DWIDTH 16 0
BBX 14 22 1 0
BITMAP
0380
04C0
0860
1020
0000
07C0
1860
3030
6018
6018
400C
C00C
C00C
C00C
C00C
C00C
C008
6018
6010
3030
1860
0F80
ENDCHAR
STARTCHAR 00D5
ENCODING 213
SWIDTH 592 0
DWIDTH 16 0
BBX 14 22 1 0
BITMAP
0020
0F30
13E0
2080
0000
07C0
1860
3030
6018
6018
400C
C00C
C00C
C00C
C00C
C00C
C008
6018
6010
3030
1860
0F80
ENDCHAR
STARTCHAR 00D6
ENCODING 214
SWIDTH 592 0
DWIDTH 16 0
BBX 14 21 1 0
BITMAP
1860
1860
1040
0000
07C0
1860
3030
6018
6018
400C
C00C
C00C
C00C
C00C
C00C
C008
6018
6010
3030
1860
0F80
ENDCHAR
STARTCHAR 00D7
ENCODING 215
SWIDTH 407 0
DWIDTH 11 0
BBX 9 9 1 3
BITMAP
C180
6300
3600
1C00
1C00
1C00
3600
6300
C180
ENDCHAR
STARTCHAR 00D8
ENCODING 216
SWIDTH 592 0
DWIDTH 16 0
BBX 14 18 1 -1
BITMAP
07CC
1878
3030
2078
6078
40DC
C1CC
C18C
C30C
C70C
C60C
CC08
6818
7810
3030
7860
CF80
8000
ENDCHAR
STARTCHAR 00D9
ENCODING 217
SWIDTH 666 0
DWIDTH 18 0
BBX 16 23 1 0
BITMAP
0C00
1E00
0700
01C0
0040
0000
FC3F
300C
300C
300C
300C
300C
300C
300C
300C
300C
300C
300C
300C
3018
1818
0C30
07E0
ENDCHAR
STARTCHAR 00DA
ENCODING 218
SWIDTH 666 0
DWIDTH 18 0
BBX 16 23 1 0
BITMAP
0030
0070
01C0
0380
0200
0000
FC3F
300C
300C
300C
300C
300C
300C
300C
300C
300C
300C
300C
300C
3018
1818
0C30
07E0
ENDCHAR
STARTCHAR 00DB
ENCODING 219
SWIDTH 666 0
DWIDTH 18 0
BBX 16 22 1 0
BITMAP
0180
0240
0420
0810
0000
FC3F
300C
300C
300C
300C
300C
300C
300C
300C
300C
300C
300C
300C
3018
1818
0C30
07E0
ENDCHAR
STARTCHAR 00DC
ENCODING 220
SWIDTH 666 0
DWIDTH 18 0
BBX 16 21 1 0
BITMAP
0C30
0C30
0820
0000
FC3F
300C
300C
300C
300C
300C
300C
300C
300C
300C
300C
300C
300C
3018
1818
0C30
07E0
ENDCHAR
STARTCHAR 00DD
ENCODING 221
SWIDTH 592 0
DWIDTH 16 0
BBX 15 23 0 0
BITMAP
0030
0070
00C0
0380
0200
0000
F03E
380C
1818
1C18
0E30
0620
0760
03C0
03C0
0180
0180
0180
0180
0180
0180
0180
07E0
ENDCHAR
STARTCHAR 00DE
ENCODING 222
SWIDTH 518 0
DWIDTH 14 0
BBX 12 17 1 0
BITMAP
FC00
3000
3000
3F80
30E0
3060
3030
3030
3030
3030
3030
3060
38C0
3780
3000
3000
FC00
ENDCHAR
STARTCHAR 00DF
ENCODING 223
SWIDTH 555 0
DWIDTH 15 0
BBX 14 20 1 0
BITMAP
03C0
0CE0
1870
1030
3030
3030
3060
31C0
3300
3600
3600
3780
33E0
30F8
303C
301C
320C
320C
3318
F3F0
ENDCHAR
STARTCHAR 00E0
ENCODING 224
SWIDTH 444 0
DWIDTH 12 0
BBX 11 20 1 0
BITMAP
3000
7800
1800
0C00
0400
0200
0000
0000
1F00
6180
E180
0180
0180
1F80
7980
E180
C180
C180
C780
79E0
ENDCHAR
STARTCHAR 00E1
ENCODING 225
SWIDTH 444 0
DWIDTH 12 0
BBX 11 20 1 0
BITMAP
0180
0380
0300
0600
0400
0800
0000
0000
1F00
6180
E180
0180
0180
1F80
7980
E180
C180
C180
C780
79E0
ENDCHAR
STARTCHAR 00E2
ENCODING 226
SWIDTH 444 0
DWIDTH 12 0
BBX 11 19 1 0
BITMAP
0C00
1E00
1300
2180
40C0
0000
0000
1F00
6180
E180
0180
0180
1F80
7980
E180
C180
C180
C780
79E0
ENDCHAR
STARTCHAR 00E3
ENCODING 227
SWIDTH 444 0
DWIDTH 12 0
BBX 11 18 1 0
BITMAP
1840
3C80
4700
0000
0000
0000
1F00
6180
E180
0180
0180
1F80
7980
E180
C180
C180
C780
79E0
ENDCHAR
STARTCHAR 00E4
ENCODING 228
SWIDTH 444 0
DWIDTH 12 0
BBX 11 18 1 0
BITMAP
6180
6180
6180
0000
0000
0000
1F00
6180
E180
0180
0180
1F80
7980
E180
C180
C180
C780
79E0
ENDCHAR
STARTCHAR 00E5
ENCODING 229
SWIDTH 444 0
DWIDTH 12 0
BBX 11 19 1 0
BITMAP
0E00
0B00
1B00
1B00
0E00
0000
0000
1F00
6180
E180
0180
0180
1F80
7980
E180
C180
C180
C780
79E0
ENDCHAR
STARTCHAR 00E6
ENCODING 230
SWIDTH 703 0
DWIDTH 19 0
BBX 17 12 1 0
BITMAP
1F3E00
61C300
61C180
C18180
0FFF80
398000
618000
C18000
C18000
C1C100
C6E300
787C00
ENDCHAR
STARTCHAR 00E7
ENCODING 231
SWIDTH 444 0
DWIDTH 12 0
BBX 10 18 1 -6
BITMAP
0FC0
30C0
6080
4000
C000
C000
C000
C000
E000
6040
78C0
3F00
0C00
0400
0700
0300
0200
1C00
ENDCHAR
STARTCHAR 00E8
ENCODING 232
SWIDTH 444 0
DWIDTH 12 0
BBX 10 20 1 0
BITMAP
3000
3800
1800
0C00
0600
0200
0000
0000
0F00
3180
60C0
40C0
FFC0
C000
C000
C000
E000
6040
3080
1F00
ENDCHAR
STARTCHAR 00E9
ENCODING 233
SWIDTH 444 0
DWIDTH 12 0
BBX 10 20 1 0
BITMAP
01C0
0180
0300
0200
0400
0C00
0000
0000
0F00
3180
60C0
40C0
FFC0
C000
C000
C000
E000
6040
3080
1F00
ENDCHAR
STARTCHAR 00EA
ENCODING 234
SWIDTH 444 0
DWIDTH 12 0
BBX 10 19 1 0
BITMAP
0600
0F00
1900
3080
2040
0000
0000
0F00
3180
60C0
40C0
FFC0
C000
C000
C000
E000
6040
3080
1F00
ENDCHAR
STARTCHAR 00EB
ENCODING 235
SWIDTH 444 0
DWIDTH 12 0
BBX 10 18 1 0
BITMAP
2080
30C0
2080
0000
0000
0000
0F00
3180
60C0
40C0
FFC0
C000
C000
C000
E000
6040
3080
1F00
ENDCHAR
STARTCHAR 00EC
ENCODING 236
SWIDTH 259 0
DWIDTH 7 0
BBX 7 20 0 0
BITMAP
C0
E0
70
30
18
08
00
00
18
78
18
18
18
18
18
18
18
18
18
7E
ENDCHAR
STARTCHAR 00ED
ENCODING 237
SWIDTH 259 0
DWIDTH 7 0
BBX 7 20 1 0
BITMAP
0E
0C
18
10
30
60
00
00
30
F0
30
30
30
30
30
30
30
30
30
FC
ENDCHAR
STARTCHAR 00EE
ENCODING 238
SWIDTH 259 0
DWIDTH 7 0
BBX 8 19 0 0
BITMAP
18
3C
64
C2
81
00
00
18
78
18
18
18
18
18
18
18
18
18
7E
ENDCHAR
STARTCHAR 00EF
ENCODING 239
SWIDTH 259 0
DWIDTH 7 0
BBX 8 18 0 0
BITMAP
82
C3
82
00
00
00
18
78
18
18
18
18
18
18
18
18
18
7E
ENDCHAR
STARTCHAR 00F0
ENCODING 240
SWIDTH 481 0
DWIDTH 13 0
BBX 11 19 1 0
BITMAP
1800
3CE0
0780
1F00
3180
00C0
00C0
0FC0
31E0
60E0
4060
C060
C060
C060
C040
E0C0
60C0
3180
1E00
ENDCHAR
STARTCHAR 00F1
ENCODING 241
SWIDTH 555 0
DWIDTH 15 0
BBX 14 18 1 0
BITMAP
0C20
1F40
2380
0000
0000
0000
71E0
B230
3430
3830
3030
3030
3030
3030
3030
3030
3030
FCFC
ENDCHAR
STARTCHAR 00F2
ENCODING 242
SWIDTH 518 0
DWIDTH 14 0
BBX 12 20 1 0
BITMAP
3800
1800
0C00
0400
0600
0300
0000
0000
0F80
30C0
6060
4070
C030
C030
C030
C030
E020
6060
30C0
1F00
ENDCHAR
STARTCHAR 00F3
ENCODING 243
SWIDTH 518 0
DWIDTH 14 0
BBX 12 20 1 0
BITMAP
00C0
0180
0380
0300
0600
0400
0000
0000
0F80
30C0
6060
4070
C030
C030
C030
C030
E020
6060
30C0
1F00
ENDCHAR
STARTCHAR 00F4
ENCODING 244
SWIDTH 518 0
DWIDTH 14 0
BBX 12 19 1 0
BITMAP
0600
0F00
1980
1080
2040
0000
0000
0F80
30C0
6060
4070
C030
C030
C030
C030
E020
6060
30C0
1F00
ENDCHAR
STARTCHAR 00F5
ENCODING 245
SWIDTH 518 0
DWIDTH 14 0
BBX 12 18 1 0
BITMAP
1C60
3E40
2380
0000
0000
0000
0F80
30C0
6060
4070
C030
C030
C030
C030
E020
6060
30C0
1F00
ENDCHAR
STARTCHAR 00F6
ENCODING 246
SWIDTH 518 0
DWIDTH 14 0
BBX 12 18 1 0
BITMAP
30C0
30C0
30C0
0000
0000
0000
0F80
30C0
6060
4070
C030
C030
C030
C030
E020
6060
30C0
1F00
ENDCHAR
STARTCHAR 00F7
ENCODING 247
SWIDTH 407 0
DWIDTH 11 0
BBX 9 9 1 3
BITMAP
0C00
0C00
0000
0000
FF80
0000
0000
0C00
0C00
ENDCHAR
STARTCHAR 00F8
ENCODING 248
SWIDTH 518 0
DWIDTH 14 0
BBX 12 14 1 -1
BITMAP
0010
0FB0
31E0
60E0
41F0
C330
C630
C630
CC30
F820
7060
78C0
DF00
8000
ENDCHAR
STARTCHAR 00F9
ENCODING 249
SWIDTH 518 0
DWIDTH 14 0
BBX 14 20 0 0
BITMAP
1C00
0C00
0600
0300
0100
0180
0000
0000
3030
F0F0
3030
3030
3030
3030
3030
3030
3030
3070
38BC
1F30
ENDCHAR
STARTCHAR 00FA
ENCODING 250
SWIDTH 518 0
DWIDTH 14 0
BBX 14 20 0 0
BITMAP
0060
00E0
00C0
0180
0300
0200
0000
0000
3030
F0F0
3030
3030
3030
3030
3030
3030
3030
3070
38BC
1F30
ENDCHAR
STARTCHAR 00FB
ENCODING 251
SWIDTH 518 0
DWIDTH 14 0
BBX 14 19 0 0
BITMAP
0300
0780
04C0
0860
1020
0000
0000
3030
F0F0
3030
3030
3030
3030
3030
3030
3030
3070
38BC
1F30
ENDCHAR
STARTCHAR 00FC
ENCODING 252
SWIDTH 518 0
DWIDTH 14 0
BBX 14 18 0 0
BITMAP
1860
1860
1860
0000
0000
0000
3030
F0F0
3030
3030
3030
3030
3030
3030
3030
3070
38BC
1F30
ENDCHAR
STARTCHAR 00FD
ENCODING 253
SWIDTH 481 0
DWIDTH 13 0
BBX 14 26 -1 -6
BITMAP
0070
0060
00E0
00C0
0180
0100
0000
0000
7C3C
1818
1810
0C30
0C20
0E20
0660
0640
03C0
0380
0380
0180
0100
0300
0200
0600
7C00
F000
ENDCHAR
STARTCHAR 00FE
ENCODING 254
SWIDTH 518 0
DWIDTH 14 0
BBX 12 26 1 -6
BITMAP
3000
F000
3000
3000
3000
3000
3000
3000
33C0
34E0
3860
3030
3030
3030
3030
3030
3020
3060
3840
3780
3000
3000
3000
3000
3000
FC00
ENDCHAR
STARTCHAR 00FF
ENCODING 255
SWIDTH 481 0
DWIDTH 13 0
BBX 14 24 -1 -6
BITMAP
0C30
0C30
0820
0000
0000
0000
7C3C
1818
1810
0C30
0C20
0E20
0660
0640
03C0
0380
0380
0180
0100
0300
0200
0600
7C00
F000
ENDCHAR
STARTCHAR 0100
ENCODING 256
SWIDTH 592 0
DWIDTH 16 0
BBX 16 21 0 0
BITMAP
0FF0
0000
0000
0000
0080
0180
0380
03C0
02C0
06C0
0660
0460
0C70
0C30
0FF0
1818
1818
1018
300C
300C
F83F
ENDCHAR
STARTCHAR 0101
ENCODING 257
SWIDTH 444 0
DWIDTH 12 0
BBX 11 17 1 0
BITMAP
7FC0
0000
0000
0000
0000
1F00
6180
E180
0180
0180
1F80
7980
E180
C180
C180
C780
79E0
ENDCHAR
STARTCHAR 0102
ENCODING 258
SWIDTH 592 0
DWIDTH 16 0
BBX 16 23 0 0
BITMAP
0810
0810
0C20
0660
0180
0000
0080
0180
0380
03C0
02C0
06C0
0660
0460
0C70
0C30
0FF0
1818
1818
1018
300C
300C
F83F
ENDCHAR
STARTCHAR 0103
ENCODING 259
SWIDTH 444 0
DWIDTH 12 0
BBX 11 19 1 0
BITMAP
4080
40C0
2080
3100
0E00
0000
0000
1F00
6180
E180
0180
0180
1F80
7980
E180
C180
C180
C780
79E0
ENDCHAR
STARTCHAR 0106
ENCODING 262
SWIDTH 518 0
DWIDTH 14 0
BBX 12 23 1 0
BITMAP
0060
00F0
01C0
0300
0400
0000
07E0
1870
3000
2000
6000
4000
C000
C000
C000
C000
C000
C000
6000
6000
3010
1820
0FC0
ENDCHAR
STARTCHAR 0107
ENCODING 263
SWIDTH 444 0
DWIDTH 12 0
BBX 10 20 1 0
BITMAP
0180
0380
0300
0600
0400
0800
0000
0000
0FC0
30C0
6080
4000
C000
C000
C000
C000
C000
6040
30C0
1F00
ENDCHAR
STARTCHAR 0108
ENCODING 264
SWIDTH 518 0
DWIDTH 14 0
BBX 12 22 1 0
BITMAP
0380
04C0
0860
1020
0000
07E0
1870
3000
2000
6000
4000
C000
C000
C000
C000
C000
C000
6000
6000
3010
1820
0FC0
ENDCHAR
STARTCHAR 0109
ENCODING 265
SWIDTH 444 0
DWIDTH 12 0
BBX 10 19 1 0
BITMAP
0E00
0E00
1100
2080
4040
0000
0000
0FC0
30C0
6080
4000
C000
C000
C000
C000
C000
6040
30C0
1F00
ENDCHAR
STARTCHAR 010A
ENCODING 266
SWIDTH 518 0
DWIDTH 14 0
BBX 12 21 1 0
BITMAP
0300
0300
0200
0000
07E0
1870
3000
2000
6000
4000
C000
C000
C000
C000
C000
C000
6000
6000
3010
1820
0FC0
ENDCHAR
STARTCHAR 010B
ENCODING 267
SWIDTH 444 0
DWIDTH 12 0
BBX 10 18 1 0
BITMAP
0400
0C00
0C00
0000
0000
0000
0FC0
30C0
6080
4000
C000
C000
C000
C000
C000
6040
30C0
1F00
ENDCHAR
STARTCHAR 010C
ENCODING 268
SWIDTH 518 0
DWIDTH 14 0
BBX 12 23 1 0
BITMAP
1020
0CC0
07C0
0780
0300
0000
07E0
1870
3000
2000
6000
4000
C000
C000
C000
C000
C000
C000
6000
6000
3010
1820
0FC0
ENDCHAR
STARTCHAR 010D
ENCODING 269
SWIDTH 444 0
DWIDTH 12 0
BBX 10 19 1 0
BITMAP
4040
3180
1B00
0E00
0E00
0000
0000
0FC0
30C0
6080
4000
C000
C000
C000
C000
C000
6040
30C0
1F00
ENDCHAR
STARTCHAR 010E
ENCODING 270
SWIDTH 592 0
DWIDTH 16 0
BBX 14 23 1 0
BITMAP
3040
18C0
0F80
0700
0600
0000
7F80
B0E0
3030
3018
3018
300C
300C
300C
300C
300C
300C
300C
3018
3018
3030
3060
FF80
ENDCHAR
STARTCHAR 0110
ENCODING 272
SWIDTH 592 0
DWIDTH 16 0
BBX 14 17 1 0
BITMAP
7F80
B0E0
3030
3018
3018
300C
300C
300C
FF0C
300C
300C
300C
3018
3018
3030
3060
FF80
ENDCHAR
STARTCHAR 0111
ENCODING 273
SWIDTH 518 0
DWIDTH 14 0
BBX 13 20 1 0
BITMAP
00E0
0160
0060
0060
07F8
0670
0060
0060
0FE0
30E0
6060
4060
C060
C060
C060
C060
C060
60E0
3178
1E70
ENDCHAR
STARTCHAR 0112
ENCODING 274
SWIDTH 481 0
DWIDTH 13 0
BBX 12 21 1 0
BITMAP
7FC0
0000
0000
0000
FFE0
3020
3020
3000
3000
3000
3000
3FC0
3080
3000
3000
3000
3000
3000
3010
3030
FFE0
ENDCHAR
STARTCHAR 0113
ENCODING 275
SWIDTH 444 0
DWIDTH 12 0
BBX 10 17 1 0
BITMAP
3FC0
4000
0000
0000
0000
0F00
3180
60C0
40C0
FFC0
C000
C000
C000
E000
6040
3080
1F00
ENDCHAR
STARTCHAR 0114
ENCODING 276
SWIDTH 481 0
DWIDTH 13 0
BBX 12 23 1 0
BITMAP
4040
2040
2080
1900
0E00
0000
FFE0
3020
3020
3000
3000
3000
3000
3FC0
3080
3000
3000
3000
3000
3000
3010
3030
FFE0
ENDCHAR
STARTCHAR 0115
ENCODING 277
SWIDTH 444 0
DWIDTH 12 0
BBX 10 19 1 0
BITMAP
4040
2040
2080
1180
0F00
0000
0000
0F00
3180
60C0
40C0
FFC0
C000
C000
C000
E000
6040
3080
1F00
ENDCHAR
STARTCHAR 0116
ENCODING 278
SWIDTH 481 0
DWIDTH 13 0
BBX 12 21 1 0
BITMAP
0400
0C00
0400
0000
FFE0
3020
3020
3000
3000
3000
3000
3FC0
3080
3000
3000
3000
3000
3000
3010
3030
FFE0
ENDCHAR
STARTCHAR 0117
ENCODING 279
SWIDTH 444 0
DWIDTH 12 0
BBX 10 18 1 0
BITMAP
0400
0600
0400
0000
0000
0000
0F00
3180
60C0
40C0
FFC0
C000
C000
C000
E000
6040
3080
1F00
ENDCHAR
STARTCHAR 011A
ENCODING 282
SWIDTH 481 0
DWIDTH 13 0
BBX 12 23 1 0
BITMAP
60C0
3180
1F00
0E00
0600
0000
FFE0
3020
3020
3000
3000
3000
3000
3FC0
3080
3000
3000
3000
3000
3000
3010
3030
FFE0
ENDCHAR
STARTCHAR 011B
ENCODING 283
SWIDTH 444 0
DWIDTH 12 0
BBX 10 19 1 0
BITMAP
2040
3080
1900
0F00
0600
0000
0000
0F00
3180
60C0
40C0
FFC0
C000
C000
C000
E000
6040
3080
1F00
ENDCHAR
STARTCHAR 011C
ENCODING 284
SWIDTH 592 0
DWIDTH 16 0
BBX 14 22 1 0
BITMAP
0380
06C0
0C60
1030
0000
03F0
0C38
1000
2000
6000
4000
C000
C000
C000
C0FC
C018
C018
6018
6018
3018
1818
07E0
ENDCHAR
STARTCHAR 011D
ENCODING 285
SWIDTH 481 0
DWIDTH 13 0
BBX 13 25 0 -6
BITMAP
0700
0700
0C80
1840
3020
0000
0000
0F18
30F0
2060
6060
6060
6060
38C0
1F00
1800
3800
3F80
1FF0
3078
C018
C018
C010
7060
1F80
ENDCHAR
STARTCHAR 011E
ENCODING 286
SWIDTH 592 0
DWIDTH 16 0
BBX 14 23 1 0
BITMAP
1010
0820
0820
0440
0380
0000
03F0
0C38
1000
2000
6000
4000
C000
C000
C000
C0FC
C018
C018
6018
6018
3018
1818
07E0
ENDCHAR
STARTCHAR 011F
ENCODING 287
SWIDTH 481 0
DWIDTH 13 0
BBX 13 25 0 -6
BITMAP
2020
1020
1040
0880
0700
0000
0000
0F18
30F0
2060
6060
6060
6060
38C0
1F00
1800
3800
3F80
1FF0
3078
C018
C018
C010
7060
1F80
ENDCHAR
STARTCHAR 0120
ENCODING 288
SWIDTH 592 0
DWIDTH 16 0
BBX 14 21 1 0
BITMAP
0300
0300
0300
0000
03F0
0C38
1000
2000
6000
4000
C000
C000
C000
C0FC
C018
C018
6018
6018
3018
1818
07E0
ENDCHAR
STARTCHAR 0121
ENCODING 289
SWIDTH 481 0
DWIDTH 13 0
BBX 13 24 0 -6
BITMAP
0200
0600
0600
0000
0000
0000
0F18
30F0
2060
6060
6060
6060
38C0
1F00
1800
3800
3F80
1FF0
3078
C018
C018
C010
7060
1F80
ENDCHAR
STARTCHAR 0124
ENCODING 292
SWIDTH 666 0
DWIDTH 18 0
BBX 16 22 1 0
BITMAP
0380
06C0
0C20
0810
0000
FC3F
300C
300C
300C
300C
300C
300C
300C
3FFC
300C
300C
300C
300C
300C
300C
300C
FC3F
ENDCHAR
STARTCHAR 0125
ENCODING 293
SWIDTH 555 0
DWIDTH 15 0
BBX 14 26 1 0
BITMAP
0200
0700
0C80
1040
2020
0000
3000
F000
3000
3000
3000
3000
3000
3000
31E0
3230
3430
3830
3030
3030
3030
3030
3030
3030
3030
FCFC
ENDCHAR
STARTCHAR 0128
ENCODING 296
SWIDTH 296 0
DWIDTH 8 0
BBX 9 22 -1 0
BITMAP
0080
3D80
4F00
8600
0000
3F00
0C00
0C00
0C00
0C00
0C00
0C00
0C00
0C00
0C00
0C00
0C00
0C00
0C00
0C00
0C00
3F00
ENDCHAR
STARTCHAR 0129
ENCODING 297
SWIDTH 259 0
DWIDTH 7 0
BBX 9 18 -1 0
BITMAP
3880
7C80
CF00
0000
0000
0000
0C00
3C00
0C00
0C00
0C00
0C00
0C00
0C00
0C00
0C00
0C00
3F00
ENDCHAR
STARTCHAR 012A
ENCODING 298
SWIDTH 296 0
DWIDTH 8 0
BBX 6 21 1 0
BITMAP
FC
00
00
00
FC
30
30
30
30
30
30
30
30
30
30
30
30
30
30
30
FC
ENDCHAR
STARTCHAR 012B
ENCODING 299
SWIDTH 259 0
DWIDTH 7 0
BBX 7 17 0 0
BITMAP
7E
80
00
00
00
18
78
18
18
18
18
18
18
18
18
18
7E
ENDCHAR
STARTCHAR 012C
ENCODING 300
SWIDTH 296 0
DWIDTH 8 0
BBX 8 23 0 0
BITMAP
81
81
C2
66
18
00
7E
18
18
18
18
18
18
18
18
18
18
18
18
18
18
18
7E
ENDCHAR
STARTCHAR 012D
ENCODING 301
SWIDTH 259 0
DWIDTH 7 0
BBX 9 19 -1 0
BITMAP
8080
4080
4100
2300
1E00
0000
0000
0C00
3C00
0C00
0C00
0C00
0C00
0C00
0C00
0C00
0C00
0C00
3F00
ENDCHAR
STARTCHAR 0130
ENCODING 304
SWIDTH 296 0
DWIDTH 8 0
BBX 6 21 1 0
BITMAP
30
30
20
00
FC
30
30
30
30
30
30
30
30
30
30
30
30
30
30
30
FC
ENDCHAR
STARTCHAR 0131
ENCODING 305
SWIDTH 259 0
DWIDTH 7 0
BBX 6 12 1 0
BITMAP
30
F0
30
30
30
30
30
30
30
30
30
FC
ENDCHAR
STARTCHAR 0132
ENCODING 306
SWIDTH 592 0
DWIDTH 16 0
BBX 14 22 1 -5
BITMAP
FDFC
3030
3030
3030
3030
3030
3030
3030
3030
3030
3030
3030
3030
3030
3030
3030
FC30
0030
0020
0060
0440
0F80
ENDCHAR
STARTCHAR 0133
ENCODING 307
SWIDTH 518 0
DWIDTH 14 0
BBX 11 24 1 -6
BITMAP
3060
7060
3060
0000
0000
0000
3020
F1E0
3060
3060
3060
3060
3060
3060
3060
3060
3060
FC60
0060
0060
0060
0040
0080
0F00
ENDCHAR
STARTCHAR 0139
ENCODING 313
SWIDTH 481 0
DWIDTH 13 0
BBX 12 23 1 0
BITMAP
0180
03C0
0700
0C00
1000
0000
FC00
3000
3000
3000
3000
3000
3000
3000
3000
3000
3000
3000
3000
3000
3010
3030
FFE0
ENDCHAR
STARTCHAR 013A
ENCODING 314
SWIDTH 259 0
DWIDTH 7 0
BBX 7 27 1 0
BITMAP
0E
1E
38
60
80
00
00
30
F0
30
30
30
30
30
30
30
30
30
30
30
30
30
30
30
30
30
FC
ENDCHAR
STARTCHAR 0141
ENCODING 321
SWIDTH 481 0
DWIDTH 13 0
BBX 12 17 1 0
BITMAP
FC00
3000
3000
3000
3000
3000
3300
3C00
3000
F000
B000
3000
3000
3000
3010
3030
FFE0
ENDCHAR
STARTCHAR 0142
ENCODING 322
SWIDTH 296 0
DWIDTH 8 0
BBX 6 20 1 0
BITMAP
30
F0
30
30
30
30
30
34
3C
38
70
F0
B0
30
30
30
30
30
30
FC
ENDCHAR
STARTCHAR 0143
ENCODING 323
SWIDTH 666 0
DWIDTH 18 0
BBX 16 23 1 0
BITMAP
0030
0070
01C0
0300
0600
0000
F03F
300C
380C
3C0C
340C
360C
330C
330C
318C
30CC
30CC
306C
303C
303C
301C
301C
FC0C
ENDCHAR
STARTCHAR 0144
ENCODING 324
SWIDTH 555 0
DWIDTH 15 0
BBX 14 20 1 0
BITMAP
00C0
00E0
0180
0300
0200
0600
0000
0000
71E0
B230
3430
3830
3030
3030
3030
3030
3030
3030
3030
FCFC
ENDCHAR
STARTCHAR 0147
ENCODING 327
SWIDTH 666 0
DWIDTH 18 0
BBX 16 23 1 0
BITMAP
0830
0C60
07C0
03C0
0180
0000
F03F
300C
380C
3C0C
340C
360C
330C
330C
318C
30CC
30CC
306C
303C
303C
301C
301C
FC0C
ENDCHAR
STARTCHAR 0148
ENCODING 328
SWIDTH 555 0
DWIDTH 15 0
BBX 14 19 1 0
BITMAP
3020
1840
0C80
0780
0300
0000
0000
71E0
B230
3430
3830
3030
3030
3030
3030
3030
3030
3030
FCFC
ENDCHAR
STARTCHAR 014A
ENCODING 330
SWIDTH 592 0
DWIDTH 16 0
BBX 14 22 1 -5
BITMAP
3070
F198
320C
340C
380C
380C
300C
300C
300C
300C
300C
300C
300C
300C
300C
300C
FC0C
0008
0018
0010
0E20
0FC0
ENDCHAR
STARTCHAR 014B
ENCODING 331
SWIDTH 555 0
DWIDTH 15 0
BBX 12 18 1 -6
BITMAP
71E0
B230
3430
3830
3030
3030
3030
3030
3030
3030
3030
FC30
0030
0030
0020
0060
0840
1F80
ENDCHAR
STARTCHAR 014C
ENCODING 332
SWIDTH 592 0
DWIDTH 16 0
BBX 14 21 1 0
BITMAP
1FF0
0000
0000
0000
07C0
1860
3030
6018
6018
400C
C00C
C00C
C00C
C00C
C00C
C008
6018
6010
3030
1860
0F80
ENDCHAR
STARTCHAR 014D
ENCODING 333
SWIDTH 518 0
DWIDTH 14 0
BBX 12 17 1 0
BITMAP
3FE0
0000
0000
0000
0000
0F80
30C0
6060
4070
C030
C030
C030
C030
E020
6060
30C0
1F00
ENDCHAR
STARTCHAR 014E
ENCODING 334
SWIDTH 592 0
DWIDTH 16 0
BBX 14 23 1 0
BITMAP
1020
1020
0840
0CC0
0300
0000
07C0
1860
3030
6018
6018
400C
C00C
C00C
C00C
C00C
C00C
C008
6018
6010
3030
1860
0F80
ENDCHAR
STARTCHAR 014F
ENCODING 335
SWIDTH 518 0
DWIDTH 14 0
BBX 12 19 1 0
BITMAP
2040
2040
10C0
1880
0F00
0000
0000
0F80
30C0
6060
4070
C030
C030
C030
C030
E020
6060
30C0
1F00
ENDCHAR
STARTCHAR 0150
ENCODING 336
SWIDTH 592 0
DWIDTH 16 0
BBX 14 24 1 0
BITMAP
0330
0330
0660
0640
04C0
0880
0000
07C0
1860
3030
6018
6018
400C
C00C
C00C
C00C
C00C
C00C
C008
6018
6010
3030
1860
0F80
ENDCHAR
STARTCHAR 0151
ENCODING 337
SWIDTH 518 0
DWIDTH 14 0
BBX 12 20 1 0
BITMAP
0660
0660
0CC0
0C80
0980
1100
0000
0000
0F80
30C0
6060
4070
C030
C030
C030
C030
E020
6060
30C0
1F00
ENDCHAR
STARTCHAR 0152
ENCODING 338
SWIDTH 814 0
DWIDTH 22 0
BBX 19 17 1 0
BITMAP
07FFC0
187040
303040
603000
603000
403000
C03000
C03F80
C03100
C03000
C03000
C03000
603000
603000
303020
183020
0FFFE0
ENDCHAR
STARTCHAR 0153
ENCODING 339
SWIDTH 777 0
DWIDTH 21 0
BBX 19 12 1 0
BITMAP
0F0780
3198C0
60F060
40E060
C07FE0
C06000
C06000
C06000
E07000
60F020
31B840
1E0F80
ENDCHAR
STARTCHAR 0154
ENCODING 340
SWIDTH 555 0
DWIDTH 15 0
BBX 14 23 1 0
BITMAP
00C0
01C0
0700
0C00
0800
0000
7F00
B1C0
3060
3060
3060
3060
30C0
31C0
3F00
3300
3180
3180
30C0
30E0
3060
3070
FC3C
ENDCHAR
STARTCHAR 0155
ENCODING 341
SWIDTH 407 0
DWIDTH 11 0
BBX 10 20 1 0
BITMAP
0380
0300
0600
0600
0C00
0800
0000
0000
33C0
F480
3880
3800
3000
3000
3000
3000
3000
3000
3000
FC00
ENDCHAR
STARTCHAR 0158
ENCODING 344
SWIDTH 555 0
DWIDTH 15 0
BBX 14 23 1 0
BITMAP
2040
1980
1F00
0F00
0600
0000
7F00
B1C0
3060
3060
3060
3060
30C0
31C0
3F00
3300
3180
3180
30C0
30E0
3060
3070
FC3C
ENDCHAR
STARTCHAR 0159
ENCODING 345
SWIDTH 407 0
DWIDTH 11 0
BBX 10 19 1 0
BITMAP
4080
6100
3300
1E00
0C00
0000
0000
33C0
F480
3880
3800
3000
3000
3000
3000
3000
3000
3000
FC00
ENDCHAR
STARTCHAR 015A
ENCODING 346
SWIDTH 481 0
DWIDTH 13 0
BBX 10 23 2 0
BITMAP
0180
0780
0E00
1800
2000
0000
1F00
6380
C100
C000
E000
F000
7C00
7E00
1F80
0780
01C0
00C0
00C0
80C0
8080
C100
7E00
ENDCHAR
STARTCHAR 015B
ENCODING 347
SWIDTH 370 0
DWIDTH 10 0
BBX 8 20 1 0
BITMAP
03
07
06
0C
08
10
00
00
3E
46
C2
E0
F0
7C
1E
07
83
83
C6
7C
ENDCHAR
STARTCHAR 015C
ENCODING 348
SWIDTH 481 0
DWIDTH 13 0
BBX 10 22 2 0
BITMAP
1C00
3600
6100
8080
0000
1F00
6380
C100
C000
E000
F000
7C00
7E00
1F80
0780
01C0
00C0
00C0
80C0
8080
C100
7E00
ENDCHAR
STARTCHAR 015D
ENCODING 349
SWIDTH 370 0
DWIDTH 10 0
BBX 8 19 1 0
BITMAP
18
3C
26
43
81
00
00
3E
46
C2
E0
F0
7C
1E
07
83
83
C6
7C
ENDCHAR
STARTCHAR 0160
ENCODING 352
SWIDTH 481 0
DWIDTH 13 0
BBX 10 23 2 0
BITMAP
C180
6300
3E00
1C00
0C00
0000
1F00
6380
C100
C000
E000
F000
7C00
7E00
1F80
0780
01C0
00C0
00C0
80C0
8080
C100
7E00
ENDCHAR
STARTCHAR 0161
ENCODING 353
SWIDTH 370 0
DWIDTH 10 0
BBX 8 19 1 0
BITMAP
81
43
26
3C
18
00
00
3E
46
C2
E0
F0
7C
1E
07
83
83
C6
7C
ENDCHAR
STARTCHAR 0164
ENCODING 356
SWIDTH 555 0
DWIDTH 15 0
BBX 14 23 0 0
BITMAP
1820
0C60
07C0
0780
0300
0000
FFFC
8304
8304
0300
0300
0300
0300
0300
0300
0300
0300
0300
0300
0300
0300
0300
0FC0
ENDCHAR
STARTCHAR 0168
ENCODING 360
SWIDTH 666 0
DWIDTH 18 0
BBX 16 22 1 0
BITMAP
0010
07B0
09E0
1040
0000
FC3F
300C
300C
300C
300C
300C
300C
300C
300C
300C
300C
300C
300C
3018
1818
0C30
07E0
ENDCHAR
STARTCHAR 0169
ENCODING 361
SWIDTH 518 0
DWIDTH 14 0
BBX 14 18 0 0
BITMAP
0E10
1F20
11C0
0000
0000
0000
3030
F0F0
3030
3030
3030
3030
3030
3030
3030
3070
38BC
1F30
ENDCHAR
STARTCHAR 016A
ENCODING 362
SWIDTH 666 0
DWIDTH 18 0
BBX 16 21 1 0
BITMAP
0FF8
0000
0000
0000
FC3F
300C
300C
300C
300C
300C
300C
300C
300C
300C
300C
300C
300C
3018
1818
0C30
07E0
ENDCHAR
STARTCHAR 016B
ENCODING 363
SWIDTH 518 0
DWIDTH 14 0
BBX 14 17 0 0
BITMAP
1FF0
0000
0000
0000
0000
3030
F0F0
3030
3030
3030
3030
3030
3030
3030
3070
38BC
1F30
ENDCHAR
STARTCHAR 016C
ENCODING 364
SWIDTH 666 0
DWIDTH 18 0
BBX 16 23 1 0
BITMAP
0810
0810
0420
0660
0180
0000
FC3F
300C
300C
300C
300C
300C
300C
300C
300C
300C
300C
300C
300C
3018
1818
0C30
07E0
ENDCHAR
STARTCHAR 016D
ENCODING 365
SWIDTH 518 0
DWIDTH 14 0
BBX 14 19 0 0
BITMAP
1020
1020
0820
0C40
0780
0000
0000
3030
F0F0
3030
3030
3030
3030
3030
3030
3030
3070
38BC
1F30
ENDCHAR
STARTCHAR 016E
ENCODING 366
SWIDTH 666 0
DWIDTH 18 0
BBX 16 23 1 0
BITMAP
01C0
0360
0360
03C0
0180
0000
FC3F
300C
300C
300C
300C
300C
300C
300C
300C
300C
300C
300C
300C
3018
1818
0C30
07E0
ENDCHAR
STARTCHAR 016F
ENCODING 367
SWIDTH 518 0
DWIDTH 14 0
BBX 14 19 0 0
BITMAP
0380
06C0
06C0
06C0
0380
0000
0000
3030
F0F0
3030
3030
3030
3030
3030
3030
3030
3070
38BC
1F30
ENDCHAR
STARTCHAR 0170
ENCODING 368
SWIDTH 666 0
DWIDTH 18 0
BBX 16 24 1 0
BITMAP
0198
01B0
0330
0220
0640
0440
0000
FC3F
300C
300C
300C
300C
300C
300C
300C
300C
300C
300C
300C
300C
3018
1818
0C30
07E0
ENDCHAR
STARTCHAR 0171
ENCODING 369
SWIDTH 518 0
DWIDTH 14 0
BBX 14 20 0 0
BITMAP
0330
0330
0260
0660
0440
0880
0000
0000
3030
F0F0
3030
3030
3030
3030
3030
3030
3030
3070
38BC
1F30
ENDCHAR
STARTCHAR 0174
ENCODING 372
SWIDTH 851 0
DWIDTH 23 0
BBX 22 22 0 0
BITMAP
003800
006C00
008600
010300
000000
FC107C
301010
303810
183830
183830
186C30
186C20
184C20
0CC660
0CC660
0C8660
0D8340
078340
0703C0
0701C0
0701C0
060180
ENDCHAR
STARTCHAR 0175
ENCODING 373
SWIDTH 703 0
DWIDTH 19 0
BBX 19 19 0 0
BITMAP
006000
00F000
019800
030800
020400
000000
000000
F863E0
306080
306080
30F180
18B180
19B100
199900
0D1B00
0F1A00
0E0E00
060E00
040400
ENDCHAR
STARTCHAR 0176
ENCODING 374
SWIDTH 592 0
DWIDTH 16 0
BBX 15 22 0 0
BITMAP
0180
0240
0420
0810
0000
F03E
380C
1818
1C18
0E30
0620
0760
03C0
03C0
0180
0180
0180
0180
0180
0180
0180
07E0
ENDCHAR
STARTCHAR 0177
ENCODING 375
SWIDTH 481 0
DWIDTH 13 0
BBX 14 25 -1 -6
BITMAP
0180
03C0
0660
0420
0810
0000
0000
7C3C
1818
1810
0C30
0C20
0E20
0660
0640
03C0
0380
0380
0180
0100
0300
0200
0600
7C00
F000
ENDCHAR
STARTCHAR 0178
ENCODING 376
SWIDTH 592 0
DWIDTH 16 0
BBX 15 21 0 0
BITMAP
0C30
0C30
0820
0000
F03E
380C
1818
1C18
0E30
0620
0760
03C0
03C0
0180
0180
0180
0180
0180
0180
0180
07E0
ENDCHAR
STARTCHAR 0179
ENCODING 377
SWIDTH 518 0
DWIDTH 14 0
BBX 12 23 1 0
BITMAP
00C0
01E0
0380
0600
0800
0000
7FF0
4060
40E0
80C0
01C0
0380
0300
0700
0600
0E00
1C00
1800
3800
3010
7010
E030
FFF0
ENDCHAR
STARTCHAR 017A
ENCODING 378
SWIDTH 444 0
DWIDTH 12 0
BBX 10 20 1 0
BITMAP
0180
0380
0300
0600
0400
0800
0000
0000
7FC0
4180
8380
0300
0600
0C00
1C00
1800
3000
7040
6040
FFC0
ENDCHAR
STARTCHAR 017B
ENCODING 379
SWIDTH 518 0
DWIDTH 14 0
BBX 12 21 1 0
BITMAP
0600
0600
0600
0000
7FF0
4060
40E0
80C0
01C0
0380
0300
0700
0600
0E00
1C00
1800
3800
3010
7010
E030
FFF0
ENDCHAR
STARTCHAR 017C
ENCODING 380
SWIDTH 444 0
DWIDTH 12 0
BBX 10 18 1 0
BITMAP
0C00
0C00
0C00
0000
0000
0000
7FC0
4180
8380
0300
0600
0C00
1C00
1800
3000
7040
6040
FFC0
ENDCHAR
STARTCHAR 017D
ENCODING 381
SWIDTH 518 0
DWIDTH 14 0
BBX 12 23 1 0
BITMAP
3040
18C0
0F80
0700
0600
0000
7FF0
4060
40E0
80C0
01C0
0380
0300
0700
0600
0E00
1C00
1800
3800
3010
7010
E030
FFF0
ENDCHAR
STARTCHAR 017E
ENCODING 382
SWIDTH 444 0
DWIDTH 12 0
BBX 10 19 1 0
BITMAP
4080
21C0
1300
1E00
0C00
0000
0000
7FC0
4180
8380
0300
0600
0C00
1C00
1800
3000
7040
6040
FFC0
ENDCHAR
STARTCHAR 0181
ENCODING 385
SWIDTH 629 0
DWIDTH 17 0
BBX 16 17 0 0
BITMAP
1FF0
731C
C306
C306
E306
8304
0318
03F8
030E
0306
0303
0303
0303
0303
0306
030E
0FF8
ENDCHAR
STARTCHAR 0186
ENCODING 390
SWIDTH 518 0
DWIDTH 14 0
BBX 12 17 1 0
BITMAP
3F00
4180
80C0
0060
0060
0030
0030
0030
0030
0030
0030
6030
C060
C060
C0C0
6180
3E00
ENDCHAR
STARTCHAR 0189
ENCODING 393
SWIDTH 592 0
DWIDTH 16 0
BBX 14 17 1 0
BITMAP
7F80
B0E0
3030
3018
3018
300C
300C
300C
FF0C
300C
300C
300C
3018
3018
3030
3060
FF80
ENDCHAR
STARTCHAR 018A
ENCODING 394
SWIDTH 703 0
DWIDTH 19 0
BBX 18 17 0 0
BITMAP
1FF800
730E00
C30300
C30180
E30180
8300C0
0300C0
0300C0
0300C0
0300C0
0300C0
0300C0
030180
030180
030300
030600
0FF800
ENDCHAR
STARTCHAR 018E
ENCODING 398
SWIDTH 518 0
DWIDTH 14 0
BBX 12 17 1 0
BITMAP
3FF0
60C0
40C0
00C0
00C0
00C0
00C0
1FC0
20C0
00C0
00C0
00C0
00C0
40C0
40C0
C0C0
FFF0
ENDCHAR
STARTCHAR 0190
ENCODING 400
SWIDTH 518 0
DWIDTH 14 0
BBX 12 17 1 0
BITMAP
0FC0
30E0
6000
C000
C000
C000
E000
7000
3E00
3800
6000
C000
C000
C000
E020
7070
3F80
ENDCHAR
STARTCHAR 0192
ENCODING 402
SWIDTH 296 0
DWIDTH 8 0
BBX 14 26 -4 -6
BITMAP
003C
00C8
0180
0100
0300
0300
0300
0300
0FF0
0300
0300
0300
0300
0300
0300
0300
0300
0300
0300
0300
0300
0300
0200
0600
0400
F800
ENDCHAR
STARTCHAR 0197
ENCODING 407
SWIDTH 296 0
DWIDTH 8 0
BBX 6 17 1 0
BITMAP
FC
30
30
30
30
30
30
30
FC
30
30
30
30
30
30
30
FC
ENDCHAR
STARTCHAR 0198
ENCODING 408
SWIDTH 629 0
DWIDTH 17 0
BBX 15 17 1 0
BITMAP
FC3C
3066
30C6
3086
3104
3200
3600
3400
3E00
3700
3300
3380
31C0
30E0
3070
3038
FC3E
ENDCHAR
STARTCHAR 0199
ENCODING 409
SWIDTH 518 0
DWIDTH 14 0
BBX 13 20 1 0
BITMAP
03E0
0460
0840
1800
1000
3000
3000
3000
31F0
30C0
3180
3300
3400
3C00
3600
3300
3180
30C0
30E0
F878
ENDCHAR
STARTCHAR 019A
ENCODING 410
SWIDTH 333 0
DWIDTH 9 0
BBX 6 20 1 0
BITMAP
30
F0
30
30
30
30
30
30
30
FC
30
30
30
30
30
30
30
30
30
FC
ENDCHAR
STARTCHAR 019D
ENCODING 413
SWIDTH 666 0
DWIDTH 18 0
BBX 20 22 -3 -5
BITMAP
0F03F0
0300C0
0380C0
03C0C0
0340C0
0360C0
0330C0
0330C0
0318C0
030CC0
030CC0
0306C0
0307C0
0303C0
0301C0
0301C0
0300C0
030000
020000
060000
440000
F80000
ENDCHAR
STARTCHAR 019F
ENCODING 415
SWIDTH 592 0
DWIDTH 16 0
BBX 14 17 1 0
BITMAP
07C0
1860
3030
6018
6018
400C
C00C
C00C
FFFC
C00C
C00C
C008
6018
6010
3030
1860
0F80
ENDCHAR
STARTCHAR 01A0
ENCODING 416
SWIDTH 629 0
DWIDTH 17 0
BBX 15 20 1 0
BITMAP
0006
000E
0006
07C4
1868
3030
2018
6018
400C
C00C
C00C
C00C
C00C
C00C
C008
6018
6010
3030
1860
0F80
ENDCHAR
STARTCHAR 01A1
ENCODING 417
SWIDTH 592 0
DWIDTH 16 0
BBX 14 15 1 0
BITMAP
000C
001C
000C
0F88
30F0
6060
4070
C030
C030
C030
C030
E020
6060
30C0
1F00
ENDCHAR
STARTCHAR 01A9
ENCODING 425
SWIDTH 518 0
DWIDTH 14 0
BBX 12 17 1 0
BITMAP
FFF0
6030
7010
3810
1800
1C00
0E00
0600
0700
0600
0C00
1800
1800
3010
6010
E010
FFF0
ENDCHAR
STARTCHAR 01AA
ENCODING 426
SWIDTH 333 0
DWIDTH 9 0
BBX 13 26 0 -6
BITMAP
3800
4C00
C600
C600
7E00
0600
0600
0600
0600
0600
0600
0600
0600
0600
0600
0600
0600
0600
0600
0600
0600
0600
0608
0618
0330
01E0
ENDCHAR
STARTCHAR 01AF
ENCODING 431
SWIDTH 666 0
DWIDTH 18 0
BBX 17 20 1 0
BITMAP
000100
000380
000300
FC7E00
301C00
301800
301800
301800
301800
301800
301800
301800
301800
301800
301800
301800
301000
183000
0C6000
07C000
ENDCHAR
STARTCHAR 01B0
ENCODING 432
SWIDTH 629 0
DWIDTH 17 0
BBX 16 15 0 0
BITMAP
0003
0007
0013
F0F6
303C
3030
3030
3030
3030
3030
3030
3030
3070
38BC
1F30
ENDCHAR
STARTCHAR 01B3
ENCODING 435
SWIDTH 666 0
DWIDTH 18 0
BBX 19 17 0 0
BITMAP
F003C0
380460
180C60
1C1860
0E3080
063000
076000
03C000
03C000
018000
018000
018000
018000
018000
018000
018000
07E000
ENDCHAR
STARTCHAR 01B4
ENCODING 436
SWIDTH 481 0
DWIDTH 13 0
BBX 19 23 -1 -6
BITMAP
0001E0
000200
000400
000800
000800
7C1800
181000
181000
0C2000
0C2000
0E6000
064000
064000
07C000
038000
038000
018000
010000
010000
020000
020000
040000
F80000
ENDCHAR
STARTCHAR 01B7
ENCODING 439
SWIDTH 518 0
DWIDTH 14 0
BBX 12 17 1 0
BITMAP
7FE0
40E0
41C0
8380
0380
0700
0E00
1FC0
10E0
0070
0030
0030
0030
0030
6060
F0C0
3F00
ENDCHAR
STARTCHAR 01CD
ENCODING 461
SWIDTH 592 0
DWIDTH 16 0
BBX 16 23 0 0
BITMAP
0810
0660
07C0
03C0
0180
0000
0080
0180
0380
03C0
02C0
06C0
0660
0460
0C70
0C30
0FF0
1818
1818
1018
300C
300C
F83F
ENDCHAR
STARTCHAR 01CE
ENCODING 462
SWIDTH 444 0
DWIDTH 12 0
BBX 11 19 1 0
BITMAP
4080
21C0
1300
1E00
0C00
0000
0000
1F00
6180
E180
0180
0180
1F80
7980
E180
C180
C180
C780
79E0
ENDCHAR
STARTCHAR 01CF
ENCODING 463
SWIDTH 296 0
DWIDTH 8 0
BBX 8 23 0 0
BITMAP
81
66
7C
3C
18
00
7E
18
18
18
18
18
18
18
18
18
18
18
18
18
18
18
7E
ENDCHAR
STARTCHAR 01D0
ENCODING 464
SWIDTH 259 0
DWIDTH 7 0
BBX 8 19 0 0
BITMAP
81
C2
64
3C
18
00
00
18
78
18
18
18
18
18
18
18
18
18
7E
ENDCHAR
STARTCHAR 01D1
ENCODING 465
SWIDTH 592 0
DWIDTH 16 0
BBX 14 23 1 0
BITMAP
1020
0840
06C0
0780
0300
0000
07C0
1860
3030
6018
6018
400C
C00C
C00C
C00C
C00C
C00C
C008
6018
6010
3030
1860
0F80
ENDCHAR
STARTCHAR 01D2
ENCODING 466
SWIDTH 518 0
DWIDTH 14 0
BBX 12 19 1 0
BITMAP
2040
10C0
1980
0F00
0600
0000
0000
0F80
30C0
6060
4070
C030
C030
C030
C030
E020
6060
30C0
1F00
ENDCHAR
STARTCHAR 01D3
ENCODING 467
SWIDTH 666 0
DWIDTH 18 0
BBX 16 23 1 0
BITMAP
0810
0660
07C0
03C0
0180
0000
FC3F
300C
300C
300C
300C
300C
300C
300C
300C
300C
300C
300C
300C
3018
1818
0C30
07E0
ENDCHAR
STARTCHAR 01D4
ENCODING 468
SWIDTH 518 0
DWIDTH 14 0
BBX 14 19 0 0
BITMAP
1020
0860
04C0
0780
0300
0000
0000
3030
F0F0
3030
3030
3030
3030
3030
3030
3030
3070
38BC
1F30
ENDCHAR
STARTCHAR 01D5
ENCODING 469
SWIDTH 666 0
DWIDTH 18 0
BBX 16 25 1 0
BITMAP
0FF8
0000
0000
0000
0C30
0C30
0820
0000
FC3F
300C
300C
300C
300C
300C
300C
300C
300C
300C
300C
300C
300C
3018
1818
0C30
07E0
ENDCHAR
STARTCHAR 01D6
ENCODING 470
SWIDTH 518 0
DWIDTH 14 0
BBX 14 22 0 0
BITMAP
1FF0
0000
0000
0000
1860
1860
1860
0000
0000
0000
3030
F0F0
3030
3030
3030
3030
3030
3030
3030
3070
38BC
1F30
ENDCHAR
STARTCHAR 01D7
ENCODING 471
SWIDTH 666 0
DWIDTH 18 0
BBX 16 27 1 0
BITMAP
0030
00F0
01C0
0300
0400
0000
0C30
0C30
0820
0000
FC3F
300C
300C
300C
300C
300C
300C
300C
300C
300C
300C
300C
300C
3018
1818
0C30
07E0
ENDCHAR
STARTCHAR 01D8
ENCODING 472
SWIDTH 518 0
DWIDTH 14 0
BBX 14 25 0 0
BITMAP
0060
00E0
00C0
0180
0100
0200
0000
1860
1860
1860
0000
0000
0000
3030
F0F0
3030
3030
3030
3030
3030
3030
3030
3070
38BC
1F30
ENDCHAR
STARTCHAR 01D9
ENCODING 473
SWIDTH 666 0
DWIDTH 18 0
BBX 16 27 1 0
BITMAP
0C30
0660
03C0
03C0
0180
0000
0C30
0C30
0820
0000
FC3F
300C
300C
300C
300C
300C
300C
300C
300C
300C
300C
300C
300C
3018
1818
0C30
07E0
ENDCHAR
STARTCHAR 01DA
ENCODING 474
SWIDTH 518 0
DWIDTH 14 0
BBX 14 24 0 0
BITMAP
1020
0860
0CC0
0780
0380
0000
1860
1860
1860
0000
0000
0000
3030
F0F0
3030
3030
3030
3030
3030
3030
3030
3070
38BC
1F30
ENDCHAR
STARTCHAR 01DB
ENCODING 475
SWIDTH 666 0
DWIDTH 18 0
BBX 16 27 1 0
BITMAP
0C00
1E00
0380
00C0
0040
0000
0C30
0C30
0820
0000
FC3F
300C
300C
300C
300C
300C
300C
300C
300C
300C
300C
300C
300C
3018
1818
0C30
07E0
ENDCHAR
STARTCHAR 01DC
ENCODING 476
SWIDTH 518 0
DWIDTH 14 0
BBX 14 25 0 0
BITMAP
0C00
1C00
0600
0600
0300
0180
0000
1860
1860
1860
0000
0000
0000
3030
F0F0
3030
3030
3030
3030
3030
3030
3030
3070
38BC
1F30
ENDCHAR
STARTCHAR 01DD
ENCODING 477
SWIDTH 444 0
DWIDTH 12 0
BBX 10 12 1 0
BITMAP
3E00
C300
0180
00C0
00C0
00C0
7FC0
C0C0
C080
C180
6100
3E00
ENDCHAR
STARTCHAR 01DE
ENCODING 478
SWIDTH 592 0
DWIDTH 16 0
BBX 16 25 0 0
BITMAP
0FF0
0000
0000
0000
0C30
0C30
0820
0000
0080
0180
0380
03C0
02C0
06C0
0660
0460
0C70
0C30
0FF0
1818
1818
1018
300C
300C
F83F
ENDCHAR
STARTCHAR 01DF
ENCODING 479
SWIDTH 444 0
DWIDTH 12 0
BBX 11 22 1 0
BITMAP
7FC0
0000
0000
0000
6180
6180
6180
0000
0000
0000
1F00
6180
E180
0180
0180
1F80
7980
E180
C180
C180
C780
79E0
ENDCHAR
STARTCHAR 01E0
ENCODING 480
SWIDTH 592 0
DWIDTH 16 0
BBX 16 25 0 0
BITMAP
0FF0
0000
0000
0000
0180
0180
0100
0000
0080
0180
0380
03C0
02C0
06C0
0660
0460
0C70
0C30
0FF0
1818
1818
1018
300C
300C
F83F
ENDCHAR
STARTCHAR 01E1
ENCODING 481
SWIDTH 444 0
DWIDTH 12 0
BBX 11 22 1 0
BITMAP
7FC0
0000
0000
0000
0C00
0C00
0C00
0000
0000
0000
1F00
6180
E180
0180
0180
1F80
7980
E180
C180
C180
C780
79E0
ENDCHAR
STARTCHAR 01E2
ENCODING 482
SWIDTH 777 0
DWIDTH 21 0
BBX 20 21 0 0
BITMAP
00FF80
000000
000000
000000
07FFE0
01B020
01B020
013000
033000
033000
063000
07FFC0
043080
0C3000
0C3000
183000
183000
103000
303010
303030
F8FFF0
ENDCHAR
STARTCHAR 01E3
ENCODING 483
SWIDTH 703 0
DWIDTH 19 0
BBX 17 17 1 0
BITMAP
07F800
080000
000000
000000
000000
1F3E00
61C300
61C180
C18180
0FFF80
398000
618000
C18000
C18000
C1C100
C6E300
787C00
ENDCHAR
STARTCHAR 01E6
ENCODING 486
SWIDTH 592 0
DWIDTH 16 0
BBX 14 23 1 0
BITMAP
1830
0C60
06C0
0380
0100
0000
03F0
0C38
1000
2000
6000
4000
C000
C000
C000
C0FC
C018
C018
6018
6018
3018
1818
07E0
ENDCHAR
STARTCHAR 01E7
ENCODING 487
SWIDTH 481 0
DWIDTH 13 0
BBX 13 25 0 -6
BITMAP
3020
1840
0C80
0780
0300
0000
0000
0F18
30F0
2060
6060
6060
6060
38C0
1F00
1800
3800
3F80
1FF0
3078
C018
C018
C010
7060
1F80
ENDCHAR
STARTCHAR 01E8
ENCODING 488
SWIDTH 592 0
DWIDTH 16 0
BBX 15 23 1 0
BITMAP
1060
18C0
0F80
0780
0300
0000
FCFC
3030
3060
30C0
3180
3300
3600
3400
3E00
3600
3300
3180
31C0
30E0
3070
3038
FC1E
ENDCHAR
STARTCHAR 01E9
ENCODING 489
SWIDTH 518 0
DWIDTH 14 0
BBX 13 27 1 0
BITMAP
2040
30C0
1980
0F00
0700
0000
0000
3000
F000
3000
3000
3000
3000
3000
3000
31F0
30C0
3180
3300
3400
3C00
3600
3300
3180
30C0
30E0
F878
ENDCHAR
STARTCHAR 01EE
ENCODING 494
SWIDTH 518 0
DWIDTH 14 0
BBX 12 23 1 0
BITMAP
2040
1080
0980
0F00
0600
0000
7FE0
40E0
41C0
8380
0380
0700
0E00
1FC0
10E0
0070
0030
0030
0030
0030
6060
F0C0
3F00
ENDCHAR
STARTCHAR 01EF
ENCODING 495
SWIDTH 444 0
DWIDTH 12 0
BBX 11 25 0 -6
BITMAP
2040
3080
1F80
0F00
0600
0000
0000
7FC0
41C0
4380
0300
0600
0C00
1C00
3F00
01C0
00C0
00E0
0060
0060
0060
0040
40C0
E180
3E00
ENDCHAR
STARTCHAR 01F4
ENCODING 500
SWIDTH 592 0
DWIDTH 16 0
BBX 14 23 1 0
BITMAP
0060
00F0
01C0
0300
0400
0000
03F0
0C38
1000
2000
6000
4000
C000
C000
C000
C0FC
C018
C018
6018
6018
3018
1818
07E0
ENDCHAR
STARTCHAR 01F5
ENCODING 501
SWIDTH 481 0
DWIDTH 13 0
BBX 13 26 0 -6
BITMAP
00C0
00E0
0180
0300
0200
0400
0000
0000
0F18
30F0
2060
6060
6060
6060
38C0
1F00
1800
3800
3F80
1FF0
3078
C018
C018
C010
7060
1F80
ENDCHAR
STARTCHAR 01F8
ENCODING 504
SWIDTH 666 0
DWIDTH 18 0
BBX 16 23 1 0
BITMAP
0C00
1E00
0700
0180
0040
0000
F03F
300C
380C
3C0C
340C
360C
330C
330C
318C
30CC
30CC
306C
303C
303C
301C
301C
FC0C
ENDCHAR
STARTCHAR 01F9
ENCODING 505
SWIDTH 555 0
DWIDTH 15 0
BBX 14 20 1 0
BITMAP
1800
1C00
0C00
0600
0200
0100
0000
0000
71E0
B230
3430
3830
3030
3030
3030
3030
3030
3030
3030
FCFC
ENDCHAR
STARTCHAR 01FA
ENCODING 506
SWIDTH 592 0
DWIDTH 16 0
BBX 16 29 0 0
BITMAP
0030
0070
00E0
0180
0200
0000
01C0
0360
0360
03C0
0180
0000
0080
0180
0380
03C0
02C0
06C0
0660
0460
0C70
0C30
0FF0
1818
1818
1018
300C
300C
F83F
ENDCHAR
STARTCHAR 01FB
ENCODING 507
SWIDTH 444 0
DWIDTH 12 0
BBX 11 26 1 0
BITMAP
0180
0380
0300
0600
0400
0800
0000
0E00
0B00
1B00
1B00
0E00
0000
0000
1F00
6180
E180
0180
0180
1F80
7980
E180
C180
C180
C780
79E0
ENDCHAR
STARTCHAR 01FC
ENCODING 508
SWIDTH 777 0
DWIDTH 21 0
BBX 20 23 0 0
BITMAP
000300
000780
000E00
001800
002000
000000
07FFE0
01B020
01B020
013000
033000
033000
063000
07FFC0
043080
0C3000
0C3000
183000
183000
103000
303010
303030
F8FFF0
ENDCHAR
STARTCHAR 01FD
ENCODING 509
SWIDTH 703 0
DWIDTH 19 0
BBX 17 20 1 0
BITMAP
003800
003000
006000
004000
00C000
018000
000000
000000
1F3E00
61C300
61C180
C18180
0FFF80
398000
618000
C18000
C18000
C1C100
C6E300
787C00
ENDCHAR
STARTCHAR 01FE
ENCODING 510
SWIDTH 592 0
DWIDTH 16 0
BBX 14 24 1 -1
BITMAP
0060
00E0
0180
0700
0400
0000
07CC
1878
3030
2078
6078
40DC
C1CC
C18C
C30C
C70C
C60C
CC08
6818
7810
3030
7860
CF80
8000
ENDCHAR
STARTCHAR 01FF
ENCODING 511
SWIDTH 518 0
DWIDTH 14 0
BBX 12 21 1 -1
BITMAP
01C0
0180
0300
0300
0600
0400
0000
0010
0FB0
31E0
60E0
41F0
C330
C630
C630
CC30
F820
7060
78C0
DF00
8000
ENDCHAR
STARTCHAR 021E
ENCODING 542
SWIDTH 666 0
DWIDTH 18 0
BBX 16 23 1 0
BITMAP
0830
0C60
07C0
0380
0180
0000
FC3F
300C
300C
300C
300C
300C
300C
300C
3FFC
300C
300C
300C
300C
300C
300C
300C
FC3F
ENDCHAR
STARTCHAR 021F
ENCODING 543
SWIDTH 555 0
DWIDTH 15 0
BBX 14 27 1 0
BITMAP
2040
1060
0CC0
0F80
0700
0000
0000
3000
F000
3000
3000
3000
3000
3000
3000
31E0
3230
3430
3830
3030
3030
3030
3030
3030
3030
3030
FCFC
ENDCHAR
STARTCHAR 0226
ENCODING 550
SWIDTH 592 0
DWIDTH 16 0
BBX 16 21 0 0
BITMAP
0180
0180
0100
0000
0080
0180
0380
03C0
02C0
06C0
0660
0460
0C70
0C30
0FF0
1818
1818
1018
300C
300C
F83F
ENDCHAR
STARTCHAR 0227
ENCODING 551
SWIDTH 444 0
DWIDTH 12 0
BBX 11 18 1 0
BITMAP
0C00
0C00
0C00
0000
0000
0000
1F00
6180
E180
0180
0180
1F80
7980
E180
C180
C180
C780
79E0
ENDCHAR
STARTCHAR 0228
ENCODING 552
SWIDTH 481 0
DWIDTH 13 0
BBX 11 23 1 -6
BITMAP
FFE0
3020
3020
3000
3000
3000
3000
3FC0
3080
3000
3000
3000
3000
3000
3020
3040
FFC0
0800
0800
0E00
0600
0600
0800
ENDCHAR
STARTCHAR 0229
ENCODING 553
SWIDTH 444 0
DWIDTH 12 0
BBX 11 18 1 -6
BITMAP
0F00
3180
60C0
40C0
FFC0
C000
C000
C000
E000
6040
70E0
1F00
0400
0600
0F00
0300
0600
1C00
ENDCHAR
STARTCHAR 022A
ENCODING 554
SWIDTH 592 0
DWIDTH 16 0
BBX 14 25 1 0
BITMAP
1FF0
0000
0000
0000
1860
1860
1040
0000
07C0
1860
3030
6018
6018
400C
C00C
C00C
C00C
C00C
C00C
C008
6018
6010
3030
1860
0F80
ENDCHAR
STARTCHAR 022B
ENCODING 555
SWIDTH 518 0
DWIDTH 14 0
BBX 12 22 1 0
BITMAP
3FE0
0000
0000
0000
30C0
30C0
30C0
0000
0000
0000
0F80
30C0
6060
4070
C030
C030
C030
C030
E020
6060
30C0
1F00
ENDCHAR
STARTCHAR 022C
ENCODING 556
SWIDTH 592 0
DWIDTH 16 0
BBX 14 25 1 0
BITMAP
1FF0
0000
0000
0020
0F30
13E0
2080
0000
07C0
1860
3030
6018
6018
400C
C00C
C00C
C00C
C00C
C00C
C008
6018
6010
3030
1860
0F80
ENDCHAR
STARTCHAR 022D
ENCODING 557
SWIDTH 518 0
DWIDTH 14 0
BBX 12 22 1 0
BITMAP
3FE0
0000
0000
0000
1C60
3E40
2380
0000
0000
0000
0F80
30C0
6060
4070
C030
C030
C030
C030
E020
6060
30C0
1F00
ENDCHAR
STARTCHAR 022E
ENCODING 558
SWIDTH 592 0
DWIDTH 16 0
BBX 14 21 1 0
BITMAP
0300
0300
0200
0000
07C0
1860
3030
6018
6018
400C
C00C
C00C
C00C
C00C
C00C
C008
6018
6010
3030
1860
0F80
ENDCHAR
STARTCHAR 022F
ENCODING 559
SWIDTH 518 0
DWIDTH 14 0
BBX 12 18 1 0
BITMAP
0600
0600
0600
0000
0000
0000
0F80
30C0
6060
4070
C030
C030
C030
C030
E020
6060
30C0
1F00
ENDCHAR
STARTCHAR 0230
ENCODING 560
SWIDTH 592 0
DWIDTH 16 0
BBX 14 25 1 0
BITMAP
1FF0
0000
0000
0000
0300
0300
0200
0000
07C0
1860
3030
6018
6018
400C
C00C
C00C
C00C
C00C
C00C
C008
6018
6010
3030
1860
0F80
ENDCHAR
STARTCHAR 0231
ENCODING 561
SWIDTH 518 0
DWIDTH 14 0
BBX 12 22 1 0
BITMAP
3FE0
0000
0000
0000
0600
0600
0600
0000
0000
0000
0F80
30C0
6060
4070
C030
C030
C030
C030
E020
6060
30C0
1F00
ENDCHAR
STARTCHAR 0232
ENCODING 562
SWIDTH 592 0
DWIDTH 16 0
BBX 15 21 0 0
BITMAP
0FF8
0000
0000
0000
F03E
380C
1818
1C18
0E30
0620
0760
03C0
03C0
0180
0180
0180
0180
0180
0180
0180
07E0
ENDCHAR
STARTCHAR 0233
ENCODING 563
SWIDTH 481 0
DWIDTH 13 0
BBX 14 23 -1 -6
BITMAP
0FF8
0000
0000
0000
0000
7C3C
1818
1810
0C30
0C20
0E20
0660
0640
03C0
0380
0380
0180
0100
0300
0200
0600
7C00
F000
ENDCHAR
STARTCHAR 0237
ENCODING 567
SWIDTH 259 0
DWIDTH 7 0
BBX 8 18 -3 -6
BITMAP
03
0F
03
03
03
03
03
03
03
03
03
03
03
03
02
02
04
F8
ENDCHAR
STARTCHAR 023D
ENCODING 573
SWIDTH 481 0
DWIDTH 13 0
BBX 12 17 1 0
BITMAP
FC00
3000
3000
3000
3000
3000
3000
3000
3000
FE00
3000
3000
3000
3000
3010
3030
FFE0
ENDCHAR
STARTCHAR 0241
ENCODING 577
SWIDTH 481 0
DWIDTH 13 0
BBX 11 17 1 0
BITMAP
1F80
60C0
C060
C060
C060
0060
00C0
0380
0700
0600
0C00
0C00
0C00
0C00
0C00
0C00
3F80
ENDCHAR
STARTCHAR 0242
ENCODING 578
SWIDTH 407 0
DWIDTH 11 0
BBX 9 12 1 0
BITMAP
3E00
6380
C180
C180
0380
0600
0C00
1800
1800
1800
1800
7E00
ENDCHAR
STARTCHAR 0244
ENCODING 580
SWIDTH 666 0
DWIDTH 18 0
BBX 16 17 1 0
BITMAP
FC3F
300C
300C
300C
300C
300C
300C
300C
FFFF
300C
300C
300C
300C
3018
1818
0C30
07E0
ENDCHAR
STARTCHAR 0245
ENCODING 581
SWIDTH 666 0
DWIDTH 18 0
BBX 17 17 0 0
BITMAP
00C000
01C000
01C000
01E000
036000
026000
063000
063000
043800
0C1800
0C1800
081C00
180C00
180C00
100600
300600
FC1F80
ENDCHAR
STARTCHAR 024A
ENCODING 586
SWIDTH 592 0
DWIDTH 16 0
BBX 18 23 1 -6
BITMAP
03CC00
0C3800
101800
201800
601800
401800
C01800
C01800
C01800
C01800
C01800
C01800
601800
603800
305800
389800
0F1800
001800
001800
001840
0018C0
001880
000F00
ENDCHAR
STARTCHAR 024B
ENCODING 587
SWIDTH 518 0
DWIDTH 14 0
BBX 16 18 1 -6
BITMAP
0F20
30E0
6060
4060
C060
C060
C060
C060
C060
60E0
3160
1E60
0060
0060
0061
0063
0062
003C
ENDCHAR
STARTCHAR 0251
ENCODING 593
SWIDTH 481 0
DWIDTH 13 0
BBX 12 12 1 0
BITMAP
0F40
31C0
60C0
40C0
C0C0
C0C0
C0C0
C0C0
C0C0
60C0
73F0
1CC0
ENDCHAR
STARTCHAR 0253
ENCODING 595
SWIDTH 518 0
DWIDTH 14 0
BBX 11 20 2 0
BITMAP
0F80
1180
2100
6000
4000
C000
C000
C000
C780
D9C0
E0C0
C0E0
C060
C060
C060
C060
C040
C0C0
E180
3E00
ENDCHAR
STARTCHAR 0254
ENCODING 596
SWIDTH 444 0
DWIDTH 12 0
BBX 10 12 1 0
BITMAP
3E00
C300
0180
00C0
00C0
00C0
40C0
E0C0
C080
C180
6300
3E00
ENDCHAR
STARTCHAR 0256
ENCODING 598
SWIDTH 518 0
DWIDTH 14 0
BBX 16 26 1 -6
BITMAP
0060
01E0
0060
0060
0060
0060
0060
0060
0FE0
30E0
6060
4060
C060
C060
C060
C060
C060
60E0
3160
1E60
0060
0060
0061
0063
0063
003C
ENDCHAR
STARTCHAR 0257
ENCODING 599
SWIDTH 518 0
DWIDTH 14 0
BBX 16 20 1 0
BITMAP
000F
0013
0020
0060
0060
0060
0060
0060
0FE0
30E0
6060
4060
C060
C060
C060
C060
C060
60E0
3178
1E60
ENDCHAR
STARTCHAR 0259
ENCODING 601
SWIDTH 444 0
DWIDTH 12 0
BBX 10 12 1 0
BITMAP
3E00
C300
0180
00C0
00C0
00C0
7FC0
C0C0
C080
C180
6100
3E00
ENDCHAR
STARTCHAR 025B
ENCODING 603
SWIDTH 444 0
DWIDTH 12 0
BBX 10 12 1 0
BITMAP
1F00
6180
C100
C000
E000
7C00
7000
C000
C000
C080
E1C0
3F00
ENDCHAR
STARTCHAR 0263
ENCODING 611
SWIDTH 481 0
DWIDTH 13 0
BBX 11 18 1 -6
BITMAP
F1E0
60C0
3080
3180
1900
1900
1A00
0E00
0E00
0600
0E00
0E00
0B00
1B00
1B00
1B00
1B00
0E00
ENDCHAR
STARTCHAR 0268
ENCODING 616
SWIDTH 259 0
DWIDTH 7 0
BBX 6 18 1 0
BITMAP
30
70
30
00
00
00
30
F0
30
30
30
FC
30
30
30
30
30
FC
ENDCHAR
STARTCHAR 0269
ENCODING 617
SWIDTH 296 0
DWIDTH 8 0
BBX 7 12 0 0
BITMAP
30
F0
30
30
30
30
30
30
30
32
32
3C
ENDCHAR
STARTCHAR 026B
ENCODING 619
SWIDTH 333 0
DWIDTH 9 0
BBX 9 20 0 0
BITMAP
1800
7800
1800
1800
1800
1800
1800
1800
1900
7980
9E00
9800
1800
1800
1800
1800
1800
1800
1800
7E00
ENDCHAR
STARTCHAR 0272
ENCODING 626
SWIDTH 555 0
DWIDTH 15 0
BBX 19 18 -4 -6
BITMAP
070F00
0B3180
034180
038180
030180
030180
030180
030180
030180
030180
030180
0307E0
030000
030000
020000
060000
7C0000
F00000
ENDCHAR
STARTCHAR 0275
ENCODING 629
SWIDTH 518 0
DWIDTH 14 0
BBX 12 12 1 0
BITMAP
0F80
30C0
6060
4030
C030
FFF0
C030
C030
E020
6060
38C0
1F00
ENDCHAR
STARTCHAR 0283
ENCODING 643
SWIDTH 259 0
DWIDTH 7 0
BBX 13 26 -3 -6
BITMAP
00F0
0138
0200
0600
0600
0600
0600
0600
0600
0600
0600
0600
0700
0700
0300
0300
0300
0300
0300
0300
0300
0300
0200
0200
8400
F800
ENDCHAR
STARTCHAR 0289
ENCODING 649
SWIDTH 518 0
DWIDTH 14 0
BBX 14 12 0 0
BITMAP
F0F0
3030
3030
3030
3030
FFFC
7E34
3030
3030
3070
38FC
1F30
ENDCHAR
STARTCHAR 028A
ENCODING 650
SWIDTH 481 0
DWIDTH 13 0
BBX 11 12 1 0
BITMAP
F3E0
3980
60C0
60C0
C060
C060
C060
C060
C040
60C0
7080
1F00
ENDCHAR
STARTCHAR 028C
ENCODING 652
SWIDTH 481 0
DWIDTH 13 0
BBX 13 12 0 0
BITMAP
0200
0700
0700
0D80
0980
0980
18C0
10C0
1060
3060
2070
F8F8
ENDCHAR
STARTCHAR 0292
ENCODING 658
SWIDTH 444 0
DWIDTH 12 0
BBX 11 18 0 -6
BITMAP
7FC0
41C0
4380
0300
0600
0C00
1C00
3F00
01C0
00C0
00E0
0060
0060
0060
0040
40C0
E180
3E00
ENDCHAR
STARTCHAR 0294
ENCODING 660
SWIDTH 444 0
DWIDTH 12 0
BBX 10 20 1 0
BITMAP
1F00
6380
41C0
C0C0
C0C0
00C0
00C0
0180
0300
0600
0600
0C00
0C00
0C00
0C00
0C00
0C00
0C00
0C00
3F00
ENDCHAR
STARTCHAR 02A0
ENCODING 672
SWIDTH 518 0
DWIDTH 14 0
BBX 16 26 1 -6
BITMAP
000F
0013
0020
0060
0060
0060
0060
0060
0FE0
30E0
6060
4060
C060
C060
C060
C060
C060
60E0
3160
1E60
0060
0060
0060
0060
0060
01F8
ENDCHAR
STARTCHAR 02BC
ENCODING 700
SWIDTH 222 0
DWIDTH 6 0
BBX 4 6 1 14
BITMAP
60
F0
30
30
20
40
ENDCHAR
STARTCHAR 02C0
ENCODING 704
SWIDTH 333 0
DWIDTH 9 0
BBX 8 9 0 11
BITMAP
3E
67
C3
03
06
0C
18
18
18
ENDCHAR
STARTCHAR 02C6
ENCODING 710
SWIDTH 370 0
DWIDTH 10 0
BBX 8 5 1 14
BITMAP
18
3C
64
C2
81
ENDCHAR
STARTCHAR 02C7
ENCODING 711
SWIDTH 370 0
DWIDTH 10 0
BBX 8 5 1 14
BITMAP
81
C2
66
3C
18
ENDCHAR
STARTCHAR 02C9
ENCODING 713
SWIDTH 481 0
DWIDTH 13 0
BBX 9 1 2 16
BITMAP
FF80
ENDCHAR
STARTCHAR 02CA
ENCODING 714
SWIDTH 185 0
DWIDTH 5 0
BBX 5 6 0 14
BITMAP
18
38
30
60
40
80
ENDCHAR
STARTCHAR 02CB
ENCODING 715
SWIDTH 185 0
DWIDTH 5 0
BBX 5 6 0 14
BITMAP
C0
60
70
30
18
08
ENDCHAR
STARTCHAR 02CD
ENCODING 717
SWIDTH 481 0
DWIDTH 13 0
BBX 9 1 2 -2
BITMAP
FF80
ENDCHAR
STARTCHAR 02D7
ENCODING 727
SWIDTH 333 0
DWIDTH 9 0
BBX 7 1 1 6
BITMAP
FE
ENDCHAR
STARTCHAR 02D8
ENCODING 728
SWIDTH 370 0
DWIDTH 10 0
BBX 8 5 1 14
BITMAP
81
81
82
46
3C
ENDCHAR
STARTCHAR 02D9
ENCODING 729
SWIDTH 185 0
DWIDTH 5 0
BBX 2 3 2 15
BITMAP
C0
C0
C0
ENDCHAR
STARTCHAR 02DA
ENCODING 730
SWIDTH 259 0
DWIDTH 7 0
BBX 5 5 1 14
BITMAP
70
D8
D8
D8
70
ENDCHAR
STARTCHAR 02DB
ENCODING 731
SWIDTH 259 0
DWIDTH 7 0
BBX 5 7 1 -6
BITMAP
08
30
60
C0
C0
C8
70
ENDCHAR
STARTCHAR 02DC
ENCODING 732
SWIDTH 407 0
DWIDTH 11 0
BBX 9 3 1 15
BITMAP
3080
7900
8E00
ENDCHAR
STARTCHAR 02DD
ENCODING 733
SWIDTH 370 0
DWIDTH 10 0
BBX 8 6 1 14
BITMAP
33
33
66
64
4C
88
ENDCHAR
STARTCHAR 0300
ENCODING 768
SWIDTH 0 0
DWIDTH 0 0
BBX 6 6 -10 14
BITMAP
60
E0
30
18
08
04
ENDCHAR
STARTCHAR 0301
ENCODING 769
SWIDTH 0 0
DWIDTH 0 0
BBX 5 6 -8 14
BITMAP
38
30
60
60
C0
80
ENDCHAR
STARTCHAR 0302
ENCODING 770
SWIDTH 0 0
DWIDTH 0 0
BBX 8 5 -11 14
BITMAP
18
3C
26
43
81
ENDCHAR
STARTCHAR 0303
ENCODING 771
SWIDTH 0 0
DWIDTH 0 0
BBX 9 3 -11 15
BITMAP
7080
F900
8E00
ENDCHAR
STARTCHAR 0304
ENCODING 772
SWIDTH 0 0
DWIDTH 0 0
BBX 9 1 -11 16
BITMAP
FF80
ENDCHAR
STARTCHAR 0306
ENCODING 774
SWIDTH 0 0
DWIDTH 0 0
BBX 9 5 -11 14
BITMAP
8100
8180
4100
6200
3C00
ENDCHAR
STARTCHAR 0307
ENCODING 775
SWIDTH 0 0
DWIDTH 0 0
BBX 2 3 -8 15
BITMAP
C0
C0
C0
ENDCHAR
STARTCHAR 0308
ENCODING 776
SWIDTH 0 0
DWIDTH 0 0
BBX 8 3 -11 15
BITMAP
C3
C3
C3
ENDCHAR
STARTCHAR 0309
ENCODING 777
SWIDTH 0 0
DWIDTH 0 0
BBX 4 5 -9 14
BITMAP
70
B0
20
C0
E0
ENDCHAR
STARTCHAR 030A
ENCODING 778
SWIDTH 0 0
DWIDTH 0 0
BBX 5 5 -9 14
BITMAP
70
D8
D8
D8
70
ENDCHAR
STARTCHAR 030B
ENCODING 779
SWIDTH 0 0
DWIDTH 0 0
BBX 8 6 -9 14
BITMAP
26
77
64
CC
88
90
ENDCHAR
STARTCHAR 030C
ENCODING 780
SWIDTH 0 0
DWIDTH 0 0
BBX 8 5 -11 14
BITMAP
81
43
26
3C
18
ENDCHAR
STARTCHAR 031B
ENCODING 795
SWIDTH 37 0
DWIDTH 1 0
BBX 5 6 -4 9
BITMAP
18
38
18
10
60
80
ENDCHAR
STARTCHAR 0323
ENCODING 803
SWIDTH 0 0
DWIDTH 0 0
BBX 2 3 -8 -5
BITMAP
C0
C0
C0
ENDCHAR
STARTCHAR 0327
ENCODING 807
SWIDTH 0 0
DWIDTH 0 0
BBX 5 6 -9 -6
BITMAP
30
20
38
58
10
E0
ENDCHAR
STARTCHAR 0328
ENCODING 808
SWIDTH 0 0
DWIDTH 0 0
BBX 5 7 -9 -6
BITMAP
08
30
60
C0
C0
C8
70
ENDCHAR
STARTCHAR 0331
ENCODING 817
SWIDTH 0 0
DWIDTH 0 0
BBX 9 1 -11 -4
BITMAP
FF80
ENDCHAR
STARTCHAR 033F
ENCODING 831
SWIDTH 0 0
DWIDTH 0 0
BBX 15 4 -14 16
BITMAP
7FFE
8000
0000
FFFE
ENDCHAR
STARTCHAR 035E
ENCODING 862
SWIDTH 0 0
DWIDTH 0 0
BBX 18 1 -9 22
BITMAP
FFFFC0
ENDCHAR
STARTCHAR 035F
ENCODING 863
SWIDTH 0 0
DWIDTH 0 0
BBX 18 1 -9 -9
BITMAP
FFFFC0
ENDCHAR
STARTCHAR 03A0
ENCODING 928
SWIDTH 629 0
DWIDTH 17 0
BBX 15 17 1 0
BITMAP
FFFE
3018
3018
3018
3018
3018
3018
3018
3018
3018
3018
3018
3018
3018
3018
3018
FC7E
ENDCHAR
STARTCHAR 03A9
ENCODING 937
SWIDTH 629 0
DWIDTH 17 0
BBX 14 17 1 0
BITMAP
07C0
1870
3038
6018
400C
C00C
C00C
C00C
C00C
C00C
E018
6018
7030
3060
9844
8C84
FCFC
ENDCHAR
STARTCHAR 03C0
ENCODING 960
SWIDTH 518 0
DWIDTH 14 0
BBX 15 12 -1 0
BITMAP
3FFE
7FF8
8C60
0C60
0C60
0C60
0C60
1C60
1C60
1C60
1C60
303E
ENDCHAR
STARTCHAR 1E02
ENCODING 7682
SWIDTH 555 0
DWIDTH 15 0
BBX 12 21 1 0
BITMAP
0600
0600
0400
0000
7F80
B0C0
3060
3060
3060
3040
3180
3FC0
30E0
3060
3030
3030
3030
3030
3060
30E0
FF80
ENDCHAR
STARTCHAR 1E03
ENCODING 7683
SWIDTH 518 0
DWIDTH 14 0
BBX 13 20 0 0
BITMAP
3000
F000
3100
3180
3100
3000
3000
3000
31E0
3670
3830
3038
3018
3018
3018
3018
3010
3030
3860
0F80
ENDCHAR
STARTCHAR 1E04
ENCODING 7684
SWIDTH 555 0
DWIDTH 15 0
BBX 12 22 1 -5
BITMAP
7F80
B0C0
3060
3060
3060
3040
3180
3FC0
30E0
3060
3030
3030
3030
3030
3060
30E0
FF80
0000
0000
0600
0600
0400
ENDCHAR
STARTCHAR 1E05
ENCODING 7685
SWIDTH 518 0
DWIDTH 14 0
BBX 13 25 0 -5
BITMAP
3000
F000
3000
3000
3000
3000
3000
3000
31E0
3670
3830
3038
3018
3018
3018
3018
3010
3030
3860
0F80
0000
0000
0600
0600
0600
ENDCHAR
STARTCHAR 1E06
ENCODING 7686
SWIDTH 555 0
DWIDTH 15 0
BBX 12 21 1 -4
BITMAP
7F80
B0C0
3060
3060
3060
3040
3180
3FC0
30E0
3060
3030
3030
3030
3030
3060
30E0
FF80
0000
0000
0000
7FC0
ENDCHAR
STARTCHAR 1E07
ENCODING 7687
SWIDTH 518 0
DWIDTH 14 0
BBX 13 24 0 -4
BITMAP
3000
F000
3000
3000
3000
3000
3000
3000
31E0
3670
3830
3038
3018
3018
3018
3018
3010
3030
3860
0F80
0000
0000
0000
3FE0
ENDCHAR
STARTCHAR 1E08
ENCODING 7688
SWIDTH 518 0
DWIDTH 14 0
BBX 12 29 1 -6
BITMAP
0060
00F0
01C0
0300
0400
0000
07E0
1870
3000
2000
6000
4000
C000
C000
C000
C000
C000
C000
E000
6020
7020
3DC0
1F80
0400
0400
0700
0300
0200
1C00
ENDCHAR
STARTCHAR 1E09
ENCODING 7689
SWIDTH 444 0
DWIDTH 12 0
BBX 10 26 1 -6
BITMAP
0180
0380
0300
0600
0400
0800
0000
0000
0FC0
30C0
6080
4000
C000
C000
C000
C000
E000
6040
78C0
3F00
0400
0400
0700
0300
0200
1C00
ENDCHAR
STARTCHAR 1E0A
ENCODING 7690
SWIDTH 592 0
DWIDTH 16 0
BBX 14 21 1 0
BITMAP
0600
0600
0400
0000
7F80
B0E0
3030
3018
3018
300C
300C
300C
300C
300C
300C
300C
3018
3018
3030
3060
FF80
ENDCHAR
STARTCHAR 1E0B
ENCODING 7691
SWIDTH 518 0
DWIDTH 14 0
BBX 13 20 1 0
BITMAP
0060
01E0
1060
3060
3060
0060
0060
0060
0FE0
30E0
6060
4060
C060
C060
C060
C060
C060
60E0
3178
1E60
ENDCHAR
STARTCHAR 1E0C
ENCODING 7692
SWIDTH 592 0
DWIDTH 16 0
BBX 14 22 1 -5
BITMAP
7F80
B0E0
3030
3018
3018
300C
300C
300C
300C
300C
300C
300C
3018
3018
3030
3060
FF80
0000
0000
0600
0600
0600
ENDCHAR
STARTCHAR 1E0D
ENCODING 7693
SWIDTH 518 0
DWIDTH 14 0
BBX 13 25 1 -5
BITMAP
0060
01E0
0060
0060
0060
0060
0060
0060
0FE0
30E0
6060
4060
C060
C060
C060
C060
C060
60E0
3178
1E60
0000
0000
0600
0600
0400
ENDCHAR
STARTCHAR 1E0E
ENCODING 7694
SWIDTH 592 0
DWIDTH 16 0
BBX 14 21 1 -4
BITMAP
7F80
B0E0
3030
3018
3018
300C
300C
300C
300C
300C
300C
300C
3018
3018
3030
3060
FF80
0000
0000
0000
3FE0
ENDCHAR
STARTCHAR 1E0F
ENCODING 7695
SWIDTH 518 0
DWIDTH 14 0
BBX 13 24 1 -4
BITMAP
0060
01E0
0060
0060
0060
0060
0060
0060
0FE0
30E0
6060
4060
C060
C060
C060
C060
C060
60E0
3178
1E60
0000
0000
0000
7FC0
ENDCHAR
STARTCHAR 1E14
ENCODING 7700
SWIDTH 481 0
DWIDTH 13 0
BBX 12 27 1 0
BITMAP
7000
3800
0C00
0600
0300
0000
7FC0
0000
0000
0000
FFE0
3020
3020
3000
3000
3000
3000
3FC0
3080
3000
3000
3000
3000
3000
3010
3030
FFE0
ENDCHAR
STARTCHAR 1E15
ENCODING 7701
SWIDTH 444 0
DWIDTH 12 0
BBX 10 25 1 0
BITMAP
3000
3800
1800
0C00
0400
0200
0000
0000
3FC0
4000
0000
0000
0000
0F00
3180
60C0
40C0
FFC0
C000
C000
C000
E000
6040
3080
1F00
ENDCHAR
STARTCHAR 1E16
ENCODING 7702
SWIDTH 481 0
DWIDTH 13 0
BBX 12 27 1 0
BITMAP
01C0
03C0
0700
0C00
1000
0000
7FC0
0000
0000
0000
FFE0
3020
3020
3000
3000
3000
3000
3FC0
3080
3000
3000
3000
3000
3000
3010
3030
FFE0
ENDCHAR
STARTCHAR 1E17
ENCODING 7703
SWIDTH 444 0
DWIDTH 12 0
BBX 10 25 1 0
BITMAP
0180
01C0
0300
0300
0600
0400
0800
0000
3FC0
4000
0000
0000
0000
0F00
3180
60C0
40C0
FFC0
C000
C000
C000
E000
6040
3080
1F00
ENDCHAR
STARTCHAR 1E1C
ENCODING 7708
SWIDTH 481 0
DWIDTH 13 0
BBX 11 29 1 -6
BITMAP
4040
2080
3180
0F00
0000
0000
FFE0
3020
3020
3000
3000
3000
3000
3FC0
3080
3000
3000
3000
3000
3000
3020
3040
FFC0
0800
0800
0E00
0600
0600
0800
ENDCHAR
STARTCHAR 1E1D
ENCODING 7709
SWIDTH 444 0
DWIDTH 12 0
BBX 11 25 1 -6
BITMAP
4040
2040
2080
1180
0F00
0000
0000
0F00
3180
60C0
40C0
FFC0
C000
C000
C000
E000
6040
70E0
1F00
0400
0600
0F00
0300
0600
1C00
ENDCHAR
STARTCHAR 1E1E
ENCODING 7710
SWIDTH 481 0
DWIDTH 13 0
BBX 11 21 1 0
BITMAP
0C00
0C00
0800
0000
FFE0
3020
3020
3000
3000
3000
3000
3F80
3100
3000
3000
3000
3000
3000
3000
3000
FC00
ENDCHAR
STARTCHAR 1E1F
ENCODING 7711
SWIDTH 296 0
DWIDTH 8 0
BBX 10 25 1 0
BITMAP
0800
1800
1800
0000
0000
03C0
0C80
1800
1000
3000
3000
3000
3000
FF00
3000
3000
3000
3000
3000
3000
3000
3000
3000
3000
FE00
ENDCHAR
STARTCHAR 1E20
ENCODING 7712
SWIDTH 592 0
DWIDTH 16 0
BBX 14 21 1 0
BITMAP
1FF0
0000
0000
0000
03F0
0C38
1000
2000
6000
4000
C000
C000
C000
C0FC
C018
C018
6018
6018
3018
1818
07E0
ENDCHAR
STARTCHAR 1E21
ENCODING 7713
SWIDTH 481 0
DWIDTH 13 0
BBX 13 23 0 -6
BITMAP
3FE0
0000
0000
0000
0000
0F18
30F0
2060
6060
6060
6060
38C0
1F00
1800
3800
3F80
1FF0
3078
C018
C018
C010
7060
1F80
ENDCHAR
STARTCHAR 1E22
ENCODING 7714
SWIDTH 666 0
DWIDTH 18 0
BBX 16 21 1 0
BITMAP
0100
0300
0100
0000
FC3F
300C
300C
300C
300C
300C
300C
300C
3FFC
300C
300C
300C
300C
300C
300C
300C
FC3F
ENDCHAR
STARTCHAR 1E23
ENCODING 7715
SWIDTH 555 0
DWIDTH 15 0
BBX 14 25 1 0
BITMAP
0200
0600
0600
0000
0000
3000
F000
3000
3000
3000
3000
3000
3000
31E0
3230
3430
3830
3030
3030
3030
3030
3030
3030
3030
FCFC
ENDCHAR
STARTCHAR 1E24
ENCODING 7716
SWIDTH 666 0
DWIDTH 18 0
BBX 16 22 1 -5
BITMAP
FC3F
300C
300C
300C
300C
300C
300C
300C
3FFC
300C
300C
300C
300C
300C
300C
300C
FC3F
0000
0000
0100
0300
0100
ENDCHAR
STARTCHAR 1E25
ENCODING 7717
SWIDTH 555 0
DWIDTH 15 0
BBX 14 25 1 -5
BITMAP
3000
F000
3000
3000
3000
3000
3000
3000
31E0
3230
3430
3830
3030
3030
3030
3030
3030
3030
3030
FCFC
0000
0000
0200
0600
0200
ENDCHAR
STARTCHAR 1E26
ENCODING 7718
SWIDTH 666 0
DWIDTH 18 0
BBX 16 21 1 0
BITMAP
0820
1860
0820
0000
FC3F
300C
300C
300C
300C
300C
300C
300C
3FFC
300C
300C
300C
300C
300C
300C
300C
FC3F
ENDCHAR
STARTCHAR 1E27
ENCODING 7719
SWIDTH 555 0
DWIDTH 15 0
BBX 14 25 1 0
BITMAP
1040
30C0
30C0
0000
0000
3000
F000
3000
3000
3000
3000
3000
3000
31E0
3230
3430
3830
3030
3030
3030
3030
3030
3030
3030
FCFC
ENDCHAR
STARTCHAR 1E2E
ENCODING 7726
SWIDTH 296 0
DWIDTH 8 0
BBX 8 27 0 0
BITMAP
03
0F
1C
30
40
00
C3
C3
82
00
7E
18
18
18
18
18
18
18
18
18
18
18
18
18
18
18
7E
ENDCHAR
STARTCHAR 1E2F
ENCODING 7727
SWIDTH 259 0
DWIDTH 7 0
BBX 8 25 0 0
BITMAP
06
07
0E
0C
18
10
20
82
C3
82
00
00
00
18
78
18
18
18
18
18
18
18
18
18
7E
ENDCHAR
STARTCHAR 1E30
ENCODING 7728
SWIDTH 592 0
DWIDTH 16 0
BBX 15 23 1 0
BITMAP
0060
00E0
0380
0600
0C00
0000
FCFC
3030
3060
30C0
3180
3300
3600
3400
3E00
3600
3300
3180
31C0
30E0
3070
3038
FC1E
ENDCHAR
STARTCHAR 1E31
ENCODING 7729
SWIDTH 518 0
DWIDTH 14 0
BBX 13 27 1 0
BITMAP
0080
00C0
01E0
0700
0C00
0000
0000
3000
F000
3000
3000
3000
3000
3000
3000
31F0
30C0
3180
3300
3400
3C00
3600
3300
3180
30C0
30E0
F878
ENDCHAR
STARTCHAR 1E32
ENCODING 7730
SWIDTH 592 0
DWIDTH 16 0
BBX 15 22 1 -5
BITMAP
FCFC
3030
3060
30C0
3180
3300
3600
3400
3E00
3600
3300
3180
31C0
30E0
3070
3038
FC1E
0000
0000
0300
0300
0300
ENDCHAR
STARTCHAR 1E33
ENCODING 7731
SWIDTH 518 0
DWIDTH 14 0
BBX 13 25 1 -5
BITMAP
3000
F000
3000
3000
3000
3000
3000
3000
31F0
30C0
3180
3300
3400
3C00
3600
3300
3180
30C0
30E0
F878
0000
0000
0600
0600
0600
ENDCHAR
STARTCHAR 1E34
ENCODING 7732
SWIDTH 592 0
DWIDTH 16 0
BBX 15 21 1 -4
BITMAP
FCFC
3030
3060
30C0
3180
3300
3600
3400
3E00
3600
3300
3180
31C0
30E0
3070
3038
FC1E
0000
0000
0000
1FF0
ENDCHAR
STARTCHAR 1E35
ENCODING 7733
SWIDTH 518 0
DWIDTH 14 0
BBX 13 24 1 -4
BITMAP
3000
F000
3000
3000
3000
3000
3000
3000
31F0
30C0
3180
3300
3400
3C00
3600
3300
3180
30C0
30E0
F878
0000
0000
0000
3FE0
ENDCHAR
STARTCHAR 1E36
ENCODING 7734
SWIDTH 481 0
DWIDTH 13 0
BBX 12 22 1 -5
BITMAP
FC00
3000
3000
3000
3000
3000
3000
3000
3000
3000
3000
3000
3000
3000
3010
3030
FFE0
0000
0000
0400
0C00
0C00
ENDCHAR
STARTCHAR 1E37
ENCODING 7735
SWIDTH 259 0
DWIDTH 7 0
BBX 6 25 1 -5
BITMAP
30
F0
30
30
30
30
30
30
30
30
30
30
30
30
30
30
30
30
30
FC
00
00
20
30
20
ENDCHAR
STARTCHAR 1E38
ENCODING 7736
SWIDTH 481 0
DWIDTH 13 0
BBX 12 26 1 -5
BITMAP
7FC0
0000
0000
0000
FC00
3000
3000
3000
3000
3000
3000
3000
3000
3000
3000
3000
3000
3000
3010
3030
FFE0
0000
0000
0400
0C00
0C00
ENDCHAR
STARTCHAR 1E39
ENCODING 7737
SWIDTH 259 0
DWIDTH 7 0
BBX 9 30 -1 -5
BITMAP
FF80
0000
0000
0000
0000
0C00
3C00
0C00
0C00
0C00
0C00
0C00
0C00
0C00
0C00
0C00
0C00
0C00
0C00
0C00
0C00
0C00
0C00
0C00
3F00
0000
0000
0800
0C00
0800
ENDCHAR
STARTCHAR 1E3A
ENCODING 7738
SWIDTH 481 0
DWIDTH 13 0
BBX 12 21 1 -4
BITMAP
FC00
3000
3000
3000
3000
3000
3000
3000
3000
3000
3000
3000
3000
3000
3010
3030
FFE0
0000
0000
0000
7FC0
ENDCHAR
STARTCHAR 1E3B
ENCODING 7739
SWIDTH 259 0
DWIDTH 7 0
BBX 9 24 -1 -4
BITMAP
0C00
3C00
0C00
0C00
0C00
0C00
0C00
0C00
0C00
0C00
0C00
0C00
0C00
0C00
0C00
0C00
0C00
0C00
0C00
3F00
0000
0000
0000
FF80
ENDCHAR
STARTCHAR 1E3E
ENCODING 7742
SWIDTH 814 0
DWIDTH 22 0
BBX 20 23 1 0
BITMAP
000C00
003C00
007000
00C000
018000
000000
F001E0
3801C0
3803C0
2C02C0
2C06C0
2C06C0
2604C0
260CC0
2308C0
2318C0
2398C0
2190C0
21B0C0
20E0C0
20E0C0
2040C0
F843F0
ENDCHAR
STARTCHAR 1E3F
ENCODING 7743
SWIDTH 814 0
DWIDTH 22 0
BBX 20 20 1 0
BITMAP
001C00
001800
003800
003000
006000
004000
000000
000000
71C380
B66CC0
3870C0
3870C0
3060C0
3060C0
3060C0
3060C0
3060C0
3060C0
3060C0
FDFBF0
ENDCHAR
STARTCHAR 1E40
ENCODING 7744
SWIDTH 814 0
DWIDTH 22 0
BBX 20 21 1 0
BITMAP
004000
006000
004000
000000
F001E0
3801C0
3803C0
2C02C0
2C06C0
2C06C0
2604C0
260CC0
2308C0
2318C0
2398C0
2190C0
21B0C0
20E0C0
20E0C0
2040C0
F843F0
ENDCHAR
STARTCHAR 1E41
ENCODING 7745
SWIDTH 814 0
DWIDTH 22 0
BBX 20 18 1 0
BITMAP
006000
006000
004000
000000
000000
000000
71C380
B66CC0
3870C0
3870C0
3060C0
3060C0
3060C0
3060C0
3060C0
3060C0
3060C0
FDFBF0
ENDCHAR
STARTCHAR 1E42
ENCODING 7746
SWIDTH 814 0
DWIDTH 22 0
BBX 20 22 1 -5
BITMAP
F001E0
3801C0
3803C0
2C02C0
2C06C0
2C06C0
2604C0
260CC0
2308C0
2318C0
2398C0
2190C0
21B0C0
20E0C0
20E0C0
2040C0
F843F0
000000
000000
004000
006000
004000
ENDCHAR
STARTCHAR 1E43
ENCODING 7747
SWIDTH 814 0
DWIDTH 22 0
BBX 20 17 1 -5
BITMAP
71C380
B66CC0
3870C0
3870C0
3060C0
3060C0
3060C0
3060C0
3060C0
3060C0
3060C0
FDFBF0
000000
000000
006000
006000
004000
ENDCHAR
STARTCHAR 1E44
ENCODING 7748
SWIDTH 666 0
DWIDTH 18 0
BBX 16 21 1 0
BITMAP
0180
0180
0100
0000
F03F
300C
380C
3C0C
340C
360C
330C
330C
318C
30CC
30CC
306C
303C
303C
301C
301C
FC0C
ENDCHAR
STARTCHAR 1E45
ENCODING 7749
SWIDTH 555 0
DWIDTH 15 0
BBX 14 18 1 0
BITMAP
0200
0600
0200
0000
0000
0000
71E0
B230
3430
3830
3030
3030
3030
3030
3030
3030
3030
FCFC
ENDCHAR
STARTCHAR 1E46
ENCODING 7750
SWIDTH 666 0
DWIDTH 18 0
BBX 16 22 1 -5
BITMAP
F03F
300C
380C
3C0C
340C
360C
330C
330C
318C
30CC
30CC
306C
303C
303C
301C
301C
FC0C
0000
0000
0100
0180
0100
ENDCHAR
STARTCHAR 1E47
ENCODING 7751
SWIDTH 555 0
DWIDTH 15 0
BBX 14 17 1 -5
BITMAP
71E0
B230
3430
3830
3030
3030
3030
3030
3030
3030
3030
FCFC
0000
0000
0200
0600
0200
ENDCHAR
STARTCHAR 1E48
ENCODING 7752
SWIDTH 666 0
DWIDTH 18 0
BBX 16 21 1 -4
BITMAP
F03F
300C
380C
3C0C
340C
360C
330C
330C
318C
30CC
30CC
306C
303C
303C
301C
301C
FC0C
0000
0000
0000
1FF0
ENDCHAR
STARTCHAR 1E49
ENCODING 7753
SWIDTH 555 0
DWIDTH 15 0
BBX 14 16 1 -4
BITMAP
71E0
B230
3430
3830
3030
3030
3030
3030
3030
3030
3030
FCFC
0000
0000
0000
3FE0
ENDCHAR
STARTCHAR 1E4C
ENCODING 7756
SWIDTH 592 0
DWIDTH 16 0
BBX 14 27 1 0
BITMAP
0060
00F0
0380
0600
0800
0020
0F30
13E0
2080
0000
07C0
1860
3030
6018
6018
400C
C00C
C00C
C00C
C00C
C00C
C008
6018
6010
3030
1860
0F80
ENDCHAR
STARTCHAR 1E4D
ENCODING 7757
SWIDTH 518 0
DWIDTH 14 0
BBX 12 25 1 0
BITMAP
0080
01C0
0180
0300
0600
0400
0000
1C60
3E40
2380
0000
0000
0000
0F80
30C0
6060
4070
C030
C030
C030
C030
E020
6060
30C0
1F00
ENDCHAR
STARTCHAR 1E4E
ENCODING 7758
SWIDTH 592 0
DWIDTH 16 0
BBX 14 25 1 0
BITMAP
1860
1860
1040
0020
0F30
13E0
2080
0000
07C0
1860
3030
6018
6018
400C
C00C
C00C
C00C
C00C
C00C
C008
6018
6010
3030
1860
0F80
ENDCHAR
STARTCHAR 1E4F
ENCODING 7759
SWIDTH 518 0
DWIDTH 14 0
BBX 12 23 1 0
BITMAP
30C0
30C0
30C0
0000
0000
1C60
3E40
2380
0000
0000
0000
0F80
30C0
6060
4070
C030
C030
C030
C030
E020
6060
30C0
1F00
ENDCHAR
STARTCHAR 1E50
ENCODING 7760
SWIDTH 592 0
DWIDTH 16 0
BBX 14 27 1 0
BITMAP
1800
1E00
0700
0180
0080
0000
1FF0
0000
0000
0000
07C0
1860
3030
6018
6018
400C
C00C
C00C
C00C
C00C
C00C
C008
6018
6010
3030
1860
0F80
ENDCHAR
STARTCHAR 1E51
ENCODING 7761
SWIDTH 518 0
DWIDTH 14 0
BBX 12 25 1 0
BITMAP
1800
3800
1C00
0C00
0600
0200
0100
0000
3FE0
0000
0000
0000
0000
0F80
30C0
6060
4070
C030
C030
C030
C030
E020
6060
30C0
1F00
ENDCHAR
STARTCHAR 1E52
ENCODING 7762
SWIDTH 592 0
DWIDTH 16 0
BBX 14 27 1 0
BITMAP
0060
00F0
0380
0600
0800
0000
1FF0
0000
0000
0000
07C0
1860
3030
6018
6018
400C
C00C
C00C
C00C
C00C
C00C
C008
6018
6010
3030
1860
0F80
ENDCHAR
STARTCHAR 1E53
ENCODING 7763
SWIDTH 518 0
DWIDTH 14 0
BBX 12 25 1 0
BITMAP
0080
01C0
0180
0300
0600
0400
0000
0000
3FE0
0000
0000
0000
0000
0F80
30C0
6060
4070
C030
C030
C030
C030
E020
6060
30C0
1F00
ENDCHAR
STARTCHAR 1E54
ENCODING 7764
SWIDTH 518 0
DWIDTH 14 0
BBX 12 23 1 0
BITMAP
00C0
03C0
0700
0C00
1800
0000
7F80
B0E0
3060
3030
3030
3030
3030
3060
30C0
3F80
3000
3000
3000
3000
3000
3000
FC00
ENDCHAR
STARTCHAR 1E55
ENCODING 7765
SWIDTH 518 0
DWIDTH 14 0
BBX 12 26 1 -6
BITMAP
01C0
0180
0380
0300
0600
0400
0000
0000
71C0
B6E0
3860
3030
3030
3030
3030
3030
3020
3060
3840
3780
3000
3000
3000
3000
3000
FC00
ENDCHAR
STARTCHAR 1E56
ENCODING 7766
SWIDTH 518 0
DWIDTH 14 0
BBX 12 21 1 0
BITMAP
0400
0600
0400
0000
7F80
B0E0
3060
3030
3030
3030
3030
3060
30C0
3F80
3000
3000
3000
3000
3000
3000
FC00
ENDCHAR
STARTCHAR 1E57
ENCODING 7767
SWIDTH 518 0
DWIDTH 14 0
BBX 12 24 1 -6
BITMAP
0600
0600
0400
0000
0000
0000
71C0
B6E0
3860
3030
3030
3030
3030
3030
3020
3060
3840
3780
3000
3000
3000
3000
3000
FC00
ENDCHAR
STARTCHAR 1E58
ENCODING 7768
SWIDTH 555 0
DWIDTH 15 0
BBX 14 21 1 0
BITMAP
0600
0600
0400
0000
7F00
B1C0
3060
3060
3060
3060
30C0
31C0
3F00
3300
3180
3180
30C0
30E0
3060
3070
FC3C
ENDCHAR
STARTCHAR 1E59
ENCODING 7769
SWIDTH 407 0
DWIDTH 11 0
BBX 10 18 1 0
BITMAP
0C00
0C00
0800
0000
0000
0000
33C0
F480
3880
3800
3000
3000
3000
3000
3000
3000
3000
FC00
ENDCHAR
STARTCHAR 1E5A
ENCODING 7770
SWIDTH 555 0
DWIDTH 15 0
BBX 14 22 1 -5
BITMAP
7F00
B1C0
3060
3060
3060
3060
30C0
31C0
3F00
3300
3180
3180
30C0
30E0
3060
3070
FC3C
0000
0000
0400
0600
0400
ENDCHAR
STARTCHAR 1E5B
ENCODING 7771
SWIDTH 407 0
DWIDTH 11 0
BBX 10 17 1 -5
BITMAP
33C0
F480
3880
3800
3000
3000
3000
3000
3000
3000
3000
FC00
0000
0000
2000
6000
6000
ENDCHAR
STARTCHAR 1E5C
ENCODING 7772
SWIDTH 555 0
DWIDTH 15 0
BBX 14 26 1 -5
BITMAP
3FC0
0000
0000
0000
7F00
B1C0
3060
3060
3060
3060
30C0
31C0
3F00
3300
3180
3180
30C0
30E0
3060
3070
FC3C
0000
0000
0400
0600
0400
ENDCHAR
STARTCHAR 1E5D
ENCODING 7773
SWIDTH 407 0
DWIDTH 11 0
BBX 10 22 1 -5
BITMAP
7FC0
0000
0000
0000
0000
33C0
F480
3880
3800
3000
3000
3000
3000
3000
3000
3000
FC00
0000
0000
2000
6000
6000
ENDCHAR
STARTCHAR 1E5E
ENCODING 7774
SWIDTH 555 0
DWIDTH 15 0
BBX 14 21 1 -4
BITMAP
7F00
B1C0
3060
3060
3060
3060
30C0
31C0
3F00
3300
3180
3180
30C0
30E0
3060
3070
FC3C
0000
0000
0000
7FC0
ENDCHAR
STARTCHAR 1E5F
ENCODING 7775
SWIDTH 407 0
DWIDTH 11 0
BBX 12 16 -1 -4
BITMAP
0CF0
3D20
0E20
0E00
0C00
0C00
0C00
0C00
0C00
0C00
0C00
3F00
0000
0000
0000
FF80
ENDCHAR
STARTCHAR 1E60
ENCODING 7776
SWIDTH 481 0
DWIDTH 13 0
BBX 10 21 2 0
BITMAP
0800
1800
0800
0000
1F00
6380
C100
C000
E000
F000
7C00
7E00
1F80
0780
01C0
00C0
00C0
80C0
8080
C100
7E00
ENDCHAR
STARTCHAR 1E61
ENCODING 7777
SWIDTH 370 0
DWIDTH 10 0
BBX 8 18 1 0
BITMAP
18
18
18
00
00
00
3E
46
C2
E0
F0
7C
1E
07
83
83
C6
7C
ENDCHAR
STARTCHAR 1E62
ENCODING 7778
SWIDTH 481 0
DWIDTH 13 0
BBX 10 22 2 -5
BITMAP
1F00
6380
C100
C000
E000
F000
7C00
7E00
1F80
0780
01C0
00C0
00C0
80C0
8080
C100
7E00
0000
0000
0800
1800
1800
ENDCHAR
STARTCHAR 1E63
ENCODING 7779
SWIDTH 370 0
DWIDTH 10 0
BBX 8 17 1 -5
BITMAP
3E
46
C2
E0
F0
7C
1E
07
83
83
C6
7C
00
00
18
18
18
ENDCHAR
STARTCHAR 1E64
ENCODING 7780
SWIDTH 481 0
DWIDTH 13 0
BBX 10 25 2 0
BITMAP
0800
1800
1180
0780
0E00
1800
2000
0000
1F00
6380
C100
C000
E000
F000
7C00
7E00
1F80
0780
01C0
00C0
00C0
80C0
8080
C100
7E00
ENDCHAR
STARTCHAR 1E65
ENCODING 7781
SWIDTH 370 0
DWIDTH 10 0
BBX 8 23 1 0
BITMAP
08
18
18
03
07
06
0C
08
10
00
00
3E
46
C2
E0
F0
7C
1E
07
83
83
C6
7C
ENDCHAR
STARTCHAR 1E66
ENCODING 7782
SWIDTH 481 0
DWIDTH 13 0
BBX 10 25 2 0
BITMAP
0800
1800
D180
6300
3E00
1C00
0C00
0000
1F00
6380
C100
C000
E000
F000
7C00
7E00
1F80
0780
01C0
00C0
00C0
80C0
8080
C100
7E00
ENDCHAR
STARTCHAR 1E67
ENCODING 7783
SWIDTH 370 0
DWIDTH 10 0
BBX 8 22 1 0
BITMAP
18
18
10
81
43
26
3C
18
00
00
3E
46
C2
E0
F0
7C
1E
07
83
83
C6
7C
ENDCHAR
STARTCHAR 1E68
ENCODING 7784
SWIDTH 481 0
DWIDTH 13 0
BBX 10 26 2 -5
BITMAP
0800
1800
0800
0000
1F00
6380
C100
C000
E000
F000
7C00
7E00
1F80
0780
01C0
00C0
00C0
80C0
8080
C100
7E00
0000
0000
0800
1800
1800
ENDCHAR
STARTCHAR 1E69
ENCODING 7785
SWIDTH 370 0
DWIDTH 10 0
BBX 8 23 1 -5
BITMAP
18
18
18
00
00
00
3E
46
C2
E0
F0
7C
1E
07
83
83
C6
7C
00
00
18
18
18
ENDCHAR
STARTCHAR 1E6A
ENCODING 7786
SWIDTH 555 0
DWIDTH 15 0
BBX 14 21 0 0
BITMAP
0300
0300
0200
0000
FFFC
8304
8304
0300
0300
0300
0300
0300
0300
0300
0300
0300
0300
0300
0300
0300
0FC0
ENDCHAR
STARTCHAR 1E6B
ENCODING 7787
SWIDTH 333 0
DWIDTH 9 0
BBX 9 22 0 0
BITMAP
0800
1800
1800
0000
0000
1000
3000
3000
3000
3000
FF80
3000
3000
3000
3000
3000
3000
3000
3000
3000
3100
1E80
ENDCHAR
STARTCHAR 1E6C
ENCODING 7788
SWIDTH 555 0
DWIDTH 15 0
BBX 14 22 0 -5
BITMAP
FFFC
8304
8304
0300
0300
0300
0300
0300
0300
0300
0300
0300
0300
0300
0300
0300
0FC0
0000
0000
0300
0300
0300
ENDCHAR
STARTCHAR 1E6D
ENCODING 7789
SWIDTH 333 0
DWIDTH 9 0
BBX 9 22 0 -5
BITMAP
1000
3000
3000
3000
3000
FF80
3000
3000
3000
3000
3000
3000
3000
3000
3000
3100
1E80
0000
0000
0800
1800
1800
ENDCHAR
STARTCHAR 1E6E
ENCODING 7790
SWIDTH 555 0
DWIDTH 15 0
BBX 14 21 0 -4
BITMAP
FFFC
8304
8304
0300
0300
0300
0300
0300
0300
0300
0300
0300
0300
0300
0300
0300
0FC0
0000
0000
0000
1FF0
ENDCHAR
STARTCHAR 1E6F
ENCODING 7791
SWIDTH 333 0
DWIDTH 9 0
BBX 9 21 0 -4
BITMAP
1000
3000
3000
3000
3000
FF80
3000
3000
3000
3000
3000
3000
3000
3000
3000
3100
1E80
0000
0000
0000
FF80
ENDCHAR
STARTCHAR 1E78
ENCODING 7800
SWIDTH 666 0
DWIDTH 18 0
BBX 16 27 1 0
BITMAP
0030
00F0
01C0
0300
0400
0010
07B0
09E0
1040
0000
FC3F
300C
300C
300C
300C
300C
300C
300C
300C
300C
300C
300C
300C
3018
1818
0C30
07E0
ENDCHAR
STARTCHAR 1E79
ENCODING 7801
SWIDTH 518 0
DWIDTH 14 0
BBX 14 25 0 0
BITMAP
0060
00E0
00C0
0180
0100
0200
0000
0E10
1F20
11C0
0000
0000
0000
3030
F0F0
3030
3030
3030
3030
3030
3030
3030
3070
38BC
1F30
ENDCHAR
STARTCHAR 1E7A
ENCODING 7802
SWIDTH 666 0
DWIDTH 18 0
BBX 16 25 1 0
BITMAP
0C30
0C30
0820
0000
0FF8
0000
0000
0000
FC3F
300C
300C
300C
300C
300C
300C
300C
300C
300C
300C
300C
300C
3018
1818
0C30
07E0
ENDCHAR
STARTCHAR 1E7B
ENCODING 7803
SWIDTH 518 0
DWIDTH 14 0
BBX 14 23 0 0
BITMAP
0820
1860
1860
0000
0000
0000
1FF0
0000
0000
0000
0000
3030
F0F0
3030
3030
3030
3030
3030
3030
3030
3070
38BC
1F30
ENDCHAR
STARTCHAR 1E7C
ENCODING 7804
SWIDTH 666 0
DWIDTH 18 0
BBX 17 22 0 0
BITMAP
000800
03D800
04F000
086000
000000
FC0F80
300600
180600
180400
180C00
0C0C00
0C0800
0E1800
061800
061000
033000
032000
036000
01E000
01C000
01C000
008000
ENDCHAR
STARTCHAR 1E7D
ENCODING 7805
SWIDTH 481 0
DWIDTH 13 0
BBX 13 18 0 0
BITMAP
0E30
1F20
11C0
0000
0000
0000
F878
3030
3020
1860
1840
1C40
0CC0
0C80
0780
0700
0700
0200
ENDCHAR
STARTCHAR 1E7E
ENCODING 7806
SWIDTH 666 0
DWIDTH 18 0
BBX 17 22 0 -5
BITMAP
FC0F80
300600
180600
180400
180C00
0C0C00
0C0800
0E1800
061800
061000
033000
032000
036000
01E000
01C000
01C000
008000
000000
000000
008000
018000
008000
ENDCHAR
STARTCHAR 1E7F
ENCODING 7807
SWIDTH 481 0
DWIDTH 13 0
BBX 13 17 0 -5
BITMAP
F878
3030
3020
1860
1840
1C40
0CC0
0C80
0780
0700
0700
0200
0000
0000
0200
0300
0200
ENDCHAR
STARTCHAR 1E80
ENCODING 7808
SWIDTH 851 0
DWIDTH 23 0
BBX 22 23 0 0
BITMAP
018000
01E000
007000
001800
000C00
000000
FC107C
301010
303810
183830
183830
186C30
186C20
184C20
0CC660
0CC660
0C8660
0D8340
078340
0703C0
0701C0
0701C0
060180
ENDCHAR
STARTCHAR 1E81
ENCODING 7809
SWIDTH 703 0
DWIDTH 19 0
BBX 19 20 0 0
BITMAP
038000
018000
01C000
00C000
006000
002000
000000
000000
F863E0
306080
306080
30F180
18B180
19B100
199900
0D1B00
0F1A00
0E0E00
060E00
040400
ENDCHAR
STARTCHAR 1E82
ENCODING 7810
SWIDTH 851 0
DWIDTH 23 0
BBX 22 23 0 0
BITMAP
000600
000F00
001C00
003000
004000
000000
FC107C
301010
303810
183830
183830
186C30
186C20
184C20
0CC660
0CC660
0C8660
0D8340
078340
0703C0
0701C0
0701C0
060180
ENDCHAR
STARTCHAR 1E83
ENCODING 7811
SWIDTH 703 0
DWIDTH 19 0
BBX 19 20 0 0
BITMAP
001C00
001800
003000
003000
006000
004000
000000
000000
F863E0
306080
306080
30F180
18B180
19B100
199900
0D1B00
0F1A00
0E0E00
060E00
040400
ENDCHAR
STARTCHAR 1E84
ENCODING 7812
SWIDTH 851 0
DWIDTH 23 0
BBX 22 21 0 0
BITMAP
018600
018600
018600
000000
FC107C
301010
303810
183830
183830
186C30
186C20
184C20
0CC660
0CC660
0C8660
0D8340
078340
0703C0
0701C0
0701C0
060180
ENDCHAR
STARTCHAR 1E85
ENCODING 7813
SWIDTH 703 0
DWIDTH 19 0
BBX 19 18 0 0
BITMAP
030C00
030C00
020800
000000
000000
000000
F863E0
306080
306080
30F180
18B180
19B100
199900
0D1B00
0F1A00
0E0E00
060E00
040400
ENDCHAR
STARTCHAR 1E86
ENCODING 7814
SWIDTH 851 0
DWIDTH 23 0
BBX 22 21 0 0
BITMAP
003000
003000
003000
000000
FC107C
301010
303810
183830
183830
186C30
186C20
184C20
0CC660
0CC660
0C8660
0D8340
078340
0703C0
0701C0
0701C0
060180
ENDCHAR
STARTCHAR 1E87
ENCODING 7815
SWIDTH 703 0
DWIDTH 19 0
BBX 19 18 0 0
BITMAP
006000
006000
004000
000000
000000
000000
F863E0
306080
306080
30F180
18B180
19B100
199900
0D1B00
0F1A00
0E0E00
060E00
040400
ENDCHAR
STARTCHAR 1E88
ENCODING 7816
SWIDTH 851 0
DWIDTH 23 0
BBX 22 22 0 -5
BITMAP
FC107C
301010
303810
183830
183830
186C30
186C20
184C20
0CC660
0CC660
0C8660
0D8340
078340
0703C0
0701C0
0701C0
060180
000000
000000
003000
003000
003000
ENDCHAR
STARTCHAR 1E89
ENCODING 7817
SWIDTH 703 0
DWIDTH 19 0
BBX 19 17 0 -5
BITMAP
F863E0
306080
306080
30F180
18B180
19B100
199900
0D1B00
0F1A00
0E0E00
060E00
040400
000000
000000
004000
00C000
004000
ENDCHAR
STARTCHAR 1E8A
ENCODING 7818
SWIDTH 629 0
DWIDTH 17 0
BBX 16 21 0 0
BITMAP
0180
0180
0180
0000
7C3F
381C
1818
0C30
0E30
0760
03C0
03C0
01C0
03C0
03E0
0670
0C30
0C18
181C
380E
FC3F
ENDCHAR
STARTCHAR 1E8B
ENCODING 7819
SWIDTH 518 0
DWIDTH 14 0
BBX 13 18 0 0
BITMAP
0200
0300
0200
0000
0000
0000
FCF8
3860
1840
0C80
0780
0700
0780
0D80
08C0
1060
3070
F8F8
ENDCHAR
STARTCHAR 1E8C
ENCODING 7820
SWIDTH 629 0
DWIDTH 17 0
BBX 16 21 0 0
BITMAP
0C30
0C30
0C30
0000
7C3F
381C
1818
0C30
0E30
0760
03C0
03C0
01C0
03C0
03E0
0670
0C30
0C18
181C
380E
FC3F
ENDCHAR
STARTCHAR 1E8D
ENCODING 7821
SWIDTH 518 0
DWIDTH 14 0
BBX 13 18 0 0
BITMAP
1040
1860
1040
0000
0000
0000
FCF8
3860
1840
0C80
0780
0700
0780
0D80
08C0
1060
3070
F8F8
ENDCHAR
STARTCHAR 1E8E
ENCODING 7822
SWIDTH 592 0
DWIDTH 16 0
BBX 15 21 0 0
BITMAP
0180
0180
0100
0000
F03E
380C
1818
1C18
0E30
0620
0760
03C0
03C0
0180
0180
0180
0180
0180
0180
0180
07E0
ENDCHAR
STARTCHAR 1E8F
ENCODING 7823
SWIDTH 481 0
DWIDTH 13 0
BBX 14 24 -1 -6
BITMAP
0180
0180
0100
0000
0000
0000
7C3C
1818
1810
0C30
0C20
0E20
0660
0640
03C0
0380
0380
0180
0100
0300
0200
0600
7C00
F000
ENDCHAR
STARTCHAR 1E90
ENCODING 7824
SWIDTH 518 0
DWIDTH 14 0
BBX 12 22 1 0
BITMAP
0700
0D80
10C0
2040
0000
7FF0
4060
40E0
80C0
01C0
0380
0300
0700
0600
0E00
1C00
1800
3800
3010
7010
E030
FFF0
ENDCHAR
STARTCHAR 1E91
ENCODING 7825
SWIDTH 444 0
DWIDTH 12 0
BBX 10 19 1 0
BITMAP
0C00
1E00
1300
2180
40C0
0000
0000
7FC0
4180
8380
0300
0600
0C00
1C00
1800
3000
7040
6040
FFC0
ENDCHAR
STARTCHAR 1E92
ENCODING 7826
SWIDTH 518 0
DWIDTH 14 0
BBX 12 22 1 -5
BITMAP
7FF0
4060
40E0
80C0
01C0
0380
0300
0700
0600
0E00
1C00
1800
3800
3010
7010
E030
FFF0
0000
0000
0600
0600
0600
ENDCHAR
STARTCHAR 1E93
ENCODING 7827
SWIDTH 444 0
DWIDTH 12 0
BBX 10 17 1 -5
BITMAP
7FC0
4180
8380
0300
0600
0C00
1C00
1800
3000
7040
6040
FFC0
0000
0000
0C00
0C00
0800
ENDCHAR
STARTCHAR 1E94
ENCODING 7828
SWIDTH 518 0
DWIDTH 14 0
BBX 12 21 1 -4
BITMAP
7FF0
4060
40E0
80C0
01C0
0380
0300
0700
0600
0E00
1C00
1800
3800
3010
7010
E030
FFF0
0000
0000
0000
3FE0
ENDCHAR
STARTCHAR 1E95
ENCODING 7829
SWIDTH 444 0
DWIDTH 12 0
BBX 10 16 1 -4
BITMAP
7FC0
4180
8380
0300
0600
0C00
1C00
1800
3000
7040
6040
FFC0
0000
0000
0000
FF80
ENDCHAR
STARTCHAR 1E96
ENCODING 7830
SWIDTH 555 0
DWIDTH 15 0
BBX 14 24 1 -4
BITMAP
3000
F000
3000
3000
3000
3000
3000
3000
31E0
3230
3430
3830
3030
3030
3030
3030
3030
3030
3030
FCFC
0000
0000
0000
3FE0
ENDCHAR
STARTCHAR 1E97
ENCODING 7831
SWIDTH 333 0
DWIDTH 9 0
BBX 9 22 0 0
BITMAP
4100
C300
C300
0000
0000
1000
3000
3000
3000
3000
FF80
3000
3000
3000
3000
3000
3000
3000
3000
3000
3100
1E80
ENDCHAR
STARTCHAR 1E98
ENCODING 7832
SWIDTH 703 0
DWIDTH 19 0
BBX 19 19 0 0
BITMAP
007000
00D800
00D800
00D000
00E000
000000
000000
F863E0
306080
306080
30F180
18B180
19B100
199900
0D1B00
0F1A00
0E0E00
060E00
040400
ENDCHAR
STARTCHAR 1E99
ENCODING 7833
SWIDTH 481 0
DWIDTH 13 0
BBX 14 25 -1 -6
BITMAP
01C0
0360
0360
0340
0380
0000
0000
7C3C
1818
1810
0C30
0C20
0E20
0660
0640
03C0
0380
0380
0180
0100
0300
0200
0600
7C00
F000
ENDCHAR
STARTCHAR 1EA0
ENCODING 7840
SWIDTH 592 0
DWIDTH 16 0
BBX 16 22 0 -5
BITMAP
0080
0180
0380
03C0
02C0
06C0
0660
0460
0C70
0C30
0FF0
1818
1818
1018
300C
300C
F83F
0000
0000
0180
0180
0100
ENDCHAR
STARTCHAR 1EA1
ENCODING 7841
SWIDTH 444 0
DWIDTH 12 0
BBX 11 17 1 -5
BITMAP
1F00
6180
E180
0180
0180
1F80
7980
E180
C180
C180
C780
79E0
0000
0000
0C00
0C00
0C00
ENDCHAR
STARTCHAR 1EA2
ENCODING 7842
SWIDTH 592 0
DWIDTH 16 0
BBX 16 23 0 0
BITMAP
01C0
02C0
0180
0300
0380
0000
0080
0180
0380
03C0
02C0
06C0
0660
0460
0C70
0C30
0FF0
1818
1818
1018
300C
300C
F83F
ENDCHAR
STARTCHAR 1EA3
ENCODING 7843
SWIDTH 444 0
DWIDTH 12 0
BBX 11 19 1 0
BITMAP
0E00
1600
0600
1C00
1C00
0000
0000
1F00
6180
E180
0180
0180
1F80
7980
E180
C180
C180
C780
79E0
ENDCHAR
STARTCHAR 1EA4
ENCODING 7844
SWIDTH 592 0
DWIDTH 16 0
BBX 16 29 0 0
BITMAP
0020
0070
00F0
01C0
0300
0400
0000
0380
06C0
0C20
0810
0000
0080
0180
0380
03C0
02C0
06C0
0660
0460
0C70
0C30
0FF0
1818
1818
1018
300C
300C
F83F
ENDCHAR
STARTCHAR 1EA5
ENCODING 7845
SWIDTH 444 0
DWIDTH 12 0
BBX 11 26 1 0
BITMAP
0180
0380
0300
0600
0400
0800
0000
0C00
1E00
1300
2180
40C0
0000
0000
1F00
6180
E180
0180
0180
1F80
7980
E180
C180
C180
C780
79E0
ENDCHAR
STARTCHAR 1EA6
ENCODING 7846
SWIDTH 592 0
DWIDTH 16 0
BBX 16 29 0 0
BITMAP
0800
0C00
1E00
0380
00C0
0040
0000
0380
06C0
0C20
0810
0000
0080
0180
0380
03C0
02C0
06C0
0660
0460
0C70
0C30
0FF0
1818
1818
1018
300C
300C
F83F
ENDCHAR
STARTCHAR 1EA7
ENCODING 7847
SWIDTH 444 0
DWIDTH 12 0
BBX 11 26 1 0
BITMAP
3000
7000
1800
0C00
0400
0200
0000
0C00
1E00
1300
2180
40C0
0000
0000
1F00
6180
E180
0180
0180
1F80
7980
E180
C180
C180
C780
79E0
ENDCHAR
STARTCHAR 1EA8
ENCODING 7848
SWIDTH 592 0
DWIDTH 16 0
BBX 16 29 0 0
BITMAP
0100
03C0
02C0
0180
0300
0280
0000
0380
06C0
0C20
0810
0000
0080
0180
0380
03C0
02C0
06C0
0660
0460
0C70
0C30
0FF0
1818
1818
1018
300C
300C
F83F
ENDCHAR
STARTCHAR 1EA9
ENCODING 7849
SWIDTH 444 0
DWIDTH 12 0
BBX 11 25 1 0
BITMAP
0E00
1600
0600
1C00
1C00
0000
0C00
1E00
1300
2180
40C0
0000
0000
1F00
6180
E180
0180
0180
1F80
7980
E180
C180
C180
C780
79E0
ENDCHAR
STARTCHAR 1EAA
ENCODING 7850
SWIDTH 592 0
DWIDTH 16 0
BBX 16 28 0 0
BITMAP
0010
0210
07F0
08E0
1080
0000
0380
06C0
0C20
0810
0000
0080
0180
0380
03C0
02C0
06C0
0660
0460
0C70
0C30
0FF0
1818
1818
1018
300C
300C
F83F
ENDCHAR
STARTCHAR 1EAB
ENCODING 7851
SWIDTH 444 0
DWIDTH 12 0
BBX 11 24 1 0
BITMAP
1840
3C80
4700
0000
0000
0C00
1E00
1300
2180
40C0
0000
0000
1F00
6180
E180
0180
0180
1F80
7980
E180
C180
C180
C780
79E0
ENDCHAR
STARTCHAR 1EAC
ENCODING 7852
SWIDTH 592 0
DWIDTH 16 0
BBX 16 27 0 -5
BITMAP
0380
06C0
0C20
0810
0000
0080
0180
0380
03C0
02C0
06C0
0660
0460
0C70
0C30
0FF0
1818
1818
1018
300C
300C
F83F
0000
0000
0180
0180
0100
ENDCHAR
STARTCHAR 1EAD
ENCODING 7853
SWIDTH 444 0
DWIDTH 12 0
BBX 11 24 1 -5
BITMAP
0C00
1E00
1300
2180
40C0
0000
0000
1F00
6180
E180
0180
0180
1F80
7980
E180
C180
C180
C780
79E0
0000
0000
0C00
0C00
0C00
ENDCHAR
STARTCHAR 1EAE
ENCODING 7854
SWIDTH 592 0
DWIDTH 16 0
BBX 16 27 0 0
BITMAP
0030
00F0
01C0
0300
0C10
0810
0C20
0660
0180
0000
0080
0180
0380
03C0
02C0
06C0
0660
0460
0C70
0C30
0FF0
1818
1818
1018
300C
300C
F83F
ENDCHAR
STARTCHAR 1EAF
ENCODING 7855
SWIDTH 444 0
DWIDTH 12 0
BBX 11 24 1 0
BITMAP
0180
0380
0300
0600
0C00
4880
40C0
2080
3100
0E00
0000
0000
1F00
6180
E180
0180
0180
1F80
7980
E180
C180
C180
C780
79E0
ENDCHAR
STARTCHAR 1EB0
ENCODING 7856
SWIDTH 592 0
DWIDTH 16 0
BBX 16 27 0 0
BITMAP
0C00
1E00
0380
00C0
0850
0810
0C20
0660
0180
0000
0080
0180
0380
03C0
02C0
06C0
0660
0460
0C70
0C30
0FF0
1818
1818
1018
300C
300C
F83F
ENDCHAR
STARTCHAR 1EB1
ENCODING 7857
SWIDTH 444 0
DWIDTH 12 0
BBX 11 24 1 0
BITMAP
3000
7800
1800
0C00
0400
4280
40C0
2080
3100
0E00
0000
0000
1F00
6180
E180
0180
0180
1F80
7980
E180
C180
C180
C780
79E0
ENDCHAR
STARTCHAR 1EB2
ENCODING 7858
SWIDTH 592 0
DWIDTH 16 0
BBX 16 27 0 0
BITMAP
03C0
02C0
0180
0300
0A90
0810
0C20
0660
0180
0000
0080
0180
0380
03C0
02C0
06C0
0660
0460
0C70
0C30
0FF0
1818
1818
1018
300C
300C
F83F
ENDCHAR
STARTCHAR 1EB3
ENCODING 7859
SWIDTH 444 0
DWIDTH 12 0
BBX 11 23 1 0
BITMAP
0E00
1600
0400
1800
4C80
40C0
2080
3100
0E00
0000
0000
1F00
6180
E180
0180
0180
1F80
7980
E180
C180
C180
C780
79E0
ENDCHAR
STARTCHAR 1EB4
ENCODING 7860
SWIDTH 592 0
DWIDTH 16 0
BBX 16 27 0 0
BITMAP
0F90
08E0
1000
0000
0000
1010
0810
0660
03C0
0000
0080
0180
0380
03C0
02C0
06C0
0660
0460
0C70
0C30
0FF0
1818
1818
1018
300C
300C
F83F
ENDCHAR
STARTCHAR 1EB5
ENCODING 7861
SWIDTH 444 0
DWIDTH 12 0
BBX 11 22 1 0
BITMAP
3840
7E80
4700
4080
40C0
2080
3100
0E00
0000
0000
1F00
6180
E180
0180
0180
1F80
7980
E180
C180
C180
C780
79E0
ENDCHAR
STARTCHAR 1EB6
ENCODING 7862
SWIDTH 592 0
DWIDTH 16 0
BBX 16 28 0 -5
BITMAP
0810
0810
0C20
0660
0180
0000
0080
0180
0380
03C0
02C0
06C0
0660
0460
0C70
0C30
0FF0
1818
1818
1018
300C
300C
F83F
0000
0000
0180
0180
0100
ENDCHAR
STARTCHAR 1EB7
ENCODING 7863
SWIDTH 444 0
DWIDTH 12 0
BBX 11 24 1 -5
BITMAP
4080
40C0
2080
3100
0E00
0000
0000
1F00
6180
E180
0180
0180
1F80
7980
E180
C180
C180
C780
79E0
0000
0000
0C00
0C00
0C00
ENDCHAR
STARTCHAR 1EB8
ENCODING 7864
SWIDTH 481 0
DWIDTH 13 0
BBX 12 22 1 -5
BITMAP
FFE0
3020
3020
3000
3000
3000
3000
3FC0
3080
3000
3000
3000
3000
3000
3010
3030
FFE0
0000
0000
0400
0C00
0400
ENDCHAR
STARTCHAR 1EB9
ENCODING 7865
SWIDTH 444 0
DWIDTH 12 0
BBX 10 17 1 -5
BITMAP
0F00
3180
60C0
40C0
FFC0
C000
C000
C000
E000
6040
3080
1F00
0000
0000
0400
0C00
0C00
ENDCHAR
STARTCHAR 1EBA
ENCODING 7866
SWIDTH 481 0
DWIDTH 13 0
BBX 12 23 1 0
BITMAP
0E00
1600
0600
1C00
0C00
0000
FFE0
3020
3020
3000
3000
3000
3000
3FC0
3080
3000
3000
3000
3000
3000
3010
3030
FFE0
ENDCHAR
STARTCHAR 1EBB
ENCODING 7867
SWIDTH 444 0
DWIDTH 12 0
BBX 10 19 1 0
BITMAP
0600
1F00
0600
0C00
0C00
0000
0000
0F00
3180
60C0
40C0
FFC0
C000
C000
C000
E000
6040
3080
1F00
ENDCHAR
STARTCHAR 1EBC
ENCODING 7868
SWIDTH 481 0
DWIDTH 13 0
BBX 12 22 1 0
BITMAP
0040
1EC0
2780
4300
0000
FFE0
3020
3020
3000
3000
3000
3000
3FC0
3080
3000
3000
3000
3000
3000
3010
3030
FFE0
ENDCHAR
STARTCHAR 1EBD
ENCODING 7869
SWIDTH 444 0
DWIDTH 12 0
BBX 10 18 1 0
BITMAP
1C40
3E80
6700
0000
0000
0000
0F00
3180
60C0
40C0
FFC0
C000
C000
C000
E000
6040
3080
1F00
ENDCHAR
STARTCHAR 1EBE
ENCODING 7870
SWIDTH 481 0
DWIDTH 13 0
BBX 12 29 1 0
BITMAP
0100
01C0
0380
0700
0C00
1000
0000
0E00
1B00
3080
4040
0000
FFE0
3020
3020
3000
3000
3000
3000
3FC0
3080
3000
3000
3000
3000
3000
3010
3030
FFE0
ENDCHAR
STARTCHAR 1EBF
ENCODING 7871
SWIDTH 444 0
DWIDTH 12 0
BBX 10 26 1 0
BITMAP
0180
01C0
0300
0200
0600
0C00
0000
0600
0F00
1900
3080
2040
0000
0000
0F00
3180
60C0
40C0
FFC0
C000
C000
C000
E000
6040
3080
1F00
ENDCHAR
STARTCHAR 1EC0
ENCODING 7872
SWIDTH 481 0
DWIDTH 13 0
BBX 12 29 1 0
BITMAP
2000
7000
3800
0C00
0300
0200
0000
0E00
1B00
3080
4040
0000
FFE0
3020
3020
3000
3000
3000
3000
3FC0
3080
3000
3000
3000
3000
3000
3010
3030
FFE0
ENDCHAR
STARTCHAR 1EC1
ENCODING 7873
SWIDTH 444 0
DWIDTH 12 0
BBX 10 26 1 0
BITMAP
3000
3800
1800
0C00
0600
0200
0000
0600
0F00
1900
3080
2040
0000
0000
0F00
3180
60C0
40C0
FFC0
C000
C000
C000
E000
6040
3080
1F00
ENDCHAR
STARTCHAR 1EC2
ENCODING 7874
SWIDTH 481 0
DWIDTH 13 0
BBX 12 29 1 0
BITMAP
0400
0E00
1600
0C00
1C00
0800
0000
0E00
1B00
3080
4040
0000
FFE0
3020
3020
3000
3000
3000
3000
3FC0
3080
3000
3000
3000
3000
3000
3010
3030
FFE0
ENDCHAR
STARTCHAR 1EC3
ENCODING 7875
SWIDTH 444 0
DWIDTH 12 0
BBX 10 25 1 0
BITMAP
0600
0F00
0600
0C00
0C00
0000
0600
0F00
1900
3080
2040
0000
0000
0F00
3180
60C0
40C0
FFC0
C000
C000
C000
E000
6040
3080
1F00
ENDCHAR
STARTCHAR 1EC4
ENCODING 7876
SWIDTH 481 0
DWIDTH 13 0
BBX 12 28 1 0
BITMAP
0080
1040
2FC0
4780
4200
0000
0E00
1B00
3080
4040
0000
FFE0
3020
3020
3000
3000
3000
3000
3FC0
3080
3000
3000
3000
3000
3000
3010
3030
FFE0
ENDCHAR
STARTCHAR 1EC5
ENCODING 7877
SWIDTH 444 0
DWIDTH 12 0
BBX 10 24 1 0
BITMAP
1840
3E40
6780
0000
0000
0600
0F00
1900
3080
2040
0000
0000
0F00
3180
60C0
40C0
FFC0
C000
C000
C000
E000
6040
3080
1F00
ENDCHAR
STARTCHAR 1EC6
ENCODING 7878
SWIDTH 481 0
DWIDTH 13 0
BBX 12 27 1 -5
BITMAP
0E00
1B00
3080
4040
0000
FFE0
3020
3020
3000
3000
3000
3000
3FC0
3080
3000
3000
3000
3000
3000
3010
3030
FFE0
0000
0000
0400
0C00
0400
ENDCHAR
STARTCHAR 1EC7
ENCODING 7879
SWIDTH 444 0
DWIDTH 12 0
BBX 10 24 1 -5
BITMAP
0600
0F00
1900
3080
2040
0000
0000
0F00
3180
60C0
40C0
FFC0
C000
C000
C000
E000
6040
3080
1F00
0000
0000
0400
0C00
0C00
ENDCHAR
STARTCHAR 1EC8
ENCODING 7880
SWIDTH 296 0
DWIDTH 8 0
BBX 6 23 1 0
BITMAP
38
58
30
60
70
00
FC
30
30
30
30
30
30
30
30
30
30
30
30
30
30
30
FC
ENDCHAR
STARTCHAR 1EC9
ENCODING 7881
SWIDTH 259 0
DWIDTH 7 0
BBX 6 19 1 0
BITMAP
30
58
30
60
60
00
00
30
F0
30
30
30
30
30
30
30
30
30
FC
ENDCHAR
STARTCHAR 1ECA
ENCODING 7882
SWIDTH 296 0
DWIDTH 8 0
BBX 6 22 1 -5
BITMAP
FC
30
30
30
30
30
30
30
30
30
30
30
30
30
30
30
FC
00
00
30
30
20
ENDCHAR
STARTCHAR 1ECB
ENCODING 7883
SWIDTH 259 0
DWIDTH 7 0
BBX 6 23 1 -5
BITMAP
30
70
30
00
00
00
30
F0
30
30
30
30
30
30
30
30
30
FC
00
00
20
30
20
ENDCHAR
STARTCHAR 1ECC
ENCODING 7884
SWIDTH 592 0
DWIDTH 16 0
BBX 14 22 1 -5
BITMAP
07C0
1860
3030
6018
6018
400C
C00C
C00C
C00C
C00C
C00C
C008
6018
6010
3030
1860
0F80
0000
0000
0300
0300
0300
ENDCHAR
STARTCHAR 1ECD
ENCODING 7885
SWIDTH 518 0
DWIDTH 14 0
BBX 12 17 1 -5
BITMAP
0F80
30C0
6060
4070
C030
C030
C030
C030
E020
6060
30C0
1F00
0000
0000
0600
0600
0600
ENDCHAR
STARTCHAR 1ECE
ENCODING 7886
SWIDTH 592 0
DWIDTH 16 0
BBX 14 23 1 0
BITMAP
0380
0580
0300
0600
0300
0000
07C0
1860
3030
6018
6018
400C
C00C
C00C
C00C
C00C
C00C
C008
6018
6010
3030
1860
0F80
ENDCHAR
STARTCHAR 1ECF
ENCODING 7887
SWIDTH 518 0
DWIDTH 14 0
BBX 12 19 1 0
BITMAP
0700
0B00
0200
0C00
0C00
0200
0000
0F80
30C0
6060
4070
C030
C030
C030
C030
E020
6060
30C0
1F00
ENDCHAR
STARTCHAR 1ED0
ENCODING 7888
SWIDTH 592 0
DWIDTH 16 0
BBX 14 29 1 0
BITMAP
0040
0060
00F0
0380
0600
0800
0000
0380
04C0
0860
1020
0000
07C0
1860
3030
6018
6018
400C
C00C
C00C
C00C
C00C
C00C
C008
6018
6010
3030
1860
0F80
ENDCHAR
STARTCHAR 1ED1
ENCODING 7889
SWIDTH 518 0
DWIDTH 14 0
BBX 12 26 1 0
BITMAP
00C0
01C0
0380
0300
0600
0400
0000
0600
0F00
1980
1080
2040
0000
0000
0F80
30C0
6060
4070
C030
C030
C030
C030
E020
6060
30C0
1F00
ENDCHAR
STARTCHAR 1ED2
ENCODING 7890
SWIDTH 592 0
DWIDTH 16 0
BBX 14 29 1 0
BITMAP
1000
1800
1E00
0700
0180
0080
0000
0380
04C0
0860
1020
0000
07C0
1860
3030
6018
6018
400C
C00C
C00C
C00C
C00C
C00C
C008
6018
6010
3030
1860
0F80
ENDCHAR
STARTCHAR 1ED3
ENCODING 7891
SWIDTH 518 0
DWIDTH 14 0
BBX 12 26 1 0
BITMAP
3800
1800
0C00
0400
0600
0200
0100
0600
0F00
1980
1080
2040
0000
0000
0F80
30C0
6060
4070
C030
C030
C030
C030
E020
6060
30C0
1F00
ENDCHAR
STARTCHAR 1ED4
ENCODING 7892
SWIDTH 592 0
DWIDTH 16 0
BBX 14 29 1 0
BITMAP
0200
0380
0580
0300
0600
0500
0000
0380
04C0
0860
1020
0000
07C0
1860
3030
6018
6018
400C
C00C
C00C
C00C
C00C
C00C
C008
6018
6010
3030
1860
0F80
ENDCHAR
STARTCHAR 1ED5
ENCODING 7893
SWIDTH 518 0
DWIDTH 14 0
BBX 12 25 1 0
BITMAP
0600
0B00
0200
0C00
0C00
0200
0600
0F00
1980
1080
2040
0000
0000
0F80
30C0
6060
4070
C030
C030
C030
C030
E020
6060
30C0
1F00
ENDCHAR
STARTCHAR 1ED6
ENCODING 7894
SWIDTH 592 0
DWIDTH 16 0
BBX 14 28 1 0
BITMAP
0020
0430
0FE0
11C0
2100
0000
0380
04C0
0860
1020
0000
07C0
1860
3030
6018
6018
400C
C00C
C00C
C00C
C00C
C00C
C008
6018
6010
3030
1860
0F80
ENDCHAR
STARTCHAR 1ED7
ENCODING 7895
SWIDTH 518 0
DWIDTH 14 0
BBX 12 24 1 0
BITMAP
1C60
3E40
2380
0000
0000
0600
0F00
1980
1080
2040
0000
0000
0F80
30C0
6060
4070
C030
C030
C030
C030
E020
6060
30C0
1F00
ENDCHAR
STARTCHAR 1ED8
ENCODING 7896
SWIDTH 592 0
DWIDTH 16 0
BBX 14 27 1 -5
BITMAP
0380
04C0
0860
1020
0000
07C0
1860
3030
6018
6018
400C
C00C
C00C
C00C
C00C
C00C
C008
6018
6010
3030
1860
0F80
0000
0000
0300
0300
0300
ENDCHAR
STARTCHAR 1ED9
ENCODING 7897
SWIDTH 518 0
DWIDTH 14 0
BBX 12 24 1 -5
BITMAP
0600
0F00
1980
1080
2040
0000
0000
0F80
30C0
6060
4070
C030
C030
C030
C030
E020
6060
30C0
1F00
0000
0000
0600
0600
0600
ENDCHAR
STARTCHAR 1EDA
ENCODING 7898
SWIDTH 592 0
DWIDTH 16 0
BBX 15 23 1 0
BITMAP
0060
00F0
01C0
0306
040E
0006
07C4
1868
3030
2018
6018
400C
C00C
C00C
C00C
C00C
C00C
C008
6018
6010
3030
1860
0F80
ENDCHAR
STARTCHAR 1EDB
ENCODING 7899
SWIDTH 555 0
DWIDTH 15 0
BBX 14 20 1 0
BITMAP
00C0
0180
0380
0300
0600
040C
001C
000C
0F88
30F0
6060
4070
C030
C030
C030
C030
E020
6060
30C0
1F00
ENDCHAR
STARTCHAR 1EDC
ENCODING 7900
SWIDTH 592 0
DWIDTH 16 0
BBX 15 23 1 0
BITMAP
1800
1C00
0700
0386
008E
0006
07C4
1868
3030
2018
6018
400C
C00C
C00C
C00C
C00C
C00C
C008
6018
6010
3030
1860
0F80
ENDCHAR
STARTCHAR 1EDD
ENCODING 7901
SWIDTH 555 0
DWIDTH 15 0
BBX 14 20 1 0
BITMAP
3800
1800
0C00
0400
0600
030C
001C
000C
0F88
30F0
6060
4070
C030
C030
C030
C030
E020
6060
30C0
1F00
ENDCHAR
STARTCHAR 1EDE
ENCODING 7902
SWIDTH 592 0
DWIDTH 16 0
BBX 15 23 1 0
BITMAP
0380
0580
0300
0606
030E
0006
07C4
1868
3030
2018
6018
400C
C00C
C00C
C00C
C00C
C00C
C008
6018
6010
3030
1860
0F80
ENDCHAR
STARTCHAR 1EDF
ENCODING 7903
SWIDTH 555 0
DWIDTH 15 0
BBX 14 19 1 0
BITMAP
0700
0B00
0200
0C00
0C0C
021C
000C
0F88
30F0
6060
4070
C030
C030
C030
C030
E020
6060
30C0
1F00
ENDCHAR
STARTCHAR 1EE0
ENCODING 7904
SWIDTH 592 0
DWIDTH 16 0
BBX 15 22 1 0
BITMAP
0020
0F30
13E6
208E
0006
07C4
1868
3030
2018
6018
400C
C00C
C00C
C00C
C00C
C00C
C008
6018
6010
3030
1860
0F80
ENDCHAR
STARTCHAR 1EE1
ENCODING 7905
SWIDTH 555 0
DWIDTH 15 0
BBX 14 18 1 0
BITMAP
1C60
3E40
2380
000C
001C
000C
0F88
30F0
6060
4070
C030
C030
C030
C030
E020
6060
30C0
1F00
ENDCHAR
STARTCHAR 1EE2
ENCODING 7906
SWIDTH 592 0
DWIDTH 16 0
BBX 15 25 1 -5
BITMAP
0006
000E
0006
07C4
1868
3030
2018
6018
400C
C00C
C00C
C00C
C00C
C00C
C008
6018
6010
3030
1860
0F80
0000
0000
0300
0300
0300
ENDCHAR
STARTCHAR 1EE3
ENCODING 7907
SWIDTH 555 0
DWIDTH 15 0
BBX 14 20 1 -5
BITMAP
000C
001C
000C
0F88
30F0
6060
4070
C030
C030
C030
C030
E020
6060
30C0
1F00
0000
0000
0600
0600
0600
ENDCHAR
STARTCHAR 1EE4
ENCODING 7908
SWIDTH 666 0
DWIDTH 18 0
BBX 16 22 1 -5
BITMAP
FC3F
300C
300C
300C
300C
300C
300C
300C
300C
300C
300C
300C
300C
3018
1818
0C30
07E0
0000
0000
0180
0180
0100
ENDCHAR
STARTCHAR 1EE5
ENCODING 7909
SWIDTH 518 0
DWIDTH 14 0
BBX 14 17 0 -5
BITMAP
3030
F0F0
3030
3030
3030
3030
3030
3030
3030
3070
38BC
1F38
0000
0000
0300
0300
0300
ENDCHAR
STARTCHAR 1EE6
ENCODING 7910
SWIDTH 666 0
DWIDTH 18 0
BBX 16 23 1 0
BITMAP
01C0
02C0
0180
0300
0380
0000
FC3F
300C
300C
300C
300C
300C
300C
300C
300C
300C
300C
300C
300C
3018
1818
0C30
07E0
ENDCHAR
STARTCHAR 1EE7
ENCODING 7911
SWIDTH 518 0
DWIDTH 14 0
BBX 14 19 0 0
BITMAP
0380
0580
0100
0600
0600
0100
0000
3030
F0F0
3030
3030
3030
3030
3030
3030
3030
3070
38BC
1F30
ENDCHAR
STARTCHAR 1EE8
ENCODING 7912
SWIDTH 666 0
DWIDTH 18 0
BBX 17 23 1 0
BITMAP
003000
007000
01C000
038100
020380
000300
FC7E00
301C00
301800
301800
301800
301800
301800
301800
301800
301800
301800
301800
301800
301000
183000
0C6000
07C000
ENDCHAR
STARTCHAR 1EE9
ENCODING 7913
SWIDTH 629 0
DWIDTH 17 0
BBX 16 20 0 0
BITMAP
0060
00E0
00C0
0180
0300
0203
0007
0013
F0F6
303C
3030
3030
3030
3030
3030
3030
3030
3070
38BC
1F30
ENDCHAR
STARTCHAR 1EEA
ENCODING 7914
SWIDTH 666 0
DWIDTH 18 0
BBX 17 23 1 0
BITMAP
0C0000
1E0000
070000
01C100
004380
000300
FC7E00
301C00
301800
301800
301800
301800
301800
301800
301800
301800
301800
301800
301800
301000
183000
0C6000
07C000
ENDCHAR
STARTCHAR 1EEB
ENCODING 7915
SWIDTH 629 0
DWIDTH 17 0
BBX 16 20 0 0
BITMAP
1C00
0C00
0600
0300
0100
0183
0007
0013
F0F6
303C
3030
3030
3030
3030
3030
3030
3030
3070
38BC
1F30
ENDCHAR
STARTCHAR 1EEC
ENCODING 7916
SWIDTH 666 0
DWIDTH 18 0
BBX 17 23 1 0
BITMAP
01C000
02C000
018000
030100
038380
000300
FC7E00
301C00
301800
301800
301800
301800
301800
301800
301800
301800
301800
301800
301800
301000
183000
0C6000
07C000
ENDCHAR
STARTCHAR 1EED
ENCODING 7917
SWIDTH 629 0
DWIDTH 17 0
BBX 16 19 0 0
BITMAP
0380
0580
0100
0600
0603
0107
0013
F0F6
303C
3030
3030
3030
3030
3030
3030
3030
3070
38BC
1F30
ENDCHAR
STARTCHAR 1EEE
ENCODING 7918
SWIDTH 666 0
DWIDTH 18 0
BBX 17 22 1 0
BITMAP
001000
07B000
09E100
104380
000300
FC7E00
301C00
301800
301800
301800
301800
301800
301800
301800
301800
301800
301800
301800
301000
183000
0C6000
07C000
ENDCHAR
STARTCHAR 1EEF
ENCODING 7919
SWIDTH 629 0
DWIDTH 17 0
BBX 16 18 0 0
BITMAP
0E10
1F20
11C0
0003
0007
0013
F0F6
303C
3030
3030
3030
3030
3030
3030
3030
3070
38BC
1F30
ENDCHAR
STARTCHAR 1EF0
ENCODING 7920
SWIDTH 666 0
DWIDTH 18 0
BBX 17 25 1 -5
BITMAP
000100
000380
000300
FC7E00
301C00
301800
301800
301800
301800
301800
301800
301800
301800
301800
301800
301800
301000
183000
0C6000
07C000
000000
000000
018000
018000
010000
ENDCHAR
STARTCHAR 1EF1
ENCODING 7921
SWIDTH 629 0
DWIDTH 17 0
BBX 16 20 0 -5
BITMAP
0003
0007
0013
F0F6
303C
3030
3030
3030
3030
3030
3030
3030
3070
38BC
1F30
0000
0000
0300
0300
0300
ENDCHAR
STARTCHAR 1EF2
ENCODING 7922
SWIDTH 592 0
DWIDTH 16 0
BBX 15 23 0 0
BITMAP
0C00
0E00
0300
01C0
0040
0000
F03E
380C
1818
1C18
0E30
0620
0760
03C0
03C0
0180
0180
0180
0180
0180
0180
0180
07E0
ENDCHAR
STARTCHAR 1EF3
ENCODING 7923
SWIDTH 481 0
DWIDTH 13 0
BBX 14 26 -1 -6
BITMAP
0E00
0600
0300
0100
0180
0080
0040
0000
7C3C
1818
1810
0C30
0C20
0E20
0660
0640
03C0
0380
0380
0180
0100
0300
0200
0600
7C00
F000
ENDCHAR
STARTCHAR 1EF4
ENCODING 7924
SWIDTH 592 0
DWIDTH 16 0
BBX 15 22 0 -5
BITMAP
F03E
380C
1818
1C18
0E30
0620
0760
03C0
03C0
0180
0180
0180
0180
0180
0180
0180
07E0
0000
0000
0180
0180
0100
ENDCHAR
STARTCHAR 1EF5
ENCODING 7925
SWIDTH 481 0
DWIDTH 13 0
BBX 14 18 -1 -6
BITMAP
7C3C
1818
1810
0C30
0C20
0E20
0660
0640
03C0
0380
0380
0180
0100
0300
0230
0630
7C30
F000
ENDCHAR
STARTCHAR 1EF6
ENCODING 7926
SWIDTH 592 0
DWIDTH 16 0
BBX 15 23 0 0
BITMAP
01C0
02C0
0180
0300
0180
0000
F03E
380C
1818
1C18
0E30
0620
0760
03C0
03C0
0180
0180
0180
0180
0180
0180
0180
07E0
ENDCHAR
STARTCHAR 1EF7
ENCODING 7927
SWIDTH 481 0
DWIDTH 13 0
BBX 14 25 -1 -6
BITMAP
0180
02C0
0180
0300
0300
0080
0000
7C3C
1818
1810
0C30
0C20
0E20
0660
0640
03C0
0380
0380
0180
0100
0300
0200
0600
7C00
F000
ENDCHAR
STARTCHAR 1EF8
ENCODING 7928
SWIDTH 592 0
DWIDTH 16 0
BBX 15 22 0 0
BITMAP
0010
07B0
09E0
1040
0000
F03E
380C
1818
1C18
0E30
0620
0760
03C0
03C0
0180
0180
0180
0180
0180
0180
0180
07E0
ENDCHAR
STARTCHAR 1EF9
ENCODING 7929
SWIDTH 481 0
DWIDTH 13 0
BBX 14 24 -1 -6
BITMAP
0710
0F90
08E0
1000
0000
0000
7C3C
1818
1810
0C30
0C20
0E20
0660
0640
03C0
0380
0380
0180
0100
0300
0200
0600
7C00
F000
ENDCHAR
STARTCHAR 2011
ENCODING 8209
SWIDTH 333 0
DWIDTH 9 0
BBX 7 1 1 6
BITMAP
FE
ENDCHAR
STARTCHAR 2013
ENCODING 8211
SWIDTH 481 0
DWIDTH 13 0
BBX 11 1 1 6
BITMAP
FFE0
ENDCHAR
STARTCHAR 2014
ENCODING 8212
SWIDTH 777 0
DWIDTH 21 0
BBX 19 1 1 6
BITMAP
FFFFE0
ENDCHAR
STARTCHAR 2018
ENCODING 8216
SWIDTH 222 0
DWIDTH 6 0
BBX 4 6 1 13
BITMAP
20
40
C0
C0
E0
F0
ENDCHAR
STARTCHAR 2019
ENCODING 8217
SWIDTH 222 0
DWIDTH 6 0
BBX 4 6 1 13
BITMAP
70
F0
30
30
20
40
ENDCHAR
STARTCHAR 201A
ENCODING 8218
SWIDTH 222 0
DWIDTH 6 0
BBX 4 6 1 -3
BITMAP
70
F0
30
30
20
40
ENDCHAR
STARTCHAR 201C
ENCODING 8220
SWIDTH 444 0
DWIDTH 12 0
BBX 10 6 1 13
BITMAP
2080
4100
C300
C300
E380
F3C0
ENDCHAR
STARTCHAR 201D
ENCODING 8221
SWIDTH 444 0
DWIDTH 12 0
BBX 10 6 1 13
BITMAP
71C0
F3C0
30C0
30C0
2080
4100
ENDCHAR
STARTCHAR 201E
ENCODING 8222
SWIDTH 444 0
DWIDTH 12 0
BBX 9 6 1 -3
BITMAP
7380
F780
3180
3180
2100
4200
ENDCHAR
STARTCHAR 2020
ENCODING 8224
SWIDTH 481 0
DWIDTH 13 0
BBX 12 21 0 -1
BITMAP
0300
0E00
0600
0600
0600
4610
FFF0
8620
0600
0600
0600
0600
0600
0600
0600
0600
0600
0600
0600
0600
0600
ENDCHAR
STARTCHAR 2021
ENCODING 8225
SWIDTH 481 0
DWIDTH 13 0
BBX 12 21 0 -1
BITMAP
0300
0E00
0600
0600
0600
4610
FFF0
8620
0600
0600
0600
0600
0600
4610
FFF0
8620
0600
0600
0600
0700
0C00
ENDCHAR
STARTCHAR 2022
ENCODING 8226
SWIDTH 296 0
DWIDTH 8 0
BBX 6 7 1 5
BITMAP
78
78
FC
FC
F8
F8
70
ENDCHAR
STARTCHAR 2026
ENCODING 8230
SWIDTH 666 0
DWIDTH 18 0
BBX 15 4 2 -1
BITMAP
6186
E38E
E38E
C30C
ENDCHAR
STARTCHAR 2030
ENCODING 8240
SWIDTH 1000 0
DWIDTH 27 0
BBX 25 16 1 0
BITMAP
38060000
6C0C0000
C6180000
C6180000
C6300000
C6600000
C6C00000
6CC00000
399E0E00
03331B00
0661B180
0661B180
0C61B180
1861B180
30331900
201E0E00
ENDCHAR
STARTCHAR 2039
ENCODING 8249
SWIDTH 296 0
DWIDTH 8 0
BBX 5 12 1 0
BITMAP
08
18
10
30
60
E0
E0
60
30
10
08
08
ENDCHAR
STARTCHAR 203A
ENCODING 8250
SWIDTH 296 0
DWIDTH 8 0
BBX 5 12 2 0
BITMAP
80
C0
60
20
30
18
18
30
20
60
C0
80
ENDCHAR
STARTCHAR 2044
ENCODING 8260
SWIDTH 592 0
DWIDTH 16 0
BBX 11 16 3 0
BITMAP
0020
0040
00C0
0080
0100
0300
0200
0400
0C00
0800
1800
3000
2000
6000
C000
8000
ENDCHAR
STARTCHAR 20AC
ENCODING 8364
SWIDTH 481 0
DWIDTH 13 0
BBX 12 16 0 0
BITMAP
03E0
0C70
1800
1800
3000
3000
7F80
3000
3000
FF80
3000
3000
3000
1810
1C20
07C0
ENDCHAR
STARTCHAR 2122
ENCODING 8482
SWIDTH 592 0
DWIDTH 16 0
BBX 15 6 0 11
BITMAP
FF06
B58C
3194
3154
3124
7BAE
ENDCHAR
STARTCHAR 2126
ENCODING 8486
SWIDTH 629 0
DWIDTH 17 0
BBX 14 17 1 0
BITMAP
07C0
1870
3038
6018
400C
C00C
C00C
C00C
C00C
C00C
E018
6018
7030
3060
9844
8C84
FCFC
ENDCHAR
STARTCHAR 2202
ENCODING 8706
SWIDTH 518 0
DWIDTH 14 0
BBX 12 19 1 0
BITMAP
1F00
21C0
40E0
0060
0060
0030
0030
0F30
30B0
6070
4030
C030
C030
C030
C020
E060
6040
3080
1F00
ENDCHAR
STARTCHAR 2205
ENCODING 8709
SWIDTH 666 0
DWIDTH 18 0
BBX 16 19 1 -1
BITMAP
0003
07E6
1834
301C
203C
6036
4066
C0E3
C0C3
C183
C303
C703
E602
6C06
7C04
380C
2C18
67E0
C000
ENDCHAR
STARTCHAR 2206
ENCODING 8710
SWIDTH 555 0
DWIDTH 15 0
BBX 13 17 1 0
BITMAP
0200
0700
0700
0700
0D80
0980
19C0
18C0
10C0
30E0
3060
2060
6030
6030
C038
C018
FFF8
ENDCHAR
STARTCHAR 220F
ENCODING 8719
SWIDTH 629 0
DWIDTH 17 0
BBX 15 17 1 0
BITMAP
FFFE
3018
3018
3018
3018
3018
3018
3018
3018
3018
3018
3018
3018
3018
3018
3018
FC7E
ENDCHAR
STARTCHAR 2211
ENCODING 8721
SWIDTH 518 0
DWIDTH 14 0
BBX 12 17 1 0
BITMAP
FFF0
6030
7010
3810
1800
1C00
0E00
0600
0700
0600
0C00
1800
1800
3010
6010
E010
FFF0
ENDCHAR
STARTCHAR 2212
ENCODING 8722
SWIDTH 407 0
DWIDTH 11 0
BBX 9 1 1 7
BITMAP
FF80
ENDCHAR
STARTCHAR 2219
ENCODING 8729
SWIDTH 148 0
DWIDTH 4 0
BBX 2 3 1 8
BITMAP
C0
C0
C0
ENDCHAR
STARTCHAR 221A
ENCODING 8730
SWIDTH 592 0
DWIDTH 16 0
BBX 16 19 0 0
BITMAP
0007
0004
000C
0008
0008
0008
0010
F010
1810
1830
0C20
0C20
0E20
0660
0740
0340
03C0
01C0
0180
ENDCHAR
STARTCHAR 221E
ENCODING 8734
SWIDTH 666 0
DWIDTH 18 0
BBX 16 7 1 4
BITMAP
3C1E
7F67
C383
C183
C383
FCE6
783C
ENDCHAR
STARTCHAR 222B
ENCODING 8747
SWIDTH 259 0
DWIDTH 7 0
BBX 12 26 -3 -6
BITMAP
00F0
0130
0200
0600
0600
0600
0600
0600
0600
0600
0600
0600
0700
0700
0300
0300
0300
0300
0300
0300
0300
0300
0200
0200
0400
F800
ENDCHAR
STARTCHAR 2248
ENCODING 8776
SWIDTH 444 0
DWIDTH 12 0
BBX 10 7 1 4
BITMAP
7040
8CC0
0380
0000
7000
CC40
8380
ENDCHAR
STARTCHAR 2260
ENCODING 8800
SWIDTH 444 0
DWIDTH 12 0
BBX 10 12 1 1
BITMAP
0180
0180
0300
FFC0
0C00
0C00
1800
FFC0
3000
6000
6000
C000
ENDCHAR
STARTCHAR 2264
ENCODING 8804
SWIDTH 444 0
DWIDTH 12 0
BBX 10 10 1 3
BITMAP
00C0
03C0
1E00
F800
E000
7800
0F00
03C0
0000
FFC0
ENDCHAR
STARTCHAR 2265
ENCODING 8805
SWIDTH 444 0
DWIDTH 12 0
BBX 10 10 1 3
BITMAP
C000
F800
1F00
03C0
01C0
0F00
7800
E000
0000
FFC0
ENDCHAR
STARTCHAR 25CA
ENCODING 9674
SWIDTH 333 0
DWIDTH 9 0
BBX 9 17 0 0
BITMAP
0800
1C00
1C00
3600
2600
6300
4300
4180
C180
C100
6300
6200
3200
3600
1C00
1C00
0800
ENDCHAR
STARTCHAR 25CC
ENCODING 9676
SWIDTH 555 0
DWIDTH 15 0
BBX 13 12 1 0
BITMAP
1F80
3060
0000
C018
0000
8010
0000
0000
C018
3060
1980
0600
ENDCHAR
STARTCHAR 2C60
ENCODING 11360
SWIDTH 481 0
DWIDTH 13 0
BBX 12 17 1 0
BITMAP
FC00
3000
3000
3000
3000
3000
3000
3000
FE00
3000
FE00
3000
3000
3000
3010
3030
FFE0
ENDCHAR
STARTCHAR 2C61
ENCODING 11361
SWIDTH 333 0
DWIDTH 9 0
BBX 6 20 1 0
BITMAP
30
F0
30
30
30
30
30
30
FC
30
FC
30
30
30
30
30
30
30
30
FC
ENDCHAR
STARTCHAR 2C62
ENCODING 11362
SWIDTH 481 0
DWIDTH 13 0
BBX 13 17 0 0
BITMAP
7E00
1800
1800
1800
1800
1800
1800
1900
7980
9E00
9800
1800
1800
1800
1808
1818
7FF0
ENDCHAR
STARTCHAR A789
ENCODING 42889
SWIDTH 222 0
DWIDTH 6 0
BBX 3 10 1 1
BITMAP
60
E0
E0
C0
00
00
60
E0
E0
C0
ENDCHAR
STARTCHAR A78A
ENCODING 42890
SWIDTH 333 0
DWIDTH 9 0
BBX 7 4 1 4
BITMAP
FE
00
00
FE
ENDCHAR
STARTCHAR A78B
ENCODING 42891
SWIDTH 259 0
DWIDTH 7 0
BBX 3 12 2 9
BITMAP
E0
E0
E0
E0
C0
C0
C0
C0
C0
C0
40
40
ENDCHAR
STARTCHAR A78C
ENCODING 42892
SWIDTH 259 0
DWIDTH 7 0
BBX 3 12 2 8
BITMAP
60
E0
E0
E0
C0
C0
C0
C0
C0
40
40
40
ENDCHAR
STARTCHAR F130
ENCODING 61744
SWIDTH 148 0
DWIDTH 4 0
BBX 3 4 1 -4
BITMAP
E0
20
20
20
ENDCHAR
STARTCHAR F131
ENCODING 61745
SWIDTH 148 0
DWIDTH 4 0
BBX 4 4 0 -4
BITMAP
F0
80
80
80
ENDCHAR
STARTCHAR F195
ENCODING 61845
SWIDTH 185 0
DWIDTH 5 0
BBX 5 6 0 14
BITMAP
C0
60
70
30
18
08
ENDCHAR
STARTCHAR F197
ENCODING 61847
SWIDTH 185 0
DWIDTH 5 0
BBX 5 6 0 14
BITMAP
18
38
30
60
40
80
ENDCHAR
STARTCHAR F1C8
ENCODING 61896
SWIDTH 333 0
DWIDTH 9 0
BBX 8 9 0 11
BITMAP
3E
67
C3
03
06
0C
18
18
18
ENDCHAR
STARTCHAR F1E9
ENCODING 61929
SWIDTH 222 0
DWIDTH 6 0
BBX 3 10 1 1
BITMAP
60
E0
E0
C0
00
00
60
E0
E0
C0
ENDCHAR
STARTCHAR F1EA
ENCODING 61930
SWIDTH 333 0
DWIDTH 9 0
BBX 7 4 1 4
BITMAP
FE
00
00
FE
ENDCHAR
STARTCHAR F20E
ENCODING 61966
SWIDTH 333 0
DWIDTH 9 0
BBX 6 20 1 0
BITMAP
30
F0
30
30
30
30
30
30
FC
30
FC
30
30
30
30
30
30
30
30
FC
ENDCHAR
STARTCHAR F20F
ENCODING 61967
SWIDTH 481 0
DWIDTH 13 0
BBX 12 17 1 0
BITMAP
FC00
3000
3000
3000
3000
3000
3000
3000
FE00
3000
FE00
3000
3000
3000
3010
3030
FFE0
ENDCHAR
STARTCHAR F211
ENCODING 61969
SWIDTH 518 0
DWIDTH 14 0
BBX 16 18 1 -6
BITMAP
0F20
30E0
6060
4060
C060
C060
C060
C060
C060
60E0
3160
1E60
0060
0060
0061
0063
0062
003C
ENDCHAR
STARTCHAR F212
ENCODING 61970
SWIDTH 592 0
DWIDTH 16 0
BBX 18 23 1 -6
BITMAP
03CC00
0C3800
101800
201800
601800
401800
C01800
C01800
C01800
C01800
C01800
C01800
601800
603800
305800
389800
0F1800
001800
001800
001840
0018C0
001880
000F00
ENDCHAR
STARTCHAR F218
ENCODING 61976
SWIDTH 666 0
DWIDTH 18 0
BBX 16 17 1 0
BITMAP
FC3F
300C
300C
300C
300C
300C
300C
300C
FFFF
300C
300C
300C
300C
3018
1818
0C30
07E0
ENDCHAR
STARTCHAR F219
ENCODING 61977
SWIDTH 666 0
DWIDTH 18 0
BBX 17 17 0 0
BITMAP
00C000
01C000
01C000
01E000
036000
026000
063000
063000
043800
0C1800
0C1800
081C00
180C00
180C00
100600
300600
FC1F80
ENDCHAR
STARTCHAR F21D
ENCODING 61981
SWIDTH 259 0
DWIDTH 7 0
BBX 3 12 2 8
BITMAP
60
E0
E0
E0
C0
C0
C0
C0
C0
40
40
40
ENDCHAR
STARTCHAR F21E
ENCODING 61982
SWIDTH 407 0
DWIDTH 11 0
BBX 9 12 1 0
BITMAP
3E00
6380
C180
C180
0380
0600
0C00
1800
1800
1800
1800
7E00
ENDCHAR
STARTCHAR F21F
ENCODING 61983
SWIDTH 481 0
DWIDTH 13 0
BBX 12 17 1 0
BITMAP
FC00
3000
3000
3000
3000
3000
3000
3000
3000
FE00
3000
3000
3000
3000
3010
3030
FFE0
ENDCHAR
STARTCHAR F242
ENCODING 62018
SWIDTH 481 0
DWIDTH 13 0
BBX 13 17 0 0
BITMAP
7E00
1800
1800
1800
1800
1800
1800
1900
7980
9E00
9800
1800
1800
1800
1808
1818
7FF0
ENDCHAR
STARTCHAR F26A
ENCODING 62058
SWIDTH 259 0
DWIDTH 7 0
BBX 3 12 2 9
BITMAP
E0
E0
E0
E0
C0
C0
C0
C0
C0
C0
40
40
ENDCHAR
STARTCHAR FB01
ENCODING 64257
SWIDTH 592 0
DWIDTH 16 0
BBX 14 20 1 0
BITMAP
03C0
0C80
1830
1030
3030
3000
3000
3000
FF10
3070
3030
3030
3030
3030
3030
3030
3030
3030
3030
FE7C
ENDCHAR
STARTCHAR FB02
ENCODING 64258
SWIDTH 592 0
DWIDTH 16 0
BBX 14 20 1 0
BITMAP
03B0
0DF0
1830
1030
3030
3030
3030
3030
FF30
3030
3030
3030
3030
3030
3030
3030
3030
3030
3030
FEFC
ENDCHAR
ENDFONT
